<?xml version="1.0" standalone="no"?>
<!DOCTYPE svg PUBLIC "-//W3C//DTD SVG 1.1//EN" "http://www.w3.org/Graphics/SVG/1.1/DTD/svg11.dtd" >
<svg xmlns="http://www.w3.org/2000/svg" xmlns:xlink="http://www.w3.org/1999/xlink" version="1.1">
<metadata>
Created by FontForge 20180930 at Mon Oct  8 19:27:50 2018
 By root
Created by User's name with Font.My (http://font.my)
</metadata>
<defs>
<font id="TippyToes_X_tra_Bold" horiz-adv-x="472" >
  <font-face 
    font-family="TippyToes X-tra Bold"
    font-weight="700"
    font-stretch="normal"
    units-per-em="1000"
    panose-1="2 0 8 3 0 0 0 0 0 0"
    ascent="800"
    descent="-200"
    x-height="506"
    cap-height="770"
    bbox="36.2 -279.5 754.887 862.882"
    underline-thickness="50"
    underline-position="-150"
    unicode-range="U+0020-201D"
  />
    <missing-glyph />
    <glyph glyph-name="space" unicode=" " horiz-adv-x="437" 
 />
    <glyph glyph-name="exclam" unicode="!" horiz-adv-x="206" 
d="M55.5 88.5q17.5 17.5 42.5 17.5t43 -17l3 -3q17 -18 17 -43t-17.5 -42t-42.5 -17t-42 17l-3 3q-18 17 -18 42t17.5 42.5zM93.5 794.5q24.5 1.5 43.5 -15t20 -41.5l8 -144q8 -148 1 -289l-8 -138q-1 -24 -19.5 -41t-43 -15.5t-41.5 20t-15 43.5l7 138q7 134 -1 275l-8 144
q-1 25 15.5 43.5t41 20z" />
    <glyph glyph-name="quotedbl" unicode="&#x22;" horiz-adv-x="248" 
d="M161 748q21 0 36 -16t14 -38l-1 -24q0 -25 -1 -35v-11q0 -21 -16 -36.5t-38 -14.5q-13 0 -25 7q-18 -23 -46 -20q-21 3 -35 20t-12 38l10 94q2 21 19 35t39 12q18 -2 32 -16q11 6 24 5z" />
    <glyph glyph-name="numbersign" unicode="#" horiz-adv-x="434" 
d="M99 269q-7 19 0 38q-19 -4 -36 6t-23 28q-7 21 2.5 40.5t29.5 26.5l78 27q0 26 -1 49l-2 86q-1 21 14 37t37 16q28 1 44 -22q4 18 18.5 30t32.5 12q22 0 37.5 -15.5t15.5 -36.5v-87q15 -1 28 -9.5t19 -22.5q8 -20 0 -40.5t-28 -28.5l-15 -6q12 -9 17 -22q8 -19 0.5 -38
t-25.5 -28v-2l-4 -48q-2 -21 -19 -35t-39 -13q-11 2 -22 8l1 -86q1 -22 -14.5 -37.5t-37 -16t-37 15t-16.5 36.5l-1 105q-17 -1 -32 8t-22 25z" />
    <glyph glyph-name="dollar" unicode="$" horiz-adv-x="477" 
d="M430 433.5q-13 -17.5 -34.5 -20.5t-38.5 10l-8 6q1 -23 2.5 -64t2.5 -56q0 -4 1 -15q4 -2 9 -5q55 -29 67 -77q12 -45 -17 -93q-17 -29 -44 -47q4 -41 5 -49l4 -18q4 -21 -8 -39.5t-33 -22.5t-39.5 8t-22.5 33l-4 18q-1 5 -2 12l-22 19q-4 5 -7 11q-8 1 -17 2
q-52 8 -87 22.5t-55 44.5q-9 13 -13 28l-10 41q-6 21 5 40t32 24.5t40 -6t24 -31.5l10 -38q13 -10 54 -18q-3 44 -8 83q0 2 -0.5 6t-1.5 6q-29 14 -62 30l-25 12.5t-26 15t-25 18.5t-20 21t-14.5 24.5t-4.5 28t7 32.5q15 34 47.5 55.5t86.5 40.5l-5 41q-3 21 10 38.5
t35 20.5q17 2 34 -7q60 33 83 -65q28 -4 50 -21l35 -26q17 -13 20 -34.5t-10 -39zM199 372q-4 26 -6 47q-26 -11 -40 -21q16 -12 45 -26h1z" />
    <glyph glyph-name="percent" unicode="%" horiz-adv-x="461" 
d="M417 238q5 -10 6 -19l2 -19q2 -33 -24 -88q-36 -76 -95 -46q-23 12 -35 44q-5 12 -7 24q-16 -61 -23 -87l-13 -46q-6 -21 -25 -31.5t-40 -5t-31.5 25t-4.5 39.5l13 46q12 46 57 215q35 133 57 224q-15 -11 -30 -18q-1 -6 -2 -10q-8 -43 -45 -62t-77 -8q-34 9 -53 40.5
t-4 67.5q-8 16 -4 32.5t9.5 26t13.5 16.5q28 27 65 25q37 32 64 7q13 -13 18 -21q2 2 4 3q21 16 39 31.5t26.5 24t10.5 11.5v3t1 8t3.5 10t7 10t12 8t18.5 3t27 -3q22 -6 34 -15.5t13 -19t-0.5 -18t-5.5 -14.5l-4 -5q-4 -14 -28 -113q-24 -102 -69 -271q-3 -13 -6 -25l2 4
l32 47q12 18 33.5 22t39.5 -8q15 -11 20.5 -29.5t-2.5 -35.5z" />
    <glyph glyph-name="ampersand" unicode="&#x26;" horiz-adv-x="425" 
d="M194.5 517.5q21.5 2.5 38.5 -11.5t20 -35l7 -64l56 23q20 8 40 -0.5t28.5 -28t0 -40t-28.5 -28.5l-68 -28q-8 -4 -17 -8q2 -42 1 -69q0 -29 -14 -48q-43 -60 -127 2q-62 45 -75 59q-19 24 -19 42.5t14 32t31 22t30 12.5l14 4q16 6 33 12l-11 93q-2 21 11.5 38.5t35 20z
" />
    <glyph glyph-name="quotesingle" unicode="'" horiz-adv-x="198" 
d="M93.5 686.5q24.5 1.5 43.5 -15t20 -41.5l5 -87q1 -25 -16 -43.5t-41.5 -20t-43 15.5t-19.5 41l-5 88q-1 24 15.5 42.5t41 20z" />
    <glyph glyph-name="parenleft" unicode="(" horiz-adv-x="347" 
d="M299 790.5q13 -16.5 10.5 -38.5t-19.5 -35l-10 -8q-10 -9 -42 -46q-34 -40 -52 -77q-18 -38 -35 -113q-15 -71 -5 -140q11 -70 48 -140q39 -77 63 -112q27 -42 36 -61l6 -16q9 -19 1 -39.5t-27.5 -29.5t-40 -1t-28.5 27l-7 16q-5 11 -28 46q-27 40 -69 121
q-44 86 -57 173q-14 88 6 179q19 87 42 136q24 49 67 99q42 49 57 60l11 9q17 13 38.5 10t34.5 -19.5z" />
    <glyph glyph-name="parenright" unicode=")" horiz-adv-x="299" 
d="M64.5 790.5q18.5 10.5 39.5 4t32 -25.5l7 -13q5 -10 39 -59q41 -60 65 -175q23 -114 13 -193q-10 -73 -35 -177t-37 -135l-11 -27q-8 -20 -28.5 -28.5t-40 -0.5t-28.5 28.5t-1 39.5l11 27q10 24 33 121q24 98 33 166q8 61 -12 157q-20 95 -49 138q-37 53 -45 69l-7 12
q-10 19 -3.5 40t25 31.5z" />
    <glyph glyph-name="asterisk" unicode="*" horiz-adv-x="593" 
d="M37.5 390.5q1.5 21.5 18 35.5t37.5 13l15 -1q7 52 61 50v7q-2 22 13 38t36 17q25 2 42 -18q9 0 16 -3q17 -5 26 -20q57 39 98 -3q7 -7 12 -16q22 -41 1 -81q16 -3 30 -5l72 -15q21 -5 33 -23t7.5 -39t-23 -33.5t-39.5 -7.5l-72 15q-44 9 -116 16q11 -15 21 -26l38 -42
q15 -16 14 -38t-17 -36.5t-38 -13.5t-36 17l-15 16q-28 -26 -54 -21q-8 -15 -24.5 -22t-33.5 -3q-21 5 -32.5 23.5t-6.5 39.5l14 58q-11 12 -18 16q-9 6 -15 13q-13 15 -14 36h-2q-22 2 -36 18.5t-12.5 38z" />
    <glyph glyph-name="plus" unicode="+" horiz-adv-x="503" 
d="M39.5 232.5q-6.5 20.5 3.5 40t30 26.5l30 9q13 5 65 28q-1 46 -2 74l-1 50q-1 22 14 38t36.5 16.5t37.5 -14.5t17 -37l1 -50q1 -13 1 -30l120 56q20 9 40.5 1.5t29.5 -27t1.5 -40t-27.5 -29.5l-132 -62q-16 -7 -30 -14v-11v-105q1 -22 -14.5 -37.5t-37 -15.5t-37 15
t-16.5 37v71q-21 -9 -33 -13l-30 -10q-20 -7 -40 3t-26.5 30.5z" />
    <glyph glyph-name="comma" unicode="," horiz-adv-x="198" 
d="M78.5 95q23.5 8 46 -3.5t29.5 -34.5l3 -9q8 -23 2 -56l-3 -18q-4 -24 -24 -39t-44.5 -11t-39 24.5t-10.5 44.5l3 19v4l-1 3q-7 24 4 46t34.5 30z" />
    <glyph glyph-name="hyphen" unicode="-" horiz-adv-x="464" 
d="M37.5 249.5q-3.5 21.5 9.5 39t35 20.5l41 7q42 6 145 17l102 11q21 2 38 -12t19.5 -35t-11.5 -38t-35 -20l-102 -10q-101 -11 -140 -17l-42 -6q-21 -4 -38.5 9t-21 34.5z" />
    <glyph glyph-name="period" unicode="." horiz-adv-x="226" 
d="M58.5 91.5q21.5 21.5 53 21.5t53.5 -22l3 -3q22 -21 22 -52.5t-22 -53t-53.5 -21.5t-52.5 21l-3 3q-22 22 -22 53.5t21.5 53z" />
    <glyph glyph-name="slash" unicode="/" horiz-adv-x="583" 
d="M489 594q-10 -15 -23 -34q-72 -103 -162 -283q-90 -182 -127 -276l-39 -96q-8 -20 -28 -29t-40 -1t-28.5 28.5t-0.5 40.5l38 96q39 98 131 284q93 187 169 296q1 0 6 11t12.5 23.5t18 28.5t23 27.5t26.5 18.5t30 3t31 -20q17 -19 19.5 -34t-3.5 -20l-6 -6l-10 -26
q-9 -25 -37 -32z" />
    <glyph glyph-name="zero" unicode="0" horiz-adv-x="350" 
d="M192 598q-22 -56 -36 -158q-22 -165 -9 -246q1 -8 3 -15q24 24 40 91q25 101 13 228q-6 63 -11 100zM294 622q7 -42 13 -115q14 -144 -15 -262q-32 -133 -107 -169q-30 -15 -58 -10q-45 7 -67 55q-11 23 -17 56q-15 96 9 276q12 95 31 156t51 99q75 87 136 34
q9 -8 15 -19l21 -33q10 -17 6.5 -36.5t-18.5 -31.5z" />
    <glyph glyph-name="one" unicode="1" horiz-adv-x="182" 
d="M93.5 797.5q21.5 -0.5 37 -16t14.5 -37.5l-2 -102q-1 -101 -1 -230q1 -130 2 -262l1 -133q0 -21 -15.5 -37t-37 -16t-37 15.5t-15.5 36.5l-1 133q-1 133 -2 262q-1 131 1 233l2 102q1 22 16.5 37t37 14.5z" />
    <glyph glyph-name="two" unicode="2" horiz-adv-x="476" 
d="M66 460.5q-19 9.5 -26 30.5t3 40l50 99q67 134 158 117q33 -6 52.5 -26.5t25.5 -53t5.5 -61t-5.5 -66.5q-18 -147 -76 -271q-31 -66 -52 -113q19 2 41 4q101 7 127 5l23 -2q21 -2 35.5 -19t12.5 -38t-19 -35.5t-38 -12.5l-23 2q-18 2 -110 -5q-73 -5 -93 -15
q-2 -2 -5 -4.5t-13 -7.5t-19.5 -6t-22 5t-23.5 21q-12 16 -14.5 32.5t1 25.5t11 21.5t7.5 13.5q24 57 79 173q51 108 67 239q7 58 1 87q-18 -15 -40 -58l-50 -99q-9 -19 -30 -25.5t-40 3z" />
    <glyph glyph-name="three" unicode="3" horiz-adv-x="484" 
d="M117.5 562q-15.5 15 -15.5 37t15 37l40 41q56 57 164 54q32 -1 54 -14q16 -10 27 -25q13 -20 16 -41.5t-5 -45.5t-16.5 -41t-23.5 -43q-27 -46 -51 -79q28 -13 60 -33q23 -15 38 -33q22 -26 26.5 -55t-6.5 -56t-30 -51t-45 -45q-143 -121 -238 -65l-64 37
q-19 11 -24.5 32t5.5 39.5t32 24.5t40 -5l63 -37q4 -2 9 -3t15 1t22.5 7.5t31.5 18t41 30.5q13 11 21.5 19t14.5 14t8 11t4 7.5t-1 6t-4.5 4.5t-7.5 4.5t-8 4.5q-52 33 -80 37h-5q-3 -1 -5 -3q-6 -2 -9 -4.5t-6.5 -3.5t-14.5 -3q-17 -2 -19.5 25t2.5 55l6 29q5 4 12 11
q29 32 77 111q18 31 25 52q-54 -1 -76 -23l-40 -40q-15 -16 -37 -16t-37.5 15z" />
    <glyph glyph-name="four" unicode="4" horiz-adv-x="464" 
d="M367 784.5q19 -9.5 25.5 -30.5t-3.5 -40l-37 -73l2 -77q2 -80 8 -163q16 5 32 -1t26 -21q11 -17 6.5 -38.5t-22.5 -33.5l-17 -11q-6 -5 -14 -8q2 -12 3 -23q19 -158 20 -170l1 -12q2 -22 -12 -39t-35.5 -19t-38 12.5t-18.5 35.5l-2 12q-1 11 -19 167q-1 3 -1 5
q-4 -1 -10 -2q-95 -23 -142 -31q-4 -3 -16.5 -1t-25.5 5t-24.5 15.5t-14.5 31.5q-3 6 -1 15t1.5 14t3.5 12.5t5.5 11.5t6.5 11t7 10t7.5 9.5t7.5 9.5q49 64 134 227l36 70l-1 44q-1 21 14.5 37t36.5 16q10 19 31 25.5t40 -3zM260 363q-4 46 -7 91q-36 -65 -65 -109
q22 5 49 12q12 3 23 6z" />
    <glyph glyph-name="five" unicode="5" horiz-adv-x="477" 
d="M130 660q3 20 19 33t36 12q14 6 29 5q15 -2 27 -12q21 -1 48 0q45 2 64 6l24 6q21 4 39.5 -7.5t23 -32.5t-7 -39.5t-32.5 -23.5l-24 -5q-28 -6 -82 -9q-22 -1 -40 0l-8 -71q-6 -50 -11 -86q4 2 8 3q32 12 63 5q54 -12 87 -79q22 -44 19.5 -91.5t-28.5 -89.5
q-53 -87 -164 -94q-118 -8 -155 61l-22 40q-10 19 -4 40t25 31.5t40 4t31 -25.5l22 -39q1 -1 4.5 -3t17.5 -4t34 0q57 4 82 44q13 21 13.5 39.5t-10.5 40.5q-8 17 -15 22q-2 0 -4 -1q-45 -16 -65 -30q-2 -2 -6 -4.5t-15 -7t-21.5 -5.5t-23.5 6t-23 23q-4 7 -7 14t-3.5 12.5
t0 11.5t1.5 9l2.5 7.5t1.5 5.5q7 26 21 152l9 77q-25 19 -20 49z" />
    <glyph glyph-name="six" unicode="6" horiz-adv-x="358" 
d="M228 105q-15 -13 -33 -13q-3 -1 -7 0q-27 -3 -49.5 7t-38 30.5t-25.5 41t-19 47.5q-47 141 22 327l63 168q8 20 28 29t40 1.5t29 -27.5t2 -40l-63 -168q-48 -127 -30 -223q12 41 39 73q6 7 14 13.5t22.5 15.5t33 7t34.5 -16q6 -5 10.5 -11t7.5 -10.5t5.5 -11.5t3.5 -10.5
t2 -12.5t1.5 -11t1 -11.5t0.5 -10.5v-27q-6 -94 -80 -148q-7 -5 -14 -9z" />
    <glyph glyph-name="seven" unicode="7" horiz-adv-x="428" 
d="M40 622q-7 20 2.5 40t29.5 27l57 20q64 22 137 28q1 0 10.5 1t15 1t16 0.5t18 -1l17.5 -3.5t17 -7t14 -11.5t11 -16.5t6 -22q0 -13 1 -17.5t-2 -18t-3.5 -18.5t-6 -20t-8 -22.5t-9 -25t-10.5 -28.5q-38 -104 -98 -272l-60 -168q-7 -20 -27 -29.5t-40 -2.5t-29.5 27
t-2.5 40l60 168q60 169 98 273q15 41 24 68h-4q-59 -5 -110 -22l-57 -20q-21 -7 -40.5 2.5t-26.5 29.5z" />
    <glyph glyph-name="eight" unicode="8" horiz-adv-x="417" 
d="M203 520l-27 30q-15 18 -24 20q-2 0 -5 -2q-8 -6 -8 -8t9 -22q14 -28 32 -58q11 20 23 40zM319 510q-4 -14 -14 -24l-12 -20q-26 -44 -47 -88q-2 -3 -4 -7q36 -87 1 -198q-1 -3 -3 -8q-8 -26 -12.5 -39.5t-15 -35.5t-20.5 -33.5t-26.5 -21.5t-36.5 -12q-21 -1 -36 7
t-22.5 22t-10.5 25t-4 21q-2 42 22 131q19 69 47 137q-2 4 -5 7q-37 63 -65 115q-24 41 -16.5 88t46.5 76q29 21 61 23q58 3 110 -56l3 -4l24 40q11 18 32.5 23.5t39.5 -5.5t23.5 -32t-5.5 -40z" />
    <glyph glyph-name="nine" unicode="9" horiz-adv-x="449" 
d="M259 605q-21 13 -70 -35q-60 -58 -43 -89l1 -1q13 7 31 26q64 64 81 99zM335 679l60 -53q16 -14 17 -36t-13 -38q-15 -17 -40 -18q-5 -27 -14 -69q-28 -133 -47 -261q-18 -112 -20 -130v-4q0 -22 -16 -37t-37.5 -14.5t-36.5 16.5t-15 37v6q0 10 21 142q14 92 33 188
q-58 -46 -110 -31q-29 8 -50 34q-7 8 -13 19q-21 36 -16.5 75.5t24.5 73t53 66.5q35 33 71 51t76 15.5t73 -32.5z" />
    <glyph glyph-name="colon" unicode=":" horiz-adv-x="187" 
d="M58 359.5q15 15.5 37 15.5t37 -15l3 -3q15 -16 15 -37.5t-15 -37t-37 -15.5t-37 15l-3 3q-15 16 -15 37.5t15 37zM52 504q15 15 37 15t37 -15l3 -3q16 -15 16 -37t-15.5 -37.5t-37.5 -15.5t-37 15l-3 3q-15 16 -15 38t15 37z" />
    <glyph glyph-name="semicolon" unicode=";" horiz-adv-x="220" 
d="M134.5 115q21.5 -1 36 -17.5t12.5 -38.5l-6 -98q-2 -22 -18.5 -36.5t-38 -13t-35.5 18t-13 37.5l7 99q1 22 17.5 36t38 13zM52 342.5q15 15.5 37 15.5t37 -15l3 -3q16 -16 16 -38t-15.5 -37t-37.5 -15t-37 15l-3 3q-15 16 -15 37.5t15 37z" />
    <glyph glyph-name="less" unicode="&#x3c;" horiz-adv-x="393" 
d="M336.5 581.5q16.5 -13.5 19 -35t-10.5 -38.5l-30 -37q-34 -43 -106 -89l28 -10l74 -28q20 -7 29 -27t1.5 -40t-27.5 -29.5t-40 -1.5l-74 27q-74 28 -105 39q-2 2 -6 4.5t-14.5 11t-18 17t-13.5 20t-6 22t9.5 21t29.5 18.5q14 6 72 42q61 38 85 68l30 38q13 16 35 18.5
t38.5 -11z" />
    <glyph glyph-name="equal" unicode="=" horiz-adv-x="440" 
d="M51 266q-1 17 8.5 30.5t24.5 19.5q-20 3 -33.5 18t-13.5 35q0 21 15.5 36.5t37.5 15.5h61q60 0 127 5l69 4q21 2 38 -12.5t18.5 -36t-13 -38t-36.5 -17.5l-5 -1q18 -13 20.5 -34.5t-11.5 -38.5t-35 -20l-60 -7q-63 -7 -112 -8l-46 -2q-22 0 -37.5 15t-16.5 36z" />
    <glyph glyph-name="greater" unicode="&#x3e;" horiz-adv-x="280" 
d="M54 538.5q16 14.5 38 13.5t36 -17l21 -23q17 -19 52 -47q39 -33 42 -72q3 -32 -18 -60q-25 -33 -56 -59l-27 -21q-16 -14 -38 -12t-35.5 18.5t-11.5 38.5t19 36l26 21q16 13 30 30q-39 32 -61 57l-21 22q-14 16 -13 38t17 36.5z" />
    <glyph glyph-name="question" unicode="?" horiz-adv-x="411" 
d="M263 169q15 15 37 15t37 -15l3 -3q15 -15 15 -37t-15 -37.5t-37 -15.5t-37 15l-3 4q-15 15 -15 37t15 37zM59.5 640.5q-17.5 12.5 -21.5 34t8 39.5l46 64q31 45 79.5 63t104.5 8q10 -2 19 -5q33 -11 52 -33.5t24 -52t1.5 -60t-14.5 -62.5q-41 -124 -39 -251l3 -137
q0 -22 -15 -37.5t-36.5 -16t-37.5 14.5t-16 37l-3 137q-2 146 44 285q25 72 5 76q-3 1 -6 1q-31 6 -48 -0.5t-31 -26.5l-46 -65q-12 -17 -33.5 -21t-39 8.5z" />
    <glyph glyph-name="at" unicode="@" horiz-adv-x="792" 
d="M151 391q-25 -119 19 -230q48 -121 134 -144q86 -22 180 52q102 80 136 184q36 109 29 161l-8 64q-2 21 11.5 38.5t34.5 20t38.5 -11t20.5 -34.5l7 -64q10 -76 -33 -206q-44 -135 -171 -235q-135 -106 -272 -70q-137 35 -205 206q-64 163 -11 337q13 45 32 87
q50 114 137 203q129 132 241 111q58 -11 97 -51.5t54 -101.5q29 -112 -3 -238q-33 -128 -90 -177q-61 -52 -113 -26q-18 9 -31 27q-3 3 -5 7q-1 -2 -2 -3q-66 -83 -139 -71q-13 2 -25 7q-63 28 -64 128q0 15 1 30zM372 557q-5 -2 -11 -4q-55 -23 -79 -71q-4 -8 -7 -16
q-20 -48 -20 -104q1 -20 4 -32q16 5 37 33q42 52 64 120q1 2 2 6q4 41 10 68zM464 442q-2 -30 -1 -51q0 -8 1 -16q30 32 53 121q26 99 4 185q-10 37 -26 54t-43 22q-57 11 -147 -81q-33 -34 -60 -72q34 29 77 46q22 9 44.5 12.5t45 0.5t42 -17.5t30.5 -38.5q25 -56 26 -88
l1 -22q1 -21 -13 -37t-34 -18z" />
    <glyph glyph-name="A" unicode="A" horiz-adv-x="488" 
d="M76 292q-10 30 13 53q23 124 47 216q2 9 6.5 25.5t6.5 23.5t5.5 20t5 19t4.5 16.5t5 15.5l5 12.5l5 12.5t5 10l6 10q15 22 43 25l4 15q5 21 24 32.5t39.5 6t32 -24t6.5 -39.5l-24 -93q8 -28 17 -64q17 -69 35 -142l4 1q21 7 40.5 -2.5t26.5 -30t-3 -40t-30 -26.5l-13 -4
q8 -31 15 -59q41 -162 43 -172l1 -7q3 -21 -10 -38.5t-34.5 -21t-39 9.5t-20.5 34l-1 6q-4 18 -41 163q-7 27 -13 52q-20 -7 -35 -12l-36 -11q-19 -70 -36 -123q-40 -123 -43 -135l5 -9q3 -20 -46 -29q-29 -5 -44.5 6t-18 31t-0.5 40.5t7 35.5l5 15q7 44 19 116q5 27 9 54z
M254 405q7 2 13 4q-3 12 -6 23q-3 -14 -7 -27z" />
    <glyph glyph-name="B" unicode="B" horiz-adv-x="561" 
d="M389 442q9 -2 18 -5q54 -17 86.5 -56.5t31.5 -93.5q-3 -95 -112 -190q-57 -50 -109 -69q-3 -18 -17.5 -30.5t-33.5 -13.5q-17 0 -31.5 10.5t-19.5 26.5q-3 0 -16.5 1.5t-21.5 3t-21 5.5t-21 9.5t-15.5 16.5t-10.5 25l-1 6q-5 21 7 39.5t33 22.5q31 7 52 -17l6 -2
q-1 10 -1 19q-8 101 -26 217q-11 65 -19 128l-19 -21q-15 -15 -37 -16t-37.5 13.5t-16.5 36.5t14 38l81 87l-8 74q-2 21 12 38t35 19q20 2 36 -9.5t21 -30.5q108 77 194 12q42 -31 50 -78t-9 -93t-53 -95q-11 -14 -21 -28zM298 142q22 13 46 34q74 65 76 113q0 19 -8.5 29
t-37.5 19q-32 11 -55 11q-4 0 -7 -1q-23 -23 -33 -29q12 -84 17 -160q0 -2 0.5 -7.5t1.5 -8.5zM260 447q2 3 5 7q25 30 60 78q30 41 40 68.5t6.5 36t-12.5 15.5q-38 29 -118 -56q7 -73 19 -149z" />
    <glyph glyph-name="C" unicode="C" horiz-adv-x="578" 
d="M398 448q-21 2 -35 19t-12 39l2 28q2 17 -15 64q-6 17 -11 20.5t-18 4.5q-32 0 -72 -50q-50 -60 -79 -175q-29 -112 -6 -192q22 -77 70 -113q42 -33 82 -24q43 9 81 63q41 57 49 74l4 16q7 20 26 30.5t39.5 4.5t31 -25.5t4.5 -40.5l-5 -17q-2 -5 -4.5 -10.5t-4.5 -10
t-6 -11.5t-6.5 -11t-9 -13t-9 -13t-11 -16t-12.5 -17q-62 -88 -145 -106q-87 -19 -168 43q-76 58 -107 168q-30 107 5 247q35 138 100 216q72 88 154 88q45 -1 78.5 -26.5t48.5 -68.5q25 -69 21 -109l-3 -28q-2 -22 -19 -36t-38 -12z" />
    <glyph glyph-name="D" unicode="D" horiz-adv-x="612" 
d="M46.5 556.5q-12.5 17.5 -8.5 39t21 33.5l83 59q27 18 55 31q5 3 10 5q71 28 141 16q105 -20 183 -147q79 -129 19 -299q-58 -165 -174 -234q-35 -20 -50 -28l3 -30q2 -21 -12 -38t-35.5 -19t-38.5 12t-19 36l-1 12q-14 2 -28 8l-32 15q-19 9 -26.5 29.5t1.5 40t29.5 27
t40.5 -1.5l3 -1q-3 23 -6 51q-12 103 -19 210q-7 105 -11 196l-1 3l-55 -39q-17 -12 -38.5 -8t-34 21.5zM314 146q4 2 8 5q84 49 129 178q44 123 -9 209q-54 87 -113 98q-27 5 -52 0l2 -51q5 -91 12 -196q6 -103 18 -204q3 -21 5 -39z" />
    <glyph glyph-name="E" unicode="E" horiz-adv-x="564" 
d="M38 554q-4 21 8.5 39.5t33.5 21.5l7 2l-3 26q-2 22 12 39t35.5 19t38.5 -12t19 -36l2 -20q28 4 66 10q122 17 137 21l17 4q21 5 40 -7t23.5 -32.5t-7 -39.5t-32.5 -24l-17 -4q-20 -4 -146 -22q-40 -6 -71 -10v-5q7 -76 6 -168q24 10 30 13l20 12q19 11 40 6t32 -23.5
t6 -40t-24 -32.5l-19 -12q-24 -14 -89 -38q-1 -15 -2 -31q-6 -82 -9 -131q65 32 163 63l104 33q21 6 40.5 -4t25.5 -30.5t-4 -40t-30 -26.5l-104 -32q-100 -31 -160 -63h-1q-8 -5 -15.5 -8.5t-25.5 -10.5t-33 -7.5t-30.5 2t-25 17t-11.5 39.5t10 198q-30 6 -40 34
q-7 20 2 40t29 27l15 6q4 110 -4 196q-21 -3 -38 9.5t-21 32.5z" />
    <glyph glyph-name="F" unicode="F" horiz-adv-x="544" 
d="M44 279.5q-6 20.5 4.5 39.5t30.5 26l50 15q-3 28 -6 57q-15 145 -21 189h-2q-21 -5 -39.5 7t-22.5 33t8 39.5t33 22.5l113 24q114 24 183 38l69 14q21 5 39.5 -7.5t22.5 -33.5t-8 -39t-33 -23l-69 -14q-69 -14 -182 -38l-9 -1l1 -9q6 -44 22 -191q2 -19 4 -37l8 2l54 16
q20 7 39.5 -3.5t25.5 -31t-4.5 -40t-30.5 -25.5l-54 -16q-16 -5 -29 -9q5 -65 8 -122q5 -103 6 -120l2 -9q4 -21 -8.5 -39t-33.5 -21.5t-39.5 9t-21.5 33.5l-2 9q-2 13 -8 133q-2 46 -6 96l-28 -9q-21 -6 -40.5 4.5t-25.5 31z" />
    <glyph glyph-name="G" unicode="G" horiz-adv-x="588" 
d="M240.5 216.5q-8.5 19.5 -0.5 40t27 29.5l93 40q8 4 15 7q13 19 36 22q7 2 15 0q32 14 39 17l13 6q19 9 39.5 1t29.5 -27.5t1 -40t-28 -29.5l-13 -6q-6 -2 -30 -13q1 -17 4 -43q10 -85 -36 -162q-51 -82 -169 -100q-63 -9 -115 21.5t-85 90.5q-63 115 -25 298
q39 187 188 273q30 18 52 28.5t48.5 19t50 7.5t44.5 -11t35 -28l32 -44q13 -18 10 -39.5t-20.5 -34.5t-39 -9.5t-34.5 20.5l-29 40q-30 -1 -96 -40q-108 -62 -138 -203q-30 -145 14 -227q21 -37 42 -49.5t51 -8.5q69 10 94 50q28 46 22 97q-1 5 -1 10l-67 -29
q-19 -9 -39.5 -1t-29 27.5z" />
    <glyph glyph-name="H" unicode="H" horiz-adv-x="524" 
d="M37 372.5q2 21.5 19 35.5t38 12l23 -2q-6 118 -15 180l-14 106q-3 21 10 38.5t34.5 20.5t39 -10t20.5 -35l14 -105q10 -72 16 -204q55 -1 108 7v3q1 186 -7 241l-7 59q-3 21 10.5 38.5t34.5 20.5t38.5 -10.5t20.5 -35.5l7 -58q8 -61 8 -242q19 0 34 -12.5t18 -30.5
q4 -21 -9 -39t-34 -22l-9 -1q-3 -129 -11 -217l-11 -116q-2 -22 -19 -36t-38 -12t-35 19t-12 39l11 116q7 77 9 189q-51 -6 -103 -5q0 -26 1 -55q5 -214 11 -254l6 -15q8 -19 0 -39.5t-27.5 -29t-40 -0.5t-28.5 27l-8 19q-5 11 -8 26.5t-5 45t-2.5 51.5t-1 76t-1.5 91
q-1 34 -2 65l-35 4q-22 2 -36 18.5t-12 38z" />
    <glyph glyph-name="I" unicode="I" horiz-adv-x="339" 
d="M47.5 708q-2.5 21 11 38.5t35.5 19.5l23 3q28 3 84 1l51 -2q22 -1 36.5 -17t13.5 -37.5t-17 -36.5t-37 -14l-35 1l2 -39q8 -100 -4 -330q-8 -168 -10 -236h1q22 4 39.5 -8.5t21.5 -34t-9 -39.5t-34 -21l-33 -6l-12 -2q-11 -7 -25 -7q-15 0 -28 8q-10 1 -19 4l-28 7
q-20 6 -31 25t-5 40q5 19 21.5 29.5t35.5 8.5q1 60 10 237q12 224 5 317l-4 45h-1q-21 -2 -38.5 11.5t-20 34.5z" />
    <glyph glyph-name="J" unicode="J" horiz-adv-x="520" 
d="M157 622.5q-2 21.5 12 38.5t36 19l84 8q15 22 40 23q23 2 40 -14q21 2 28 4l23 5q21 4 39.5 -8t23 -33t-7.5 -39t-33 -23l-23 -5q-11 -2 -29 -5q5 -65 8 -210q4 -159 -31 -277q-20 -69 -67.5 -104.5t-111.5 -16.5q-4 1 -16.5 4.5t-16 4.5t-13.5 4t-13.5 4.5t-11.5 4.5
t-11.5 5t-10 5t-10.5 6t-8.5 6.5t-8.5 7.5l-16 16q-15 15 -15 37t15 37t37 15t37 -15l14 -14q18 -10 77 -28q10 -2 17.5 -2.5t15.5 12t17 41.5q30 102 26 244q-3 138 -7 202l-71 -7q-22 -2 -39 12t-19 35.5z" />
    <glyph glyph-name="K" unicode="K" horiz-adv-x="514" 
d="M71 253q-18 12 -21.5 34t8.5 39l11 16q-2 27 -4 56q-15 202 -21 275l-7 74q-2 21 12.5 38t35.5 19t38 -12.5t19 -35.5l6 -74q6 -60 17 -207q42 56 97 127q96 120 104 129l7 7q14 16 36 17t38 -13.5t16.5 -36.5t-13.5 -38l-7 -7q-9 -11 -98 -124q-68 -86 -115 -150l22 -47
q32 -71 106 -192q75 -124 94 -153l18 -29q11 -18 6.5 -39.5t-23 -33t-39.5 -6.5t-33 23l-18 29q-19 30 -94 154q-55 90 -89 154q6 -88 6 -143l2 -98q0 -21 -15 -37t-36.5 -16.5t-37 15t-16.5 36.5l-2 98q0 56 -6 149q-2 2 -4 3z" />
    <glyph glyph-name="L" unicode="L" horiz-adv-x="632" 
d="M125 -38q-23 -2 -38 3.5t-20 15t-7 19.5t0 17l1 7q-2 27 -1 90q2 100 3 248q0 146 -12 234l-13 92q-4 21 9.5 38.5t34.5 20.5t38.5 -10t20.5 -34l14 -92q13 -96 13 -249q-1 -150 -3 -250q-1 -21 -1 -37q17 3 37 6q89 15 188 15q91 0 115 4l29 6q22 4 40 -8.5t21.5 -34
t-8.5 -39.5t-34 -22l-29 -5q-33 -6 -134 -6q-91 0 -171 -13q-79 -13 -93 -16z" />
    <glyph glyph-name="M" unicode="M" horiz-adv-x="625" 
d="M140 717q23 1 40.5 -9t29.5 -30t20 -38.5t17 -46t15 -41.5q65 -147 101 -230q15 91 43 193q38 137 60 184q0 1 1.5 5.5t3 9.5t6 11.5t10 11.5t15.5 8.5t23 4.5q23 1 37.5 -7t19 -19.5t6.5 -23.5t0 -20l-1 -8q1 -54 -17 -221q-17 -161 -16 -330l1 -172q0 -21 -15.5 -36.5
t-37 -16t-37 15t-15.5 37.5l-1 172v61q0 -2 -0.5 -5t-2.5 -11.5t-5.5 -15t-9.5 -15t-14 -12.5t-20 -7t-27 3q-25 6 -40 32q-22 37 -60 123q-19 44 -47 106l0.5 -5.5t0.5 -7.5q11 -145 12 -283q1 -3 2 -7t3 -16t2 -22.5t-3 -22.5t-9.5 -20.5t-21 -13t-34.5 -2.5
q-30 4 -45.5 26t-17 51t-2 60.5t-0.5 52.5q-22 227 -47 374l-25 149q-4 21 8.5 38.5t33.5 21.5q19 3 36.5 -7t23.5 -29z" />
    <glyph glyph-name="N" unicode="N" horiz-adv-x="499" 
d="M83.5 785.5q21.5 2.5 38.5 -11.5t20 -35l4 -37q9 -13 9 -28l1 -49q0 -13 19 -67t52 -126q57 -125 99 -215v42q1 115 8 259q6 146 16 192l8 42q4 21 22.5 33t39.5 7.5t33 -22.5t8 -39l-8 -42q-8 -38 -15 -176q-6 -142 -7 -254q0 -116 -5 -183l-13 -49q-36 -100 -88 -42
q-3 3 -5 6q-5 6 -9.5 13t-11 19.5t-10.5 22t-14.5 32.5t-18.5 39q-30 65 -70 152q3 -47 6 -95q8 -175 11 -209l1 -1v-1q8 -20 -1 -40t-29.5 -27.5t-40.5 1.5t-27 29l-3 7q-3 10 -5.5 22.5t-3.5 33.5l-2 42t-2.5 61.5t-2.5 76.5q-11 212 -30 384l-20 174q-2 22 11.5 39
t35 19.5z" />
    <glyph glyph-name="O" unicode="O" horiz-adv-x="521" 
d="M295 617q-22 8 -52 -13q-64 -46 -87 -176q-25 -142 -6 -253q16 -94 71 -122q22 -12 37 -8t36 30q50 64 62 172q12 113 -7 188q-20 82 -35 127l-17 48q-1 3 -2 7zM440 506q6 -22 12 -46q22 -93 8 -225q-15 -137 -84 -225q-39 -50 -92.5 -64t-110.5 13q-102 52 -126 198
q-22 130 6 290q30 172 129 242q55 40 114 33.5t105 -55.5l70 -74q14 -15 13.5 -37t-16.5 -37q-11 -11 -28 -13z" />
    <glyph glyph-name="P" unicode="P" horiz-adv-x="444" 
d="M59 515q-17 12 -21 33.5t8 39.5l48 67l-3 20q-3 21 10 38.5t34 20.5t39 -10q64 27 141 -3q12 -4 23 -10q41 -22 57.5 -59t11 -78t-28.5 -83q-33 -61 -58.5 -93t-61.5 -43q-11 -4 -22 -4q3 -30 7 -64q22 -226 29 -258l6 -34q5 -21 -7.5 -39.5t-33.5 -22.5t-39 8t-23 33
l-6 34q-8 37 -31 268q-15 146 -25 235q-28 -14 -54 4zM225 457h3q23 19 58 84q16 29 19 45.5t-1 21t-16 10.5q-4 3 -10 5q-50 19 -74 1l3 -20q7 -50 18 -147z" />
    <glyph glyph-name="Q" unicode="Q" horiz-adv-x="546" 
d="M308 352q16 8 34 3.5t29 -17.5q3 48 -4 89q-17 89 -57 138l-49 60q-4 4 -6 9q-39 -5 -74 -57q-46 -67 -38 -231q4 -79 30 -121t74 -58q4 -2 8 -3q29 -10 47 -7t30 22q-7 13 -14 28l-35 75q-9 20 -2 40.5t27 29.5zM377 648l14 -16q57 -70 79 -185q21 -115 -21 -258
q-1 -4 -2 -7q13 -29 24 -51q20 -43 25 -51l6 -9q11 -18 6 -39.5t-23.5 -33t-39.5 -6.5t-33 24l-6 9q-7 12 -29 58q-68 -49 -164 -16q-82 28 -125.5 99.5t-49.5 173.5q-10 200 56 296q72 106 174 103l73 -2q21 0 36 -16t15 -38q-1 -20 -15 -35z" />
    <glyph glyph-name="R" unicode="R" horiz-adv-x="544" 
d="M41 674q-8 20 0 40.5t28 28.5l5 2q3 17 16.5 28.5t31.5 12.5q20 2 36 -11q68 6 156 -68q57 -46 68.5 -110t-25.5 -128q-43 -77 -93 -118q58 -44 121 -139q57 -84 81 -110l28 -29q14 -15 13.5 -37t-16 -37t-37.5 -14t-37 16l-27 29q-31 32 -92 124q-47 69 -86 103
q1 -2 1 -3q18 -195 19 -230l1 -33q1 -21 -14 -37t-36.5 -17t-37.5 14t-17 36l-1 33q-1 32 -19 224q-3 31 -5 61q-8 13 -8 36q-1 14 2 25q-10 120 -16 219l-3 59q-27 6 -37 30zM197 432q36 29 69 88q20 36 16 58.5t-35 48.5q-38 31 -65 40l4 -76q5 -73 11 -159z" />
    <glyph glyph-name="S" unicode="S" horiz-adv-x="484" 
d="M418.5 636q-12.5 -17 -34 -21t-39.5 9l-8 6q-25 -6 -76 -29q-81 -37 -107 -87q-9 -22 -8 -29t13 -18q46 -38 124 -68q102 -42 149 -130q24 -41 14 -80.5t-37 -70.5t-69 -56q-64 -39 -110.5 -55t-88.5 -3q-58 17 -82 56q-6 10 -10 21l-10 30q-6 21 4 40.5t30.5 26t40 -3.5
t25.5 -31l10 -28q5 -6 21 -10q3 -1 15.5 1.5t40.5 14.5t60 31q24 14 38 25.5t17 20t2.5 12.5t-4.5 10q-28 54 -95 81q-93 37 -151 85q-40 33 -48 80.5t15 93.5q43 85 158 137q6 3 28 13.5t30.5 14t27 9t30 5.5t26 -3.5t27.5 -12.5l19 -14q18 -12 21.5 -34t-9 -39z" />
    <glyph glyph-name="T" unicode="T" 
d="M37 736.5q1 21.5 17 36.5t38 14l58 -3q36 -1 84 -3q8 2 16 2q11 0 20 -4l28 -2l88 -5q22 -1 36.5 -17.5t13.5 -38t-17.5 -36t-38.5 -13.5l-79 5v-18q0 -78 -12 -265q-11 -182 0 -295l11 -117q2 -21 -12.5 -38t-35.5 -19t-38 12t-19 35l-11 117q-11 121 0 311
q12 185 12 260v22q-27 2 -50 3l-59 2q-21 1 -36 17t-14 37.5z" />
    <glyph glyph-name="U" unicode="U" horiz-adv-x="549" 
d="M441 426q2 -50 10 -102q5 -38 12 -76q28 -137 36 -159l9 -22q8 -19 0 -39.5t-28 -29t-40 0t-29 27.5l-9 22q-9 21 -28 115q-45 -99 -122 -131q-35 -15 -68 -8q-62 14 -96 97q-16 36 -27 89q-38 183 -16 364l21 173q3 21 20.5 34.5t38.5 11t34.5 -20t11.5 -38.5l-22 -173
q-20 -164 15 -330q7 -33 17 -58.5t16 -34.5t9 -11q2 0 6 2q58 24 90 149q7 24 12 48q13 54 21 107q-2 44 0 87q1 19 1 56t1.5 51t7.5 34t17 34q5 5 16 11t29.5 8t34.5 -14q15 -15 20.5 -35t4 -35.5t-6 -44.5t-6.5 -45q-4 -55 -13 -114z" />
    <glyph glyph-name="V" unicode="V" horiz-adv-x="608" 
d="M75.5 706q20.5 6 39.5 -5t25 -31l26 -94q26 -91 60 -180q36 -94 67 -209q4 -15 7 -30q34 92 66 170q35 84 62 159q28 78 36 96l8 17q9 19 29.5 27t40 -1t27 -29.5t-1.5 -40.5l-7 -16q-6 -14 -33 -88q-28 -78 -64 -165q-35 -84 -71 -184q-37 -102 -44 -119q0 -2 -2.5 -6
t-9 -13t-15 -13t-21.5 -7t-28 6q-14 6 -23 15.5t-11 16t-4 16.5t-2 11q-11 38 -41 151q-29 110 -63 199q-36 93 -63 189l-26 93q-6 21 5 40t31.5 25z" />
    <glyph glyph-name="W" unicode="W" horiz-adv-x="755" 
d="M597 513q-7 22 4 41l8 17q1 3 3 7.5t9.5 14.5t16.5 14.5t24.5 0.5t32.5 -21t21.5 -34.5t0.5 -28t-11 -23t-7 -14.5q-16 -60 -45 -262q-3 -18 -8 -54t-7 -50t-6.5 -40t-8 -38t-9.5 -28.5t-12.5 -27t-15.5 -19.5q-18 -17 -45 -16t-43 17q-6 6 -10.5 13t-8 12t-6.5 15
t-4.5 14.5t-4.5 17.5t-3.5 17t-3.5 20.5t-4 20.5q-18 102 -37 199q-12 -41 -27 -94q-55 -198 -75 -238q-7 -15 -30 -29t-50 0q-15 8 -26 21t-19 35t-11.5 37.5t-10 49.5t-10.5 51q-41 189 -80 348l-40 159q-5 21 6.5 40t32.5 24t39.5 -6.5t23.5 -32.5l40 -159
q39 -161 81 -350l2 -12q12 40 26 90q24 85 33 117.5t24 69t30 54.5t36 23q21 4 38 -2t27 -17t17 -30.5t10 -32.5t5.5 -32.5t3.5 -22.5q15 -79 30 -164q4 22 7 45q30 208 47 273z" />
    <glyph glyph-name="X" unicode="X" horiz-adv-x="469" 
d="M80 714.5q20 7.5 40 -1t28 -28.5l46 -120q21 -53 48 -120l8 28l50 164q7 20 26.5 30.5t40 4t30.5 -26t4 -39.5l-50 -164q-22 -72 -50 -144q10 -25 21 -50q80 -196 93 -222l13 -27q9 -20 1.5 -40.5t-26.5 -30t-40 -2t-30 26.5l-13 28q-13 26 -76 180q-12 -27 -25 -53
q-12 -25 -27 -63t-23.5 -57t-24.5 -36.5t-39 -23.5q-26 -7 -44.5 11t-21.5 32l-1 11q-3 17 5 32.5t23 22.5q20 37 58 117q35 71 64 143q-56 137 -92 230l-46 120q-8 20 1 40t29 27.5z" />
    <glyph glyph-name="Y" unicode="Y" horiz-adv-x="504" 
d="M429.5 780q20.5 -6 31.5 -25t5 -40l-60 -211q-21 -75 -41 -146l6 -9q13 -17 10 -38.5t-20 -34.5q-10 -8 -23 -10q-22 -79 -44 -153q-51 -178 -56 -208l-5 -33q-4 -22 -21.5 -34.5t-39 -9t-34 21t-9.5 38.5l5 34q6 36 59 220q27 93 56 194l-11 14q-51 67 -124 193l-70 123
q-11 19 -5 40t24.5 32t39.5 5t32 -24l70 -124q45 -77 81 -131q10 36 19 69l60 211q6 20 25 31t39.5 5z" />
    <glyph glyph-name="Z" unicode="Z" horiz-adv-x="586" 
d="M37 707.5q2 21.5 19 35.5t38 12l15 -1q17 -1 165 -1q156 0 180 -2q29 -3 43.5 -19t13.5 -37.5t-4.5 -37t-7.5 -24.5q-20 -42 -92 -185q-74 -145 -144 -241q-22 -30 -39 -53q47 -5 132 -10q103 -7 123 -7l12 2q21 3 38.5 -10.5t20 -35t-10.5 -38.5t-35 -20l-13 -2
q-18 -2 -142 6q-120 8 -167 14q-26 4 -37 3q-3 0 -7 -1t-15 -1t-20 3.5t-17.5 14t-11.5 27.5q-5 14 -1 26.5t7 17t9 9.5l6 5q17 21 83 112q65 89 135 227q52 102 77 152h-116q-156 0 -173 1l-16 2q-21 2 -35.5 18.5t-12.5 38z" />
    <glyph glyph-name="bracketleft" unicode="[" horiz-adv-x="297" 
d="M260.5 776.5q1.5 -21.5 -13 -38t-35.5 -18.5l-23 -1q-18 -2 -42 -2q-2 -40 -4 -133q-3 -132 5 -327q9 -198 8 -287v-42q5 1 9 2l24 4q21 4 39 -8.5t22 -33.5t-8.5 -39t-33.5 -22l-24 -5q-27 -5 -49 -7q-8 1 -18.5 -1t-26.5 5.5t-27 24.5q-9 14 -12.5 28.5t-3 24.5t2 32
t1.5 38q1 86 -8 281q-8 199 -5 335t5 163q4 34 30.5 53t57 19t50.5 1l23 2q21 1 38 -13t18.5 -35.5z" />
    <glyph glyph-name="backslash" unicode="\" horiz-adv-x="533" 
d="M67.5 790q19.5 9 40 1.5t29.5 -27.5l39 -86q39 -85 85 -179t131 -253q86 -160 93 -173l6 -13q10 -19 3 -40t-26 -31t-40 -3t-31 26l-6 13q-6 13 -91 172q-86 160 -133 256t-87 182l-38 86q-9 19 -1.5 39.5t27 29.5z" />
    <glyph glyph-name="bracketright" unicode="]" horiz-adv-x="352" 
d="M37.5 752.5q-3.5 21.5 9 39.5t34.5 21l16 3q17 3 59 8q42 6 51 6q26 2 42.5 -10t21.5 -30t6 -36.5t-2 -31.5l-2 -13q3 -75 7 -238q3 -162 6 -246q3 -83 12 -157t12 -87q2 -14 4 -20q10 -46 -39 -71l-14 -8q-19 -10 -40 -3.5t-31 25.5q-9 17 -5 36t20 31q-4 22 -11 85
q-9 78 -13 165q-3 85 -6 248q-4 162 -7 234q0 9 -1 17q-38 -5 -53 -8l-16 -2q-21 -4 -39 8.5t-21.5 34z" />
    <glyph glyph-name="asciicircum" unicode="^" horiz-adv-x="276" 
d="M78 395q-21 5 -33 23.5t-7 39.5l3 11q3 15 25 69q18 43 20 53q1 0 0 3.5t1.5 9.5t6 12t13 12t23.5 8q25 5 39.5 0.5t21 -14t7.5 -20t0 -17.5l-1 -8q2 -13 14 -29l19 -25q12 -18 9 -39.5t-20 -34.5q-16 -12 -36.5 -10t-35.5 18l-4 -12l-2 -10q-5 -21 -23.5 -33t-39.5 -7z
" />
    <glyph glyph-name="underscore" unicode="_" horiz-adv-x="677" 
d="M100 -53q-18 -6 -34 -1l-7 2q-17 6 -21 18.5t2.5 27t15.5 28t17 22.5l8 8q8 0 55 1q49 0 116 -0.5t121 -1.5q55 -1 109 -1h72h34q21 0 36.5 -15.5t15.5 -37t-15.5 -37t-36.5 -15.5h-34h-72.5t-110 1t-120.5 2h-114q-22 -1 -37 -1z" />
    <glyph glyph-name="grave" unicode="`" horiz-adv-x="226" 
d="M60.5 729q17.5 12 39 7.5t33.5 -22.5l7 -10q3 -5 16 -18l18 -16q15 -15 15.5 -37t-14 -37.5t-36.5 -16t-38 14.5l-17 16q-22 21 -32 36l-7 10q-11 18 -6.5 39.5t22 33.5z" />
    <glyph glyph-name="a" unicode="a" horiz-adv-x="490" 
d="M411 259q-15 -3 -31 3v-63v-14q1 -37 5.5 -67.5t8.5 -44t7 -16.5l31 -39q14 -17 11.5 -38.5t-19.5 -35t-38.5 -11.5t-35.5 19l-31 39q-17 21 -27 55q-28 -48 -68 -73.5t-87 -12.5q-92 25 -100 160q-5 110 65 257q80 166 191 160q50 -2 87 -33t51 -80l4 -18l17 -85
q5 -21 -7.5 -39.5t-33.5 -22.5zM293 432h-5q-9 1 -21 -5.5t-31.5 -31t-38.5 -64.5q-59 -122 -55 -206q3 -59 22 -64q2 -1 5 -0.5t14 12.5t25 37q38 71 57 154l6 26q3 17 6 32q2 45 7 72q3 15 5 24q2 8 4 14z" />
    <glyph glyph-name="b" unicode="b" horiz-adv-x="427" 
d="M144 98q15 1 37 5q43 8 81 98q38 91 15 130q-10 17 -15.5 19t-21.5 -5q-46 -17 -68 -63q-3 -7 -6 -15q-15 -37 -17 -86v-68q-7 -14 -30 -6.5t-50 24.5l-26 17q0 17 1 34q-1 31 -1 73q-1 35 -1 48q-2 165 -4 274l-1 124q0 22 15 37.5t36.5 16t37.5 -15t16 -36.5l1 -125
q1 -72 2 -166q26 19 57 31q49 19 94 2.5t72 -61.5q50 -84 -10 -224q-59 -142 -158 -160q-5 -1 -24 -5.5t-29 -5.5t-26 -0.5t-29 8t-24 21.5l-9 12q-10 13 -11.5 29t6.5 30z" />
    <glyph glyph-name="c" unicode="c" horiz-adv-x="471" 
d="M288 559q8 -6 14 -12t11 -15.5t8 -14.5t7 -18t5 -17t4.5 -21t3.5 -20q1 -3 3 -11q9 -41 11 -58t-1 -47l-4 -20q-4 -21 -22.5 -33t-39.5 -7.5t-33 22.5t-8 39l4 19q0 17 -12 74q-2 6 -3 14q-11 -13 -24 -29q-62 -77 -69 -157q-6 -74 31 -114q19 -19 33 -23.5t28 1.5
q44 15 69 53l34 54q11 18 32.5 22.5t39.5 -7t23 -33t-7 -39.5l-34 -53q-44 -70 -124 -96q-48 -15 -91.5 -1.5t-78.5 50.5q-70 74 -60 194q10 113 92 215q4 5 16.5 22.5t21.5 28t24 24.5t28.5 20t31.5 5.5t36 -11.5z" />
    <glyph glyph-name="d" unicode="d" horiz-adv-x="485" 
d="M273 87q0 44 -1 108q0 23 -2 43q-4 73 -17 106q-5 12 -7.5 13.5t-9.5 0.5q-5 -1 -13 -5.5t-24 -21t-32 -41.5q-43 -65 -13 -151q15 -44 30.5 -58.5t32.5 -14.5q35 1 56 14v7zM273 -32q-21 -6 -54 -7q-58 -1 -99.5 38.5t-64.5 105.5q-47 135 24 243q34 51 68.5 80.5
t77.5 33.5q45 5 80 -19q6 52 14 107l25 189q3 21 20.5 34.5t38.5 10.5t34.5 -20.5t10.5 -38.5l-25 -189q-21 -151 -31 -271q-3 -28 -5 -55v-6q11 0 20 -4q20 -9 28 -29t0 -40l-8 -18q-5 -12 -17 -29q-12 -19 -32 -46q-1 -6 -1 -12q0 -2 -0.5 -5.5t-2.5 -13.5t-6 -18.5
t-12 -17t-18 -12.5t-27 -2.5t-38 11.5z" />
    <glyph glyph-name="e" unicode="e" horiz-adv-x="503" 
d="M261 283q-3 -69 5.5 -114t21.5 -60q11 -13 19.5 -18.5t11.5 -5t9 2.5q38 16 49 22l6 4q17 13 39 10t34.5 -20t9.5 -38.5t-20 -34.5l-7 -6q-13 -9 -70 -34q-47 -16 -87 -2.5t-73 51.5q-53 62 -54 200l-50 -15q-21 -7 -40.5 3.5t-25.5 31t4.5 40t30.5 25.5l83 26q3 0 5 1
q23 158 125 171q38 5 63 -8q15 -7 25 -22t12 -31q2 -18 -3 -35.5t-11 -27.5t-19 -27q-40 -55 -93 -89z" />
    <glyph glyph-name="f" unicode="f" horiz-adv-x="498" 
d="M37.5 317q-3.5 21 9.5 39t34 21l41 7q22 4 59 13q-5 58 -8 121q-10 177 55 249q49 54 103 48q35 -3 63 -32q50 -53 60 -115l7 -45q3 -21 -9.5 -39t-34 -21.5t-39 9.5t-21.5 34l-7 46q-4 29 -31 57q-6 -5 -13 -13q-15 -16 -23.5 -59.5t-5.5 -112.5q3 -52 7 -99l45 12
q21 5 40 -6t24.5 -31.5t-5.5 -39.5t-32 -25l-61 -16q5 -34 10 -65q20 -123 23 -172l3 -46q2 -22 -12.5 -38.5t-36 -18t-38 13t-17.5 36.5l-3 46q-3 44 -23 162q-4 27 -8 55q-31 -7 -53 -11l-42 -7q-21 -4 -39 9t-21.5 34z" />
    <glyph glyph-name="g" unicode="g" horiz-adv-x="421" 
d="M331 171q15 -4 25.5 -16t12.5 -27q3 -20 -8.5 -36.5t-30.5 -21.5q0 -77 3 -143q3 -42 0.5 -75.5t-13.5 -57.5q-9 -20 -34.5 -32t-50.5 0q-19 9 -32 23.5t-21 37.5t-11.5 39.5t-8.5 47.5q-1 6 -1 9q-9 51 -4 92q-33 -10 -61 4q-36 17 -50 68q-24 83 23 241q53 176 160 188
q84 10 123 -40q13 -18 19 -40l12 -49q5 -21 -6 -40t-32 -24q-5 -1 -10 -1q-1 -41 -3 -104q-1 -21 -1 -43zM233 406q-13 -6 -30.5 -34t-32.5 -78q-34 -113 -26 -170q48 44 64 111q19 80 21 124q2 38 4 47z" />
    <glyph glyph-name="h" unicode="h" horiz-adv-x="393" 
d="M93.5 794.5q21.5 -0.5 36.5 -16.5t15 -38l-3 -107q-1 -50 1 -117q29 20 61 14q26 -4 48 -24q28 -26 40 -67t22 -119q17 -124 29 -182l12 -60q4 -21 -8 -39.5t-33 -22.5t-39 8t-23 33l-12 60q-13 61 -30 190q-9 67 -21 102q-11 -26 -20 -70l-2 -14q-10 -52 -12 -113
q4 -86 5 -132l1.5 -3t2.5 -7t2 -10t0 -12.5t-3.5 -13.5t-8.5 -14.5t-16 -14.5q-25 -16 -41.5 -11t-25.5 25t-13.5 42t-5.5 40l-1 17q-2 48 -1 93q-2 56 -6 128q0 15 -1 29q-8 166 -5 267l2 108q0 21 16 36.5t37.5 15z" />
    <glyph glyph-name="i" unicode="i" horiz-adv-x="212" 
d="M169 648q11 -21 4 -42l-3 -10q-2 -1 -5 -3.5t-13 -8.5t-19.5 -10t-21 -6.5t-20.5 -1t-16.5 10t-10.5 23.5q-3 14 -1 38l2 16q1 21 18 35t38 12q20 -1 34 -16.5t14 -36.5zM123.5 542.5q21.5 -1.5 36 -17.5t13.5 -38l-3 -59q-3 -58 -6 -172q-3 -118 -13 -179l-10 -56
q-3 -21 -21 -34t-39 -9.5t-34 21.5t-9 39l9 57q9 53 12 164q3 115 6 175l3 59q1 21 17.5 36t38 13.5z" />
    <glyph glyph-name="j" unicode="j" horiz-adv-x="343" 
d="M180.5 653q15.5 15 37.5 15t37 -15l3 -3q15 -15 15 -37t-15 -37.5t-37 -15.5t-37 16l-4 3q-15 15 -15 37t15.5 37zM240.5 541q21.5 1 38 -13.5t17.5 -36.5l5 -97q5 -98 6 -276q0 -183 -23 -279q-4 -15 -8 -27q-5 -17 -10.5 -29t-15.5 -26.5t-24.5 -23.5t-33.5 -12
q-19 -2 -38 4q-62 22 -92 95l-8.5 17t-9 18.5t-6 17.5t-1.5 21t5 23l4 9q7 21 27 30t40 2q19 -7 28.5 -25t4.5 -39q4 -13 13 -34q6 -16 14 -25q5 12 9 29q20 84 20 254q-1 175 -6 271l-5 97q-1 21 13.5 37.5t36 17.5z" />
    <glyph glyph-name="k" unicode="k" horiz-adv-x="369" 
d="M86.5 736q21.5 1 38 -13.5t17.5 -35.5l6 -91q4 -63 5 -176q54 93 69 113l13 17q13 17 35 19.5t39 -10.5t19.5 -34.5t-10.5 -38.5l-13 -18q-11 -14 -73 -120q-36 -63 -58 -103q33 -48 81 -136q47 -86 57 -102l12 -18q11 -18 6.5 -39.5t-22.5 -33.5t-39.5 -7t-32.5 23
l-12 18q-13 19 -62 109q-5 11 -11 21q0 -28 -1 -45l-1 -59q-1 -21 -17 -36t-37 -14.5t-36.5 16.5t-14.5 37l1 58q2 50 3 211q-6 16 0 32v18q1 202 -5 291l-6 91q-1 22 13.5 38.5t36 17.5z" />
    <glyph glyph-name="l" unicode="l" horiz-adv-x="188" 
d="M85 717q21 2 38 -12t19 -36l2 -26q3 -28 2 -195q-1 -165 0 -277t3 -152l2 -40q1 -22 -14 -38t-36.5 -17t-37.5 14t-17 36l-2 40q-2 42 -3 156q-1 113 0 278q1 162 -2 186l-2 26q-2 21 12.5 38t35.5 19z" />
    <glyph glyph-name="m" unicode="m" horiz-adv-x="519" 
d="M86.5 619.5q21.5 1.5 38 -13t17.5 -35.5l2 -27q21 12 38.5 12.5t29.5 -9.5t21 -22.5t15.5 -32t10 -32.5t6 -28.5t3.5 -15.5l2 -12q33 104 63 139q21 23 48 25q23 2 39 -7.5t24.5 -22t13 -34.5t5.5 -36t1 -37.5v-27.5q7 -146 13 -317l6 -172q1 -21 -14 -37t-36.5 -17
t-37.5 14t-17 37l-6 171q-5 139 -10 261q-7 -24 -15 -51q-1 -4 -3 -16.5t-4 -24.5t-6 -28t-9.5 -28.5t-13.5 -26t-18 -19.5t-24 -9.5t-32 4.5q-11 3 -19.5 9t-13 12.5t-7 13t-3 12.5t-0.5 11t0.5 8.5l0.5 3.5q-3 41 -12 91q-20 -167 -27 -241q0 -1 0.5 -3t1 -8.5t1 -12.5
t-1 -14t-4 -14t-8 -11.5t-13.5 -8t-20 -2t-27 4.5q-22 7 -34 22.5t-13 35.5t1 38t6 38.5t5 28.5q5 159 -4 281l-8 124q-2 22 12.5 38.5t36 18z" />
    <glyph glyph-name="n" unicode="n" horiz-adv-x="464" 
d="M82 567q21 3 38.5 -10t20.5 -34l14 -96q7 12 8 14q27 50 47 76t49 40q31 14 60 1q30 -12 45 -49q35 -79 39 -281q3 -149 10 -186l7 -12q11 -18 6 -39.5t-23.5 -32.5t-40 -6t-32.5 23l-10 17q-8 12 -12 26.5t-6 38.5t-2.5 42t-0.5 59t-1 68q-3 135 -19 205
q-11 -17 -24 -40q-71 -132 -78 -247q1 -3 2 -7.5t2.5 -17t1.5 -23.5t-4 -24t-11 -21.5t-21.5 -13t-34.5 -1.5q-25 4 -38.5 18t-16 32.5t-1 35t5 32.5t3.5 18q0 149 -13 240l-14 95q-4 22 9.5 39.5t34.5 20.5z" />
    <glyph glyph-name="o" unicode="o" horiz-adv-x="413" 
d="M263 327l-29 56q-6 13 -11 16q-13 -1 -38 -23q-63 -55 -34 -182q15 -65 34 -83q1 0 4 2q54 30 67 121q8 51 7 88v5zM239 503q9 3 17 3l13 -1q17 -1 30.5 -7t22 -18t13 -20t9.5 -23.5t7 -18.5q11 -26 15 -63l5 -10q14 -28 -4 -53q-1 -34 -7 -73q-20 -142 -120 -198
q-39 -22 -77 -14q-49 10 -81 68q-19 36 -33 95q-44 189 67 286q65 56 123 47z" />
    <glyph glyph-name="p" unicode="p" horiz-adv-x="432" 
d="M175 330l2 -39q2 -44 4 -87q52 14 88 71q36 58 13 133q-6 20 -14 35.5t-12.5 22t-8.5 8.5q-6 -5 -20 -24.5t-28 -50.5l-6 -14q-10 -26 -18 -55zM151 525q49 61 108 53q84 -10 124 -140q36 -120 -25 -218q-61 -97 -159 -120q-7 -2 -13 -3q4 -90 7 -171q0 -4 4 -21.5t5 -35
t-1 -37t-15.5 -33.5t-37.5 -18q-27 -5 -44 4t-23 25t-7.5 32.5t0.5 28.5l1 12q-14 108 -20 224q-15 13 -17.5 33.5t8.5 36.5q2 4 7 8q-1 82 16 154l-8 146q-1 22 13.5 38t36.5 17q23 2 40 -15z" />
    <glyph glyph-name="q" unicode="q" horiz-adv-x="493" 
d="M318 446q-77 -19 -118 -67q-43 -51 -54.5 -130t12.5 -132q7 -14 13 -21q15 8 40 44q18 26 38 65l10 18v4q27 117 49 188q5 18 10 31zM249 -235q-8 10 -13 23t-7.5 24t-3.5 31.5t-0.5 32.5t1.5 40t2 42q0 26 2 51q-13 -8 -25 -13q-25 -8 -49 -5q-60 8 -94 83
q-36 80 -20.5 189.5t78.5 183.5q65 76 177 102l95 22q21 5 39.5 -7t23.5 -32q4 -17 -3.5 -33.5t-22.5 -25.5q3 -8 4 -19q3 -28 -11 -100q-13 -63 -64 -166q-8 -39 -14 -81q-6 -49 -9 -102q8 5 17 6q21 3 39 -10t21 -34l3 -19q1 -7 1 -15t-0.5 -14t-3 -14t-4 -13t-5.5 -14.5
t-6 -14.5t-7.5 -16.5t-7.5 -16.5l-1 -1q-4 -10 -9 -20t-19 -30t-28 -30t-35 -8t-41 24z" />
    <glyph glyph-name="r" unicode="r" horiz-adv-x="460" 
d="M83.5 551.5q21.5 2.5 38.5 -11t20 -35.5l4 -39q47 68 98 81q63 16 118 -18l37 -22q18 -11 23 -32.5t-6 -40t-32.5 -23.5t-39.5 6l-36 23q-18 10 -38 5q-2 0 -8 -5.5t-19.5 -22t-27.5 -39.5q-14 -25 -25 -52q-14 -33 -23 -69q4 -60 5 -121q0 -6 3 -22.5t4 -30.5t-1.5 -31
t-13.5 -30t-30 -21q-24 -8 -39.5 -6t-23.5 11.5t-11.5 20t-3.5 19.5l-1 8q-20 71 0 181q2 15 6 31q-3 43 -8 86l-2 22l-14 120q-2 21 11.5 38t35 19.5z" />
    <glyph glyph-name="s" unicode="s" horiz-adv-x="485" 
d="M449 471.5q-1 -21.5 -17.5 -36t-37.5 -13.5l-88 5q-59 3 -89 -22q14 -23 62 -58q69 -50 104.5 -99t27.5 -104q-8 -53 -48.5 -84.5t-99.5 -40.5q-125 -19 -181 53q-3 4 -9.5 12.5t-10 13t-9.5 13t-8 14.5t-6 16t-2 17t2 20l3 14q5 20 24 32t39.5 7t32.5 -23.5t7 -39.5
l-1 -1q7 -12 22 -31q17 -23 81 -13q35 5 46.5 14t13.5 22q1 6 -4 17.5t-27 35.5t-58 50q-57 40 -86 77t-22 83q4 22 17 40q5 7 11 13q63 63 174 57l87 -5q22 -1 36.5 -17.5t13.5 -38z" />
    <glyph glyph-name="t" unicode="t" horiz-adv-x="443" 
d="M38 439q-4 21 8 39.5t33 22.5l97 20q2 1 3 1v189q0 21 15 36.5t36.5 16t37.5 -15t16 -37.5v-167q14 3 23 5l35 8q21 4 39.5 -7.5t23.5 -32.5t-7 -39.5t-33 -23.5l-35 -8q-16 -3 -45 -10q0 -163 1 -296v-159q0 -22 -15.5 -37.5t-37 -15.5t-37 15.5t-15.5 36.5v160
q-1 116 -1 275l-80 -17q-21 -4 -39.5 8t-22.5 33z" />
    <glyph glyph-name="u" unicode="u" horiz-adv-x="433" 
d="M325 428q-3 -46 4 -111q4 -42 12 -91q21 -119 32 -143l16 -26q11 -18 5.5 -39.5t-23.5 -32.5t-39.5 -5.5t-32.5 23.5l-16 26q-15 26 -32 106q-5 -12 -10 -23q-1 -2 -4 -6q-6 -15 -11 -23.5t-14.5 -24.5t-19.5 -24.5t-23 -16t-29 -7t-34 9.5q-14 7 -24 17t-16 25.5
t-8 22.5t-6 25q-27 128 -6 291l19 155q3 21 20 34.5t38.5 11t35 -20t10.5 -38.5l-19 -155q-16 -124 -1 -223q34 71 51 136q12 46 16 90q3 23 4 45q1 2 1 3q1 12 45 50q60 53 65 26q1 -2 1 -4q0 -8 -7 -83z" />
    <glyph glyph-name="v" unicode="v" horiz-adv-x="514" 
d="M70 551q20 8 40 -1t28 -29l26 -65q26 -65 69 -177q16 -42 28 -72q15 58 38 124q41 122 60 164l18 40q8 20 28.5 28t40.5 -1t27.5 -29.5t-0.5 -39.5l-18 -40q-17 -38 -57 -156q-39 -115 -55 -200q-2 -1 0 -15t-3 -33.5t-12 -37.5t-26.5 -26.5t-45.5 -0.5q-7 2 -12 4.5
t-8.5 5.5t-6.5 6.5t-4.5 6t-3 5.5t-2 5t-0.5 4v2q-6 17 -23 61q-18 45 -61 157t-69 177l-25 65q-8 20 0.5 40t28.5 28z" />
    <glyph glyph-name="w" unicode="w" horiz-adv-x="621" 
d="M72 466q20 7 40 -2.5t27 -29.5l33 -93q8 -23 16 -48q7 39 16 59q9 24 29 35q11 7 21.5 9t19.5 0.5t16.5 -4.5t14.5 -9.5t12 -12t9.5 -13t7 -12t5 -10t3.5 -5.5q32 -60 69 -150l4 -10q12 86 27 179q19 119 31 150l10 25q8 20 28 29t40 1.5t29 -27.5t1 -40l-10 -26
q-8 -21 -26 -129q-18 -113 -30 -213l-2 -19.5t-3.5 -30t-7.5 -29.5t-15 -29t-25 -16.5t-37 -3.5q-20 3 -36 18q-33 32 -74 130q-17 40 -33 73q0 -6 -1 -12q-11 -94 -12 -164l-32 -50q-61 -85 -77 -22q-3 13 -29 134q-25 118 -58 208l-33 93q-7 20 2.5 40t29.5 27z" />
    <glyph glyph-name="x" unicode="x" horiz-adv-x="465" 
d="M116.5 566.5q20.5 6.5 40 -3.5t25.5 -30l21 -63q11 -34 33 -88q13 30 27 63l64 158q8 20 28.5 28.5t40 0.5t28 -28.5t0.5 -40.5l-64 -157q-35 -85 -67 -153q41 -91 68 -140l34 -62q10 -19 3.5 -40t-25 -31t-39.5 -4t-32 25l-33 61q-17 31 -38 74q-58 -100 -81 -128
q0 -1 -2.5 -5.5t-6 -9t-9.5 -9.5t-17 -7.5t-24 -1.5q-22 1 -35 9.5t-16 19t-3 21t3 17.5l2 7l5 24q4 16 17.5 27.5t30.5 13.5q20 31 48 79q16 29 33 62q-53 119 -73 183l-21 63q-6 20 4 39.5t30.5 26z" />
    <glyph glyph-name="y" unicode="y" horiz-adv-x="405" 
d="M117 -12q-29 20 -41 52.5t-21 88.5q-22 139 -17 256l4 111q1 21 17.5 36t37.5 14t36 -17t14 -38l-4 -111q-5 -106 16 -234q4 -23 8 -40q17 33 29 91q3 11 5 31.5t4.5 34t8 29.5t17.5 27t31 17q17 5 29.5 3t20.5 -9.5t12.5 -15t6.5 -14.5l2 -6q9 -33 29 -223
q6 -64 6 -115.5t-13.5 -94.5t-41.5 -70q-37 -37 -85 -45t-95 14q-70 33 -81 89q-6 29 6 59l20 48q10 27 39 32zM162 -24q11 -12 15 -28t-2 -31l-19 -48q7 -7 22 -14q21 -9 33.5 -7t28.5 17q7 7 12.5 27.5t8.5 61.5t-3 99q-23 -43 -55 -64q-19 -12 -39 -13h-2z" />
    <glyph glyph-name="z" unicode="z" horiz-adv-x="448" 
d="M37.5 432.5q-2.5 21.5 10.5 38.5t35 20l42 6q44 6 151 12q51 2 80 -17q15 -9 24 -23q12 -19 14.5 -39t-5 -40.5t-15 -34.5t-20.5 -34q-76 -112 -121 -173q-5 -8 -11 -15q18 3 39 8l86 21q21 5 39.5 -6.5t23.5 -32.5t-6.5 -39.5t-32.5 -23.5l-86 -21q-92 -22 -132 -23
q-8 0 -18.5 2t-25.5 7.5t-25 20t-9 35.5q0 19 11 38q16 28 62 91q45 60 118 170q9 13 15 24q-103 -6 -143 -11l-42 -6q-21 -3 -38.5 10.5t-20 35z" />
    <glyph glyph-name="braceleft" unicode="{" horiz-adv-x="381" 
d="M38 392q-4 21 7.5 39.5t32.5 23.5l22 5h1q9 13 18 38q17 47 0 111q-30 107 24 165q48 52 110 53h39q21 0 37 -15t16 -36.5t-15.5 -37.5t-36.5 -16h-39q-17 -1 -35 -20q-13 -14 1 -66q26 -95 -2 -174q-4 -10 -7 -17q10 -8 17 -19q13 -21 10 -48q-3 -25 -15.5 -45
t-34.5 -45q-26 -29 -38 -88q-13 -63 -5 -109q3 -15 10.5 -24t25.5 -16q25 -10 38 -13l13 7q19 9 40 1.5t30 -27t2 -40t-27 -29.5l-18 -9q-15 -7 -29.5 -9t-32 2.5t-27 7.5t-29.5 12q-39 16 -65 46.5t-34 71.5q-12 66 5 149q17 80 55 127q-20 -4 -38 6.5t-24 29.5q-1 3 -2 7
v1z" />
    <glyph glyph-name="bar" unicode="|" horiz-adv-x="220" 
d="M89.5 828q21.5 0 37 -15.5t15.5 -36.5v-8q0 -7 3 -60q2 -56 5 -168t3 -180q0 -67 1 -135q1 -66 15 -151l14 -88q3 -22 -9.5 -39.5t-34 -21t-39 9.5t-21.5 34l-14 88q-15 93 -16 166q-1 70 -1 137q0 66 -3 177q-3 112 -5 166q-3 56 -3 65v8q0 21 15.5 36.5t37 15.5z" />
    <glyph glyph-name="braceright" unicode="}" horiz-adv-x="413" 
d="M355 331q-2 -2 -24 -28q-1 -2 -3 -8t-2 -24t4 -40q15 -79 29 -127q12 -40 -2 -79t-48 -69q-65 -59 -145 -54l-57 4q-22 1 -36.5 17.5t-13 38t18 36t37.5 13.5l58 -4q36 -2 68 27q16 15 19.5 24.5t-0.5 16.5q-15 52 -31 136q-19 100 19 153q-6 4 -11 7q-60 44 -45 155
q11 77 13 153q0 17 -3 25q-1 1 -4 1q-43 0 -55 -6l-24 -15q-18 -12 -39.5 -7t-33 23t-6.5 39.5t23 32.5l24 15q36 24 113 23q40 -1 68 -23q44 -35 42 -111q-2 -82 -14 -164q-6 -45 3 -56q23 -17 33 -21q18 -5 29 -14q20 -20 17.5 -45.5t-21.5 -44.5z" />
    <glyph glyph-name="asciitilde" unicode="~" horiz-adv-x="467" 
d="M114 311q-20 -7 -40 1.5t-28 28.5l-3 7q-6 15 -6.5 28.5t4.5 23.5t10 17t12.5 15t10.5 11q20 27 49 41.5t63 9.5q49 -7 87 -36q10 -7 29 -4q15 2 22 6l12 17q13 17 34.5 20.5t39 -9.5t20.5 -34.5t-9 -38.5l-14 -19q-27 -36 -90 -46q-63 -9 -107 25q-17 12 -39 15
q-5 1 -13 -10q-6 -8 -11 -15q2 -16 -7.5 -31.5t-25.5 -22.5z" />
    <glyph glyph-name="exclamdown" unicode="&#xa1;" horiz-adv-x="197" 
d="M125 714.5q20 -8.5 27.5 -29t-0.5 -40.5l-11 -23q-8 -19 -28.5 -27t-40 0.5t-27.5 29t0 40.5l11 23q8 19 28.5 27t40.5 -0.5zM112.5 556q21.5 -2 35.5 -18.5t12 -38.5l-12 -137q-11 -132 -2 -226l10 -99q2 -21 -12 -38t-35.5 -19t-38.5 12t-19 35l-9 99q-11 104 2 246
l12 136q2 22 18.5 36t38 12z" />
    <glyph glyph-name="cent" unicode="&#xa2;" horiz-adv-x="490" 
d="M250.5 700.5q20.5 -6.5 31 -26t4.5 -39.5l-5 -16q-1 -11 1 -52q35 -16 52 -46l25 -46q11 -18 5 -39.5t-25 -31.5q-23 -13 -48 -1q8 -111 16 -195q31 31 39 44l3 18q2 21 19.5 34.5t39 10.5t35 -20.5t10.5 -38.5l-3 -24q-2 -13 -8 -26t-11.5 -22.5t-19.5 -24t-22.5 -22.5
t-29.5 -27.5t-31 -29.5q-3 -2 -5 -5l9 -76q3 -21 -10.5 -38.5t-35 -20t-39 11t-19.5 34.5l-2 17q-60 -29 -107 4q-36 26 -52 73.5t-26 128.5q-19 155 42 261q45 78 91 100q-2 52 6 77l5 19q7 20 26 30.5t39.5 4zM211 119q-14 120 -26 302q-1 5 -1 12q-5 -7 -9 -15
q-44 -76 -29 -196q11 -92 31 -124q13 5 34 21z" />
    <glyph glyph-name="sterling" unicode="&#xa3;" horiz-adv-x="580" 
d="M37.5 261.5q-2.5 21.5 11 38.5t35.5 19l66 8q23 2 42 4q0 57 -1 105q-1 112 56 184q64 81 166 64q51 -9 84 -41.5t36 -81.5l5 -64q2 -21 -12.5 -38t-36 -18.5t-38 13t-18.5 35.5l-4 64q-1 14 -6 19t-27 9q-24 3 -38.5 -2.5t-28.5 -23.5q-34 -43 -33 -118q1 -43 1 -92
q32 4 50 2l8 -1q22 -3 35 -21t10 -39t-20.5 -34t-38.5 -10h-6q-9 0 -38 -4v-21q0 -69 -2 -111q25 -3 58 -12q85 -22 117 -28l32 -7q21 -5 33 -23.5t7.5 -39t-23 -32.5t-39.5 -8l-32 7q-34 7 -121 30q-29 7 -46 8q-2 -1 -5 -4t-12 -8.5t-18.5 -7.5t-22 1.5t-23.5 15.5
q-12 14 -16.5 26t-3.5 18.5t4 13t3 7.5q5 34 5 155v3.5v4.5q-14 -2 -30 -4l-67 -7q-21 -3 -38 11t-19.5 35.5z" />
    <glyph glyph-name="yen" unicode="&#xa5;" horiz-adv-x="450" 
d="M37 436q-1 22 13.5 38.5t35.5 17.5l81 5h2q-16 25 -35 57q-34 59 -59 113l-25 53q-9 19 -1.5 39.5t26.5 30t40 2t30 -27.5l25 -52q23 -50 55 -105q8 -13 15 -25q11 36 24 75l44 135q6 20 25.5 30t40 3.5t30.5 -26t4 -40.5l-44 -135q-19 -57 -35 -110l25 4q21 3 38.5 -10
t20.5 -34.5t-10 -39t-34 -20.5l-10 -2q17 -13 20 -34q2 -21 -11.5 -38.5t-34.5 -19.5l-62 -8q-16 -67 -18 -115l-5 -76q-1 -22 -17 -36.5t-37.5 -13.5t-36.5 17.5t-13 38.5l4 76q2 43 12 96q-26 -2 -42 -1l-24 2q-21 1 -35.5 18t-13.5 38q2 23 20 37q-26 14 -28 43z" />
    <glyph glyph-name="section" unicode="&#xa7;" horiz-adv-x="364" 
d="M326 673q-6 -21 -25.5 -31t-40.5 -4l-38 11q-2 0 -9 -1.5t-23.5 -8.5t-34.5 -19q-8 -5 -12 -9q5 -9 17 -19q52 -48 90 -99q23 -11 29 -36v-7q1 -1 1 -2q11 -17 17 -33q16 -44 0 -80q-15 -31 -51 -48q53 -78 28 -149q-32 -89 -97 -106l-39 -10q-20 -5 -39 6t-24.5 32t6 40
t31.5 24l39 10q11 3 24 39q11 32 -43 87l-8 8q-9 2 -17 5l-32 12q-20 7 -29.5 27t-1.5 40q5 15 17 24q0 10 2 21q4 27 25 46q20 18 43 30q-20 21 -42 41q-58 53 -51 109q4 32 28 59q13 14 32 26q45 29 81.5 41t72.5 1l38 -12q21 -6 31.5 -25t4.5 -40zM195 386
q-12 -3 -23 -11q0 -1 1 -2q11 3 25 7q-1 3 -3 6z" />
    <glyph glyph-name="copyright" unicode="&#xa9;" horiz-adv-x="532" 
d="M286 386q-13 -4 -27 0q-3 -10 -5 -20q20 22 49 17q21 -3 33.5 -21t9.5 -39l-1 -8q-3 -16 -9.5 -27.5t-17 -19t-19 -12t-22 -10t-19.5 -8.5q-25 -14 -48 -13q-18 1 -34.5 11.5t-24.5 26.5q-6 11 -8 22q0 -17 2 -35q5 -44 15 -75.5t16.5 -41.5t10.5 -12q4 0 11.5 2
t34.5 21.5t58 54.5q91 102 98 225q6 121 -20 165q-5 -3 -10 -5l-35 -10q-19 -9 -42 -25l-40 -26q15 -3 31 -13q2 -1 8 -4.5t9 -5t8.5 -6t9 -9t7 -11.5t5.5 -16l2 -8q6 -20 -5 -39.5t-31 -24.5zM286 673q50 23 89 21q53 -3 81 -46q46 -70 37 -229q-8 -161 -124 -290
q-59 -66 -112.5 -96.5t-108.5 -8.5q-51 21 -74.5 75.5t-32.5 139.5q-16 156 37 265q-4 32 23 50l12 8q34 46 75 73q29 17 60 27zM144 354q1 7 5 23q1 2 2.5 10.5t3.5 19t4 19.5q-11 -33 -15 -72z" />
    <glyph glyph-name="guillemotleft" unicode="&#xab;" horiz-adv-x="523" 
d="M448.5 510.5q15.5 -14.5 17 -36.5t-13.5 -38l-28 -31q-26 -29 -57 -60l4 -4q32 -28 46 -33l25 -4q21 -3 34 -21t9.5 -39.5t-21.5 -34t-39 -8.5l-25 4q-25 4 -46.5 17.5t-51.5 39.5q-45 39 -45 84q0 37 29 66q32 33 60 63l28 32q15 16 37 17t37.5 -13.5zM304.5 579.5
q16.5 -13.5 19.5 -35t-10 -38.5l-51 -66q-53 -68 -105 -117l-6 -6q29 -19 87 -46l93 -45q20 -9 27 -30t-2 -40t-30 -26.5t-40 1.5l-93 45q-102 48 -132 78q-14 13 -20 30q-4 13 -5 25t2.5 22.5t8 20t12 18.5t13 15.5t13.5 13.5q46 43 94 106l51 65q13 17 35 20t38.5 -10.5z
" />
    <glyph glyph-name="registered" unicode="&#xae;" horiz-adv-x="562" 
d="M275 562q-28 -25 -61 -66l-14 -18q16 5 35 1q11 -2 21 -6q23 -12 31.5 -34t5.5 -40.5t-10 -32.5l-8 -14q51 -42 87 -76l12 -11q17 25 21 46q11 62 -13 135q-22 66 -56 86zM483 476q31 -97 15 -183q-17 -95 -133 -187q-126 -98 -215 -59q-50 21 -74.5 74.5t-35.5 134.5
q-21 163 92 305q57 72 107.5 107t106.5 27q31 -5 58 -17q48 -23 78 -68l35 -53q12 -18 7.5 -39.5t-21.5 -33.5q-9 -6 -20 -8zM301 190l-10 9q-17 15 -37 33l8 -41q3 -15 -3 -30q19 11 41 28zM144 277q-2 22 -1 49q-2 -24 1 -49z" />
    <glyph glyph-name="degree" unicode="&#xb0;" horiz-adv-x="307" 
d="M163 491q-3 -1 -4 -2q-14 -9 -17 -16q-1 -5 2 -19q1 -1 1 -2q4 2 8 5q13 12 13 18q0 9 -3 16zM238 566l4 -5q28 -36 29 -84q1 -56 -50 -100q-56 -47 -110 -27q-26 9 -43.5 30t-24.5 47q-13 50 3 87q15 35 53 61q37 25 66 29l16 2q20 2 36 -9.5t21 -30.5z" />
    <glyph glyph-name="plusminus" unicode="&#xb1;" horiz-adv-x="484" 
d="M37.5 258q-3.5 21 9.5 39t34 21l73 12q9 1 17 3q-3 55 -10 103l-10 70q-3 21 10 38.5t34.5 20.5t39 -10t20.5 -34l10 -70q7 -47 10 -99h1l50 10q21 5 39.5 -7t23 -33t-7.5 -39.5t-33 -22.5l-51 -11q-8 -2 -18 -4q1 -35 2 -60q1 0 2 1l101 20q21 5 39.5 -7t23 -33
t-8 -39.5t-33.5 -22.5l-101 -21q-96 -20 -136 -36l-44 -18q-20 -8 -40 0.5t-28.5 28t0 40t28.5 28.5l44 18q20 8 48 16v5q0 24 -1 62q-2 0 -4 -1l-73 -12q-21 -3 -39 10t-21.5 34z" />
    <glyph glyph-name="uni00B2" unicode="&#xb2;" horiz-adv-x="347" 
d="M81 492q-21 5 -33 23t-8 39l8 38q12 60 58 90q37 25 72 12q30 -10 46 -43q7 -15 9 -33.5t1.5 -30.5t-8.5 -39t-11 -36t-16 -45q-15 -41 -27 -72l26 8l44 14q20 7 39.5 -3t26.5 -30.5t-3 -40t-30 -26.5l-44 -14q-45 -14 -92 -27q-87 -23 -100 42q-5 24 8 49q13 24 49 125
q-8 -1 -15 0z" />
    <glyph glyph-name="uni00B3" unicode="&#xb3;" horiz-adv-x="327" 
d="M149 531q-22 12 -28 32.5t-1 36.5q-9 -2 -18 0q-21 4 -33.5 22t-8.5 39l1 8q3 16 11 28t18.5 17.5t18.5 8t18.5 4t12.5 1.5q30 8 54 2q20 -5 35.5 -19.5t21.5 -32.5q13 -36 -2 -71q17 -10 26 -25q21 -32 13 -83q-12 -81 -109 -121l-70 -29q-19 -8 -39.5 0.5t-28.5 28
t0.5 40t27.5 28.5l70 29q42 17 46 39v6q-25 7 -36 11z" />
    <glyph glyph-name="uni00B5" unicode="&#xb5;" horiz-adv-x="433" 
d="M154 -171v-3v-11q0 -2 -0.5 -5t-2.5 -11.5t-5 -15.5t-9.5 -14t-14.5 -10t-20 -1t-27 11q-22 13 -30.5 37.5t-7 48t6 64t4.5 66.5q-1 130 2 257q-18 111 -11 191l8 90q1 18 13.5 31t30.5 16q10 4 21 4q21 -1 36 -17t15 -37l-6 -177q-1 -46 -2 -93q3 -20 7 -41
q6 -30 14 -48q52 45 57 141q-1 4 -3 10.5t-3.5 23t2 30.5t16.5 27t37 17q28 5 45 -4.5t21 -27t4.5 -36t-2.5 -31.5l-3 -13q2 -114 23 -174l24 -67q7 -20 -2.5 -40t-29.5 -27t-40 2.5t-27 29.5l-24 67l-4 14q-12 -13 -24 -23q-45 -38 -90 -29v-65q1 -120 1 -157z" />
    <glyph glyph-name="periodcentered" unicode="&#xb7;" horiz-adv-x="181" 
d="M52 297q15 15 37 15t37 -15l3 -3q16 -15 16 -37t-15.5 -37t-37.5 -15t-37 15l-3 3q-15 15 -15 37t15 37z" />
    <glyph glyph-name="guillemotright" unicode="&#xbb;" horiz-adv-x="502" 
d="M47 573q13 17 34.5 20.5t39.5 -9.5l18 -14q19 -14 60 -48q44 -36 64 -61q14 -16 18 -37q8 -42 -30 -90q-33 -42 -62 -70l-26 -26q-15 -14 -37 -14t-37 15.5t-14.5 37.5t15.5 37l26 25q23 23 52 60q3 3 5 6q-16 15 -41 36q-39 33 -56 45l-18 13q-17 13 -20.5 35t9.5 39z
M228.5 568q14.5 16 36 17.5t38.5 -12.5l26 -23q26 -22 57 -48q34 -27 56 -48q19 -18 23 -43q3 -20 -3.5 -38.5t-14.5 -28.5t-21 -25q-40 -44 -102 -99q-64 -57 -94 -75l-26 -16q-18 -12 -39.5 -6.5t-32.5 23.5t-6 39.5t23 32.5l26 16q22 14 79 64q58 52 95 92q2 2 3 4
q-15 12 -32 27q-33 27 -60 50l-26 23q-16 14 -18 36t12.5 38z" />
    <glyph glyph-name="onequarter" unicode="&#xbc;" horiz-adv-x="643" 
d="M525.5 486.5q16.5 -13.5 19 -35.5t-10.5 -38l-13 -16l1 -3q15 -40 20 -112l5 1q21 3 38.5 -10.5t20.5 -34.5t-10.5 -38.5t-34.5 -20.5l-14 -2q3 -55 8 -91l7 -59q3 -21 -10.5 -38.5t-34.5 -20t-38.5 11t-20.5 34.5l-7 58q-5 39 -8 93q-59 -3 -99 17q-31 16 -43 41
q-16 34 2 69q5 9 13 19q25 29 80 98l10 12q1 15 10 27.5t24 17.5q1 1 3 1l9 11q13 17 35 19.5t38.5 -11zM336 773.5q20 -6.5 30 -26t4 -39.5l-46 -143q-46 -141 -80 -280q-35 -142 -49 -193l-14 -50q-6 -21 -25 -32t-39.5 -5.5t-31.5 25t-5 39.5l13 51q12 43 40 154
q-13 -7 -27 -6q-21 0 -36 16t-14 38l2 69q2 65 -9 174l-12 113q-2 21 12 38t35.5 19.5t38.5 -11.5t19 -35l11 -113q12 -113 10 -184q27 102 61 205l46 143q7 20 26.5 30t39.5 3.5zM437 270l-2 20q-9 -11 -16 -20h18z" />
    <glyph glyph-name="onehalf" unicode="&#xbd;" horiz-adv-x="625" 
d="M315 487q59 66 122 42q20 -8 32.5 -21t15 -31t2.5 -33.5t-7 -38t-11.5 -35t-13.5 -33.5q-3 -6 -4 -9q-46 -114 -78 -186q31 7 70 22l73 29q20 8 40.5 -0.5t28 -28.5t-1 -40.5t-28.5 -27.5l-74 -30q-81 -32 -139 -34q-40 -2 -64 23q-20 21 -21 53q0 29 17 68q31 73 80 192
q1 1 2 3q-2 -2 -5 -6t-12.5 -11t-19 -9t-23 4t-26.5 22q-15 -66 -32 -145q-45 -211 -48 -230l-2 -15q-3 -21 -20.5 -34t-39 -10t-34.5 20.5t-10 38.5l2 15q2 16 50 237q0 1 0.5 3.5t1.5 4.5q-7 -14 -20 -22.5t-28 -8.5q-22 0 -37.5 15.5t-15.5 36.5v130v203l1 74
q0 21 15.5 36.5t37 15.5t37 -16t15.5 -37l-1 -73v-203v-130q43 198 67 306q27 118 37 149l9 28q7 20 26.5 30t40 3t30.5 -26.5t3 -39.5l-9 -28q-9 -26 -34 -139q-8 -35 -18 -79q10 5 21 6z" />
    <glyph glyph-name="questiondown" unicode="&#xbf;" horiz-adv-x="493" 
d="M149 644.5q15 15.5 37 15.5t37 -15l3 -3q15 -16 15 -38t-15 -37t-37 -15t-37 15l-3 3q-15 15 -15 37t15 37.5zM447.5 142q11.5 -18 7.5 -39.5t-22 -32.5l-86 -57q-104 -69 -190 -47q-46 11 -76.5 44.5t-40.5 81.5q-21 99 97 207q29 26 50 50.5t29.5 37.5t9.5 18l9 47
q4 21 22 33.5t39 8.5t33.5 -22t8.5 -40l-9 -47q-7 -39 -36 -76t-85 -88q-74 -67 -65 -108q5 -22 13.5 -31.5t26.5 -13.5q41 -11 107 33l85 56q18 12 39.5 7.5t33 -22.5z" />
    <glyph glyph-name="Agrave" unicode="&#xc0;" horiz-adv-x="518" 
d="M176.5 784q15.5 15 37.5 14.5t36 -15.5l43 -43q15 -16 14.5 -37.5t-15.5 -36.5l-1 -1q18 -8 30.5 -30.5t17 -43.5t8.5 -48t5 -31q16 -68 34 -145l8 3q20 8 40 -1t28 -29t-0.5 -40t-28.5 -28l-21 -8q10 -40 20 -81l48 -186q5 -21 -6 -40t-32 -24t-40 6t-24 32l-47 186
q-10 38 -18 72q-39 -12 -88 -22l-11 -2q-16 -61 -33 -119l-41 -142q-6 -21 -25 -31.5t-40 -4.5t-31.5 25t-4.5 40l41 142q11 38 22 77q-23 12 -28 36q-5 21 7 39.5t33 23.5l15 3q16 61 31 126q40 165 48 199v2t0.5 4t1 5t2 6.5t4 7t6 7t8.5 6.5q-7 4 -12 9l-43 44
q-15 15 -14.5 37t16 37zM243 319q24 6 44 12q-10 43 -20 83q-2 -8 -5 -18q-9 -39 -19 -77z" />
    <glyph glyph-name="Aacute" unicode="&#xc1;" horiz-adv-x="563" 
d="M284 814.5q18 -11.5 23.5 -32.5t-5.5 -40l-33 -52q2 -1 4 -1q20 -5 31.5 -24t6.5 -39l-3 -15l17 -53q25 -77 68 -194q18 0 33 -10.5t19 -28.5q9 -32 -17 -53q60 -157 76 -192l18 -38q9 -19 1 -39.5t-27.5 -29.5t-40 -1.5t-29.5 26.5l-17 38q-18 39 -81 204l-22 -6
q-70 -18 -107 -32q-48 -167 -53 -194l-5 -32q-3 -21 -21 -34t-39 -9.5t-34 21.5t-9 39l5 32q5 33 50 189q-6 17 -1 34t18 27q49 168 73 268l15 64l-1 3q-18 -2 -33 8q-18 11 -23.5 32t6.5 40l65 107q11 18 32.5 23.5t39.5 -6zM291 339q-17 44 -31 83q-12 -45 -27 -99
q18 5 46 13z" />
    <glyph glyph-name="Acircumflex" unicode="&#xc2;" 
d="M167 651q-20 9 -27.5 29.5t1.5 40.5l10 22q10 20 18 42.5t21.5 35t32 13.5t33 -5t22.5 -15q16 -20 31 -62l12 -33q6 -18 -1 -36.5t-24 -27.5q7 -10 12 -25t8 -27.5t8 -39t9 -43.5q17 -72 30 -147q20 -10 27 -31q10 -30 -13 -53q1 -5 2 -9q18 -120 36 -198l19 -81
q5 -21 -7 -39.5t-32.5 -23.5t-39.5 7t-24 33l-18 80q-18 78 -36 192l-72 -23q-17 -74 -34 -129l-31 -104q-6 -21 -25.5 -31t-40 -4t-31 25.5t-4.5 39.5l32 104q10 36 22 82q-16 10 -22 28q-7 20 3 40t30 26l11 4q9 43 19 92q33 174 41 215q6 25 8 32q-9 0 -16 4zM230 345
l30 10q-7 36 -14 73q-4 -20 -9 -48q-4 -17 -7 -35z" />
    <glyph glyph-name="Atilde" unicode="&#xc3;" horiz-adv-x="500" 
d="M139 656q-20 7 -29.5 26.5t-2.5 40.5l8 24q7 22 23.5 39.5t40.5 23.5q10 5 24 3t22 -3.5t20 -8t18 -11t16 -11.5q15 -12 27 -17q11 17 30.5 22t37.5 -5q19 -9 25.5 -30t-3.5 -40l-7 -15q-17 -32 -55 -39q-14 -2 -30 -1q-5 1 -11 2l10 -56q11 -63 36 -199q20 3 30 4l32 7
q21 4 39.5 -8.5t22.5 -33.5t-8.5 -39t-33.5 -22l-32 -7q-11 -2 -31 -5q24 -129 29 -176l7 -54q2 -21 -11.5 -38t-34.5 -20t-38.5 11t-20.5 35l-6 54q-5 43 -29 174l-20 -2q-18 -2 -34 -4q-2 -8 -3 -13q-14 -52 -24.5 -98t-15 -69.5t-4.5 -29.5l4 -35q2 -22 -11.5 -39
t-35 -19t-38.5 12t-19 35l-4 36q-3 28 6 72t32 131q-16 1 -29.5 11t-18.5 26q-6 21 4 40t31 26l9 3q14 4 34 7q32 123 50 206l18 83q-21 -14 -46 -6zM235 387l-2 14q-2 -7 -4 -15q2 0 6 1z" />
    <glyph glyph-name="Adieresis" unicode="&#xc4;" horiz-adv-x="542" 
d="M345 792q18 -5 29.5 -19.5t10.5 -32.5q0 -22 -15.5 -37t-37.5 -15h-22q-40 1 -60 24q-6 -7 -14 -14q10 1 21 -1q6 0 12 -1q15 -4 26 -17t13 -29q18 -36 41 -120q34 -120 78 -247q44 -129 60 -175l16 -46q7 -20 -2.5 -40t-30 -27t-40 3t-26.5 30l-16 46q-16 46 -60 175
l-22 64l-32 -6q-30 -6 -54 -10q-22 -78 -44 -149q-1 -3 -2 -19.5t-4.5 -31.5t-10.5 -31t-23.5 -25.5t-39.5 -7.5q-27 1 -41.5 10t-16 20.5t0 22.5t5.5 19l5 8q2 13 6 35q13 62 33 147q-26 14 -27 43q-1 22 13.5 38t35.5 17h1q8 35 17 73q4 15 11.5 55t13.5 64.5t18.5 53.5
t27.5 43h-7q-17 -5 -34.5 1.5t-26.5 22.5q-11 18 -5 39.5t24 32.5l14 7q7 5 17.5 8.5t31.5 1.5t34 -18q11 17 31 26.5t41 2.5l8 -3q10 -4 18 -11zM250 409q1 0 3 1q3 0 6.5 1t7.5 1.5t7 1.5q-6 21 -12 41z" />
    <glyph glyph-name="AE" unicode="&#xc6;" horiz-adv-x="693" 
d="M310 749q20 -6 30 -25t4 -40l-2 -4q36 10 105 28q18 4 40 10.5t29 8.5t24.5 4.5t24.5 -0.5l6 -1q22 -4 35 -21.5t9 -38.5q-3 -21 -20 -34t-39 -10q-20 -4 -84 -20q-86 -22 -120 -33q7 -57 9 -136l18 5q102 24 138 23l29 -1q22 -1 37 -17t14.5 -37.5t-16.5 -36.5t-38 -14
l-29 1q-22 1 -110 -21l-42 -10q0 -87 -1 -142q32 8 91 23q78 21 107 29l31 9q20 6 39.5 -5t25 -31.5t-5 -39.5t-30.5 -25l-31 -9q-30 -9 -109 -30q-80 -20 -111 -27l-7 -2l-1 -16q0 -22 -15.5 -37t-37 -15t-37 15.5t-15.5 37.5l1 57q0 44 1 147l-46 -8q-11 -35 -23 -69
q-2 -5 -5.5 -25.5t-8.5 -38t-14 -36t-26.5 -27.5t-41.5 -5q-26 4 -39.5 15t-14.5 24t1.5 25t7.5 21l5 8q4 20 9 44q18 80 53 200q44 155 75 230q2 6 8.5 23t9.5 23t9 17t13 18t17 14q8 17 26.5 25.5t37.5 2.5z" />
    <glyph glyph-name="Ccedilla" unicode="&#xc7;" horiz-adv-x="462" 
d="M413 606q10 -14 10 -30v-9q1 -18 -10 -24.5t-27 -3.5t-32 9t-27 11l-11 6q-4 10 -21 31q-13 -5 -33 -19q-56 -42 -97 -171t-10 -236q5 -14 9 -25q12 -26 19.5 -29t28.5 7q73 33 89 76l23 62q8 21 28 30t40 1.5t29 -27.5t2 -41l-24 -62q-23 -62 -90 -105q2 -8 7 -22
q6 -16 30 -38q10 -9 17 -18q20 -27 16 -57q-4 -39 -45 -69l-43 -31q-17 -13 -38.5 -9.5t-34 21t-9.5 39t21 34.5l33 24q-34 34 -46 69q-1 3 -3 8.5t-3 6.5q-46 -6 -84 17.5t-59 70.5q-7 17 -13 38q-40 137 10 297q51 161 135 223q71 53 126 37q27 -8 46 -31q30 -35 41 -61z
" />
    <glyph glyph-name="Egrave" unicode="&#xc8;" horiz-adv-x="569" 
d="M208.5 798.5q16.5 13.5 38.5 10.5t35 -19l16 -20q10 -13 24 -22l19 -14q13 -8 19 -23l17 5q20 6 39.5 -4t26 -30.5t-4 -40t-31.5 -25.5l-68 -21q-58 -18 -126 -26q0 -65 -1 -188q-1 -7 -1 -14q45 19 58 28l12 14q14 16 36 17.5t38 -12.5t17.5 -35.5t-12.5 -38.5l-13 -15
q-4 -5 -8 -9t-7.5 -7t-9.5 -6.5t-9 -5.5t-10.5 -5.5t-11 -5t-12.5 -5.5t-12.5 -5t-14.5 -5.5t-14 -5.5l-28 -11q-1 -106 -1 -162v-14q38 11 103 29q104 27 128 34l26 7q20 6 39.5 -4.5t25 -31.5t-5 -40t-30.5 -25l-26 -7q-26 -8 -130 -35q-102 -27 -133 -38q-25 -8 -48 0
q-34 12 -46 53q-9 27 -8 73q0 54 1 155q-7 8 -10 17q-13 31 11 56q0 29 1 61q0 113 1 176l-14 -1q-21 -2 -38 12t-19 35.5t12 38t36 18.5l25 3v9q1 21 16.5 36t37.5 15q20 -1 35 -15t16 -34q13 2 25 4q-13 12 -24 26l-16 19q-13 17 -10.5 39t19 35.5z" />
    <glyph glyph-name="Eacute" unicode="&#xc9;" horiz-adv-x="575" 
d="M38 544q-3 17 5.5 33t23.5 23l-5 64q-2 21 12.5 38t35.5 19q15 1 28 -6q8 14 23 20l120 54q20 9 40.5 1t29 -27.5t1 -40t-27.5 -29.5l-121 -54q-16 -7 -33 -3l1 -16l5 1q94 16 114 20l22 5q21 5 39.5 -6.5t23 -32.5t-7 -39.5t-32.5 -23.5l-21 -5q-23 -5 -120 -22l-15 -2
q6 -79 7 -175q22 8 46 16l105 36q21 7 40.5 -2.5t26.5 -29.5t-2.5 -40t-29.5 -27l-106 -36q-58 -20 -81 -28v-18q-3 -123 -4 -182q31 8 76 16q90 16 147 27q41 8 53 11l6 3q19 10 40 3t30.5 -26t2.5 -40t-26 -31l-8 -4q-7 -4 -16 -6.5t-14.5 -4t-22.5 -4.5t-25 -4
q-58 -12 -148 -27q-81 -15 -98 -24q-12 -6 -29 -8t-36 6t-29 28q-9 18 -9 44q1 37 5 225v4q-21 12 -26 35q-3 17 4.5 32.5t22.5 23.5q0 108 -6 194q-14 5 -24.5 16t-12.5 26z" />
    <glyph glyph-name="Ecircumflex" unicode="&#xca;" horiz-adv-x="538" 
d="M46 520q-12 18 -8 39.5t22 33.5l9 7q6 4 13 7v31q0 22 15.5 37.5t37.5 15.5q12 -1 23 -6q-11 26 4 49l14 21q14 22 34 51q13 19 32 27q63 29 101 -57q24 -55 31 -82l5 -23q3 -8 2 -17q7 -10 10 -21q5 -21 -6.5 -39.5t-32.5 -23.5l-36 -9q-35 -8 -115 -28l-14 -4v-31
q-1 -88 -2 -163q20 7 43 15q58 19 75 27l4 2q16 14 38 11.5t35.5 -19.5t11 -38.5t-19.5 -35.5l-7 -5q-8 -7 -19 -12.5t-19 -8.5t-29 -9.5t-36 -11.5q-49 -17 -79 -25q-3 -90 -10 -163q-1 -10 -2 -19q30 5 76 11q87 11 138 22l53 11q21 4 39.5 -8t23 -32.5t-7.5 -39
t-33 -23.5l-53 -11q-56 -12 -147 -23q-79 -10 -96 -17q-3 -2 -8 -4.5t-18.5 -6t-25.5 -3t-25 10t-21 28.5q-5 13 -6 26.5t0 22.5t4 30t4 36q7 62 10 138q-24 12 -29 37q-4 18 5 35t26 24q1 86 2 191q-23 4 -36 22zM274 660l-2 9q-2 9 -9 27l-13 -19q-10 -17 -30 -22t-37 4
q4 -10 4 -21q55 14 87 22z" />
    <glyph glyph-name="Edieresis" unicode="&#xcb;" horiz-adv-x="543" 
d="M329 809q36 7 66 -11l12 -7q18 -12 23 -33t-6 -39.5t-32 -23.5q-7 -7 -16 -11l55 6q21 3 38 -11t19.5 -35.5t-11 -38.5t-35.5 -19l-102 -11q-96 -11 -163 -32l-12 -3q6 -85 5 -191l11 2q37 6 94 27q29 10 44 17q11 19 31.5 25t39.5 -4q18 -10 24.5 -31t-3.5 -40l-5 -9
q-7 -14 -19.5 -24t-20.5 -14t-29 -10.5t-26 -8.5q-66 -24 -112 -31l-33 -6v-9q-6 -117 -8 -173q60 17 150 23q92 7 114 11l25 3q21 3 38.5 -10t20.5 -34.5t-10 -39t-34 -20.5l-25 -3q-26 -4 -121 -11q-88 -7 -139 -23q-101 -32 -122 41q-3 10 -3 21q0 31 9 220q8 169 -1 290
q-15 10 -21 28q-9 30 14 53l-6 70q-2 21 12 38t35 19t38 -11q-1 21 9 37q12 19 30 29q17 13 39 10t35 -20l9 -11q14 -21 13 -45t-13 -43q-9 -11 -23 -18q45 9 98 15q-20 4 -35 20t-18 34q-4 25 12.5 47.5t40.5 28.5zM195 657q-25 1 -41 16q-1 0 -1 1l2 -28q19 6 40 11z" />
    <glyph glyph-name="Igrave" unicode="&#xcc;" horiz-adv-x="401" 
d="M120 820q17 13 39 10.5t35 -18.5l6 -8q4 -5 18 -17l19 -16q16 -14 18 -36t-12 -38t-36 -18t-38 12l-20 17q-22 19 -31 31l-6 7q-13 17 -11 39t19 35zM38.5 643.5q5.5 20.5 24.5 31.5t40 6l29 -8h2q10 6 21 8q19 3 36 -7l51 7q21 2 38.5 -11t20.5 -34.5t-10.5 -39
t-34.5 -20.5l-30 -3q2 -7 4.5 -22t3.5 -23q19 -112 31.5 -224t19.5 -228l4 -53l12 2q21 5 39.5 -7t23 -33t-7.5 -39.5t-32 -22.5l-34 -7q-13 -3 -26 -5q-10 -5 -21 -5q-14 -1 -27 5q-4 1 -9 2l-30 5q-21 3 -34 21t-9 39q3 18 17 30.5t32 13.5q0 8 -1 24t-2 24
q-7 113 -19 222.5t-31 217.5l-9 58q-9 2 -16 4l-29 7q-21 6 -32 25t-5.5 39.5z" />
    <glyph glyph-name="Iacute" unicode="&#xcd;" horiz-adv-x="359" 
d="M118 702q-8 20 0 40.5t28 28.5l32 13q19 9 39.5 0.5t29 -28.5t0 -40t-27.5 -29l-24 -9q5 -6 7 -13q9 0 18 -1l55 -5q21 -2 35 -18.5t12 -38t-18.5 -35.5t-38.5 -12l-53 4v-102q1 -151 3 -294q1 -85 2 -132l7 2q21 4 39.5 -8t22.5 -33t-8 -39.5t-33 -22.5l-33 -7
q-3 -1 -5 -1q-15 -19 -39 -20q-22 0 -38 16l-15 1q-21 1 -35.5 17.5t-12.5 38.5q1 18 14 31.5t31 16.5q-1 45 -2 138q-2 144 -3 296q0 51 -1 93l-5 -1q-20 -5 -39 6.5t-24 32.5t7 39.5t32 23.5l24 6q4 22 23 35q-3 4 -6 10z" />
    <glyph glyph-name="Icircumflex" unicode="&#xce;" horiz-adv-x="307" 
d="M78 666q-15 15 -15.5 37t14.5 37l7 8q7 7 23 24q30 33 70 25q22 -5 40 -23q20 -21 27 -32l4 -6q11 -19 6 -40t-23 -33q-17 -10 -37.5 -6.5t-32.5 19.5l-1 -1l-8 -8q-15 -15 -37 -15.5t-37 14.5zM37.5 603.5q2.5 21.5 20 35t38.5 11.5l30 -4l10 4q24 7 45 -9q8 -1 11 -1
l9 3q20 6 39.5 -5t25 -31.5t-5 -39.5t-31.5 -25l-12 -3q-1 -1 -3 -1q1 -21 0 -54q-3 -60 -2 -164q1 -103 8 -221q3 -47 5 -80q15 -3 27 -13t17 -26q5 -20 -6 -39t-31 -25l-11 -3q-17 -5 -39 -4q-7 -1 -14 0q-2 0 -5.5 0.5t-6 0.5h-5.5q-51 2 -68 8l-11 4q-20 7 -29.5 26.5
t-2.5 40t26.5 30t39.5 2.5l9 -3q2 0 5 -1q-1 18 -5 76q-7 120 -8 226t2 170q1 30 -1 54l-24 2q-21 3 -35 20t-11.5 38.5z" />
    <glyph glyph-name="Idieresis" unicode="&#xcf;" horiz-adv-x="398" 
d="M213 724q-5 8 -7.5 14.5t-3 10t0.5 5.5t2 3t1 2q1 19 14.5 35.5t31.5 21.5q26 7 50 -12t25 -42v-9q2 -27 -20 -44q23 -10 30 -33q6 -20 -4.5 -39.5t-30.5 -25.5l-23 -7q-10 -3 -20 -5q3 -73 -5 -245q-9 -174 -10 -246v-14l55 11q21 4 39.5 -8t22.5 -33t-8.5 -39.5
t-33.5 -22.5l-63 -12q-11 -3 -21 -5q-12 -14 -29 -18q-21 -4 -39 7q-13 -1 -25 -3l-47 -5q-21 -2 -38 11.5t-19.5 35t11 38.5t35.5 19l47 6h7q1 22 1 34q1 74 10 249q9 172 5 238v2q-27 3 -46 8l-23 7q-21 6 -31.5 25t-5.5 40q8 27 36 35q-13 10 -20 23q-10 19 -3.5 36.5
t25.5 28.5q11 8 16 10l3 10q10 13 50 -13l21 -27q9 -13 10 -29t-7 -30q-7 -12 -20 -19h4q14 17 36 18q10 0 20 -3z" />
    <glyph glyph-name="Ntilde" unicode="&#xd1;" horiz-adv-x="530" 
d="M87 701q24 1 41 -16l5 19q10 36 43 48q30 10 66 -7q27 -13 52 -29q9 9 14 15q8 20 28 29.5t40 2t29.5 -27.5t1.5 -40l-2 -6q10 4 20 3q21 -1 36 -17t14 -38l-1 -24q-2 -24 -3 -134q-2 -109 0 -191q3 -81 13 -189q0 -1 3 -14.5t5 -27.5t1.5 -32.5t-6 -32.5t-20 -24
t-36.5 -11q-9 0 -16.5 1.5t-13 4.5t-9.5 6t-7 7t-4.5 6.5l-3 5l-1.5 2.5q-21 35 -105 178q-70 120 -120 227q0 -32 1 -70q4 -193 4 -243v-49q0 -22 -16 -37.5t-37 -15.5t-36.5 16t-15.5 37v50q0 48 -4 239.5t-7 257.5l-3 66q-1 22 14 38t36 17zM370 643q-4 -3 -7 -6
q-27 -27 -61 -30q-29 -2 -56 15l-26 16q-22 -29 -56 -20q15 -30 63 -137q53 -120 135 -260q5 -9 8 -14q-3 42 -4 78q-2 84 0 196t3 137l1 24v1z" />
    <glyph glyph-name="Ograve" unicode="&#xd2;" horiz-adv-x="556" 
d="M262 812q18 12 39.5 7t33.5 -23l35 -55q12 -18 7 -39t-22 -33h1q5 -2 11 -4q5 -2 9 -5l26 -10q18 -7 33 -21q43 -40 68 -142q29 -121 7 -231q-24 -116 -129 -210q-120 -105 -216 -56q-86 44 -115 162q-25 106 -2 232q24 135 138 226q63 50 110 60q-9 6 -14 14l-36 55
q-11 18 -6.5 39.5t22.5 33.5zM383 520q-5 2 -8 5l-47 43q-26 0 -76 -40q-83 -67 -101 -163q-19 -104 2 -188q17 -72 60 -93q32 -17 98 41q79 70 96 152q17 87 -6 185q-8 34 -18 58z" />
    <glyph glyph-name="Oacute" unicode="&#xd3;" horiz-adv-x="556" 
d="M174 664q-10 19 -3 39.5t27 30.5l36 18q39 19 61 27l19 8q20 8 40 -1t28 -29q6 -16 1 -34q19 5 36.5 -4t24.5 -26q8 -19 1 -39l10 -15q53 -74 63 -220q10 -145 -56 -287q-34 -75 -87 -117t-121 -41t-117.5 43t-77.5 114q-53 141 21 318q53 126 127 187q-23 7 -33 28z
M356 598l-40 -16q-81 -35 -139 -173q-58 -139 -20 -241q19 -50 42.5 -69.5t55.5 -19.5q32 -1 59.5 21t52.5 77q55 117 47 235q-8 117 -44 166z" />
    <glyph glyph-name="Ocircumflex" unicode="&#xd4;" horiz-adv-x="516" 
d="M296 623h-2q-5 -1 -14 -6t-27 -22.5t-36 -42.5q-56 -77 -70 -167q-15 -90 19 -205q3 -12 7 -21q8 -17 15.5 -24t23.5 -5t46 15q51 24 78.5 65t34.5 105q14 138 -24 212q-36 73 -45 88l-4 5q-1 1 -2 3zM445 567q47 -100 30 -262q-9 -89 -53 -154.5t-120 -100.5
q-45 -21 -88 -22t-79.5 20.5t-56.5 66.5q-8 16 -13 35q-41 138 -22 252t89 212q38 52 71 78q-4 21 7 39l21 34q26 41 46 60q12 10 26 14q14 6 26 3.5t20.5 -5.5t15.5 -11.5t11.5 -15t8 -16.5t5 -16t3 -13t2.5 -7l15 -56q3 -13 0 -26q23 -31 30 -63l5 -24q2 -11 0 -22z" />
    <glyph glyph-name="Otilde" unicode="&#xd5;" horiz-adv-x="509" 
d="M265 591q-6 -3 -11 -6q-68 -34 -92 -162q-28 -145 -17 -251q5 -46 19.5 -68t38.5 -30q23 -9 43.5 -2.5t44.5 34.5q54 64 70 187q16 125 -10 195q-20 52 -34 66l-26 12q-17 8 -26 25zM427 577q11 -23 22 -52q36 -94 16 -246q-20 -154 -94 -241q-41 -47 -92.5 -64.5
t-109.5 0.5q-56 20 -88 69t-40 117q-13 122 17 283q22 114 77 179q-14 14 -16 33.5t9 35.5l20 28q23 33 52 42q23 7 45 1q21 -6 44 -14q3 0 11 3l27 12q20 8 40.5 0t28.5 -28q6 -15 3 -30.5t-14 -27.5q3 -4 7 -9l29 -40q17 -24 6 -51z" />
    <glyph glyph-name="Odieresis" unicode="&#xd6;" horiz-adv-x="531" 
d="M386 813q20 0 32.5 -9t15.5 -22t3.5 -25t-1.5 -21l-2 -9q-26 -38 -76 -23q-23 7 -34 17q-11 -17 -30 -21l-26 -13q-3 -3 -7 -5q29 5 60 0q49 -10 84 -44t53 -85q7 -20 12 -43l24 -116q4 -21 -8 -39t-33 -23q-30 -6 -51 17q-2 -15 -5 -31q-23 -148 -118 -251
q-16 -17 -29 -29.5t-31 -25t-34.5 -18.5t-36 -6t-38.5 8q-18 9 -32 25q-32 37 -39 102.5t4 148.5q16 180 80 294q46 83 113 108q-10 0 -19 3q-20 7 -29.5 27t-2.5 40l7 20q1 4 3.5 9t11 17t18 19t26.5 6.5t35 -12.5q12 -1 23 -7q10 19 30 25q25 8 47 -8zM298 579
q-21 3 -41 -10.5t-42 -53.5q-54 -96 -68 -253q-11 -123 7 -166q19 11 48 42q73 80 92 196q20 127 17 191q-2 32 -6 48l-5 4z" />
    <glyph glyph-name="multiply" unicode="&#xd7;" horiz-adv-x="381" 
d="M310.5 484q17.5 -12 21.5 -34t-8 -39l-25 -37q-18 -26 -45 -76q39 -56 54 -72l8 -4q19 -10 26 -31t-3 -40t-31 -25.5t-40 3.5l-13 6q-27 14 -57 58q-13 -23 -23 -39l-21 -36q-11 -18 -32.5 -23t-40 6t-23.5 32t6 40l21 35q17 28 46 83q-40 57 -59 82l-25 34
q-13 17 -9.5 39t20.5 34.5t39 9.5t35 -20l25 -35q11 -15 30 -42q14 23 25 40l26 37q12 18 33.5 22t39 -8z" />
    <glyph glyph-name="Ugrave" unicode="&#xd9;" horiz-adv-x="553" 
d="M379 674.5q-19 -9.5 -40 -2.5t-31 26l-28 57q-9 19 -2 40t26 30.5t40 2.5t30 -27l28 -56q10 -19 3 -40t-26 -30.5zM473 434q0 -50 3 -113q1 -34 4 -73q10 -143 18 -180l7 -10q13 -17 10.5 -38.5t-19.5 -34.5t-39 -10t-35 20l-12 15q-9 12 -14.5 28t-6.5 26t-3 38l-3 42
q-52 -108 -130 -151q-38 -21 -74 -13q-48 10 -77 64q-29 51 -44 152q-33 219 -15 386l18 159q2 22 19 35.5t38.5 11.5t35.5 -19.5t11 -38.5l-17 -160q-17 -153 14 -358q8 -50 19 -84t20 -44q0 1 1 1q68 37 110 166q14 42 26 80q19 64 30 114q0 52 4 90q0 3 -1 8t-1.5 19
t0.5 26.5t5.5 27t12.5 24t23 14.5t35 1q19 -4 30 -11t14 -14t3.5 -13.5t-1.5 -10.5l-2 -4q5 -39 -12 -138q-2 -14 -5 -30z" />
    <glyph glyph-name="Uacute" unicode="&#xda;" horiz-adv-x="598" 
d="M218.5 626q-12.5 17 -9.5 39t20 35l51 37q17 13 39 10t34.5 -20.5t9.5 -39t-20 -34.5l-51 -38q-17 -12 -39 -9t-34.5 20zM506 443q3 -67 15 -155q1 -9 3 -19q21 -151 29 -191l8 -41q4 -21 -8.5 -39t-33.5 -22.5t-39 8t-22 33.5l-8 41q-3 12 -6 34q-9 -23 -19 -43
q-26 -55 -70.5 -88t-101.5 -36q-38 -3 -69 14.5t-53 52t-37 74t-27 92.5q-50 209 -16 356l32 134q5 21 23.5 32.5t39.5 6.5t32.5 -23.5t6.5 -39.5l-32 -134q-28 -122 16 -308q9 -39 20 -68.5t19.5 -45t17.5 -25t13.5 -12t7.5 -2.5q28 2 47.5 16.5t36.5 48.5q39 82 55 199
q11 80 15 150q-2 37 -2 68q0 2 -0.5 4.5t-1.5 11.5t-0.5 16t1 18.5t3.5 19t8 16t13.5 11t20 4.5t27.5 -5q19 -6 30 -18.5t12.5 -26t1 -26t-3.5 -20.5l-3 -8q0 -31 -1 -65z" />
    <glyph glyph-name="Ucircumflex" unicode="&#xdb;" horiz-adv-x="601" 
d="M219.5 682q-17.5 12 -22 33.5t7.5 39.5l12 17q9 13 19 39q6 14 16 25q17 17 36 20.5t36 -4.5t27.5 -15.5t19.5 -16.5q33 -34 41 -40l10 -8q17 -13 19.5 -35t-11 -38.5t-35 -19.5t-38.5 11l-10 8q-10 7 -34 31q-4 -8 -9 -15l-12 -18q-12 -17 -33.5 -21.5t-39 7.5zM506 558
q1 -60 9 -177q9 -127 28 -226l20 -102q4 -21 -8 -39.5t-33 -22.5t-39.5 8.5t-22.5 33.5l-20 102q-3 18 -7 36q-23 -80 -50 -135q-26 -55 -65.5 -86t-91.5 -22q-27 5 -49.5 21.5t-39.5 43.5t-29.5 55t-25.5 67q-51 151 -44 287q6 129 26 243l19 110q3 21 21 34t39.5 9
t34 -21.5t8.5 -39.5l-19 -110q-18 -107 -24 -230q-6 -117 39 -248q13 -40 29 -69t24 -38.5t11 -9.5q2 -1 5.5 0t14.5 13.5t23 37.5q41 84 75 246q9 43 16 79q19 100 20 142q1 5 1 9v9l38 40q62 59 67 18q1 -11 0 -68z" />
    <glyph glyph-name="Udieresis" unicode="&#xdc;" horiz-adv-x="596" 
d="M370.5 822.5q21.5 -1.5 35.5 -18.5q3 -1 6 -3q19 -11 24 -32.5t-6 -39.5l-4 -7q-13 -22 -44.5 -25.5t-49.5 16.5q-21 22 -19 53l1 8q2 22 18.5 36t38 12.5zM212 804q14 7 29 6h7q22 -1 33.5 -12t11 -25.5t-3.5 -29t-8 -24.5l-5 -10q-3 -2 -9 -4.5t-20.5 -6t-26.5 -2.5
t-23.5 11.5t-15.5 31.5l-1 6q-4 18 5.5 35t26.5 24zM506 386q0 -42 2 -83q2 -32 5 -64q7 -73 15 -103q1 -1 2 -1q19 -10 26.5 -30.5t-2 -40t-30 -26.5t-40.5 2l-16 8q-15 8 -25 18.5t-15 25t-7 25t-3.5 29.5t-2.5 26q-11 -19 -23 -38q-125 -200 -243 -126q-9 6 -18 14
q-94 84 -94 303q0 200 18 283l16 77q5 21 23 33t39 7.5t33 -23t8 -39.5l-17 -77q-15 -72 -15 -262q0 -171 59 -223q2 -3 5 -4q1 -1 4 -1.5t11.5 2.5t19 11.5t27 29.5t35.5 51q43 69 70 132q17 40 28 78q0 49 4 98v9v21.5t1 29t4 32.5t7.5 32.5t12 28t17 18.5t24 6t31.5 -11
q18 -11 27 -27.5t9 -38t-2.5 -40.5t-8 -46.5t-7.5 -44.5q-4 -39 -14 -81z" />
    <glyph glyph-name="germandbls" unicode="&#xdf;" horiz-adv-x="506" 
d="M181 484q11 24 25 54q22 49 28 79q-23 -31 -44 -104q-5 -14 -9 -29zM154 362q-12 -71 -12 -132q0 -128 13 -239l13 -113q2 -22 -11.5 -39t-35 -19.5t-38.5 11t-20 35.5l-13 113q-13 117 -13 251q0 98 26 214q11 48 26 99q6 21 12.5 38.5t14.5 37.5t16.5 35t20 30.5
t23 24.5t26.5 17t31 7.5t35 -3.5q9 -2 18 -6q26 -12 39.5 -32.5t16 -42.5t-3.5 -51.5t-15 -52.5t-22 -51q-10 -21 -18 -39q6 0 13 1q54 2 94.5 -28t61.5 -83q40 -101 -10 -211q-47 -102 -118 -153q-5 -4 -18.5 -15.5t-23.5 -18t-24.5 -13t-30.5 -5t-32 11.5l-11 7
q-18 10 -23.5 31.5t4.5 39.5q10 16 27 22.5t35 1.5q14 8 35 23q50 36 85 112q31 69 7 128q-11 28 -22.5 37t-31.5 8q-49 -3 -65 -9q-2 -1 -5.5 -3t-14.5 -4.5t-20.5 -2t-21 7.5t-19.5 22z" />
    <glyph glyph-name="agrave" unicode="&#xe0;" horiz-adv-x="434" 
d="M145.5 686.5q16.5 13.5 38.5 11.5t35 -19l15 -18q12 -14 24 -26l15 -14q16 -15 17 -36.5t-13.5 -37.5t-36.5 -17t-38 14l-15 14q-18 17 -35 37l-14 18q-14 17 -11.5 38.5t19 35zM270 396l-9 14q-12 -6 -27 -18q-56 -43 -78 -124q-23 -85 -8 -151q3 -14 6 -24q21 24 49 75
q16 29 28 56q16 34 27 65q2 59 11 101q1 3 1 6zM337 484q26 -2 39 -14t13 -22v-10q1 -8 1 -16.5v-15t-2 -18.5t-3 -17.5t-4.5 -23.5t-5.5 -25q-4 -24 -13 -51q0 -32 1 -67v-19q2 -27 4.5 -51t5 -35.5t3.5 -14.5l16 -30q10 -19 3 -40t-26 -30.5t-40 -3t-31 25.5l-15 30
q-8 15 -13 38q-19 -29 -31 -45.5t-34.5 -32t-47.5 -18.5q-26 -2 -46.5 8t-33 29.5t-20 38t-12.5 40.5q-20 91 10 202q31 114 114 179q32 25 61 37t61 3q27 -7 46 -31z" />
    <glyph glyph-name="aacute" unicode="&#xe1;" 
d="M412.5 705.5q17.5 -12.5 21.5 -34t-8 -38.5l-26 -39q-28 -40 -33 -47l-5 -6q-12 -17 -34 -20.5t-39 9.5t-20 34.5t9 39.5l5 6q4 5 30 43l27 39q12 18 33.5 22t39 -8.5zM296 389l-22 -4q-24 -5 -52 -42t-53 -114q-13 -38 -19 -71t-5 -46.5t2 -21.5q19 -8 31 -7t27 13
q26 19 50 72q13 29 25 65q3 10 6 19q1 22 2 46q3 54 8 91zM368 504q14 -3 25 -9.5t17.5 -13.5t10.5 -16t5 -17t1 -16.5t-0.5 -14t-1.5 -10l-1 -4.5q-2 -61 -34 -169q-1 -48 0 -84q1 -23 3 -41q5 -37 11 -52l12 -11q15 -15 15.5 -37t-14 -37.5t-36.5 -16t-38 14.5l-14 14
q-19 18 -30 57q-15 -17 -30 -29q-38 -28 -82 -32t-86 15q-17 8 -30 21q-19 21 -27.5 48t-6 60.5t10 64.5t21.5 73q31 97 75.5 155.5t110.5 70.5l89 17q14 3 24 -1z" />
    <glyph glyph-name="acircumflex" unicode="&#xe2;" horiz-adv-x="429" 
d="M138.5 527.5q-15.5 14.5 -16.5 36.5t14 38l7 7q5 6 26 33q7 11 17 18q24 19 54 16q37 -4 69 -47l33 -44q13 -17 10 -38.5t-20 -34.5t-39 -10t-35 20l-24 33q-10 -13 -15 -18l-6 -7q-15 -16 -37 -16.5t-37.5 14zM348 311q3 -28 8 -64q11 -91 23 -149l12 -60
q5 -21 -7 -39.5t-33 -22.5t-39.5 8t-22.5 33l-13 59q-4 19 -7 40q-25 -33 -59 -65q-85 -83 -142 -24q-21 22 -26.5 49.5t-4.5 70.5q4 161 86 255q27 31 57.5 49.5t67.5 18t67 -28.5l47 -45q16 -14 16.5 -36t-14.5 -38q-7 -7 -16 -11zM240 365q-16 -7 -38 -32
q-57 -65 -60 -188v-14q71 70 85 137q3 18 6 33q5 27 7 45v19z" />
    <glyph glyph-name="atilde" unicode="&#xe3;" horiz-adv-x="430" 
d="M137 501q-21 1 -36 17t-14 37v13q1 24 15 52q11 21 31 30.5t37.5 9t33.5 -6.5q28 -9 71 -22l4 -2l15 24q11 18 32.5 23t39.5 -6.5t23 -33t-6 -39.5l-18 -29q-17 -26 -44 -37q-4 -2 -9 -3q9 -6 16 -12l10 -12q43 -54 50 -90l5 -24q5 -30 -18 -50q-3 -28 -13 -64
q-1 -46 1 -81q2 -27 7 -48q14 -65 16 -73l1 -8q5 -21 -6.5 -39.5t-32 -23.5t-39.5 6.5t-24 32.5l-2 8q-1 6 -7 34q-26 -32 -55 -52q-52 -34 -100 -20q-37 10 -61 48q-17 28 -21 64.5t2 72.5t20 84q42 139 107 208q32 35 61 46q-20 6 -38 12q-3 -20 -18 -33.5t-36 -12.5z
M273 416q-5 8 -12 17q-7 -6 -16 -15q-48 -52 -83 -168q-12 -37 -15.5 -68.5t-2.5 -45.5t5 -19l2 -4q5 2 12 7q36 24 66 93l10 24q11 30 19 56q1 12 1 26q1 13 1.5 30.5t1 25.5t3.5 19t8 22z" />
    <glyph glyph-name="adieresis" unicode="&#xe4;" horiz-adv-x="452" 
d="M357 643q4 -21 -7 -38l-6 -11q-1 -3 -3.5 -7.5t-11 -14.5t-17.5 -13.5t-24 2t-31 24.5q-14 15 -18 28q-1 -5 -6 -15q-8 -18 -21.5 -22t-26.5 2.5t-25 16t-20 17.5l-8 9v8q0 8 3 17q3 20 19 33t36 12q21 -1 35.5 -17t13.5 -38q2 4 4.5 7.5t4.5 4.5l2 2l6 23q7 20 26 30.5
t40 4.5q20 -6 30.5 -25t4.5 -40zM224 420q-27 -38 -54 -124q-13 -41 -19.5 -77.5t-5.5 -51t3 -23.5h2q13 7 29 46q37 94 41 160q2 46 4 70zM353 294q4 -37 9 -76q9 -79 27 -122l22 -49q9 -20 1 -40.5t-28 -29t-40.5 -0.5t-28.5 28l-22 49q-15 34 -24 79q-39 -83 -102 -93
q-32 -5 -65 10q-15 7 -27 18q-21 21 -30.5 49t-7 64t10 68.5t22.5 78.5q15 50 30.5 85.5t37 69t50.5 49.5t64 15q52 -3 87 -32q36 -30 48 -85l15 -72q5 -21 -7 -39.5t-33 -23.5q-4 0 -9 -1z" />
    <glyph glyph-name="ae" unicode="&#xe6;" horiz-adv-x="590" 
d="M235 395l-2 8q-2 7 -5 13q-17 -11 -34 -43l35 5q3 9 6 17zM190 267q-16 0 -29 10q-19 -79 -19 -123q22 39 48 113zM311 482q26 28 59 49q18 11 30 18t34.5 16t39 9.5t35.5 -8.5t32 -30q4 -7 7 -16q5 -14 5.5 -27t-3 -25.5t-9 -23t-15.5 -21t-19 -19t-22.5 -18t-23 -16
t-23.5 -14.5q-43 -28 -80 -46v-10l-2 -36q-1 -22 -19 -37q5 -27 19 -49q15 -25 28 -31t33 -1l72 17q21 5 39.5 -6.5t23.5 -32t-6.5 -39.5t-31.5 -24l-73 -17q-59 -14 -109 14q-14 -26 -43 -28q-22 -2 -38.5 12.5t-17.5 35.5l-2 19q-11 -19 -17.5 -29.5t-21.5 -23t-33 -18.5
q-44 -12 -75.5 15t-41.5 68q-15 68 20 206q38 147 113 192q42 25 81 15q34 -9 55 -40z" />
    <glyph glyph-name="ccedilla" unicode="&#xe7;" horiz-adv-x="387" 
d="M261 308.5q-21 0.5 -36 16.5t-15 38l1 20q0 7 -4 21q-16 -21 -36 -62q-42 -85 -23 -167q11 -54 25 -77q14 8 32 26l57 57q15 15 37 15t37 -15.5t15 -37.5t-15 -37l-57 -56l-2 -2l8 -11q31 -44 35 -111q0 -2 1.5 -16.5t1 -24t-3.5 -24t-13.5 -25.5t-27.5 -18l-11 -4
q-20 -8 -40 1t-28 29q-6 16 -2 32.5t18 27.5v17q-2 36 -15 55l-12 16q-30 -6 -59 7q-36 17 -53 53.5t-31 99.5q-26 118 32 237q10 21 13 27t13.5 25t16.5 26t17.5 20t21.5 18t24 9t29 3q30 -3 54.5 -21t35.5 -46q15 -40 14 -71l-1 -20q0 -21 -16.5 -36t-37.5 -14.5z" />
    <glyph glyph-name="egrave" unicode="&#xe8;" horiz-adv-x="508" 
d="M78.5 696q16.5 13 38.5 10.5t35 -19.5l49 -61q13 -17 10.5 -39t-19 -35t-38.5 -10.5t-35 19.5l-49 61q-13 17 -10.5 39t19 35zM175 225v-4v-22q1 -26 4 -41.5t9.5 -22t12 -7.5t16.5 0q78 3 113 42l50 56q14 17 36 18t38 -13t17 -36t-13 -38l-50 -56q-64 -73 -187 -78
q-68 -3 -107 44t-43 120q-18 7 -27 23q-11 19 -5 40t24 32l13 7q20 127 105 179q1 0 9.5 5.5t14 9t17 9.5t20 9.5t21 7t22 4t20 -1t18.5 -7.5t15 -16.5t10 -25.5q3 -9 3 -17t-0.5 -15t-3.5 -15.5t-5 -14t-8 -14.5t-8.5 -13t-10.5 -13.5t-10.5 -12.5t-12 -13t-11.5 -13
q-58 -64 -106 -96z" />
    <glyph glyph-name="eacute" unicode="&#xe9;" horiz-adv-x="481" 
d="M296.5 763q19.5 -9 27 -29.5t-1.5 -40.5l-54 -119q-9 -20 -30 -27.5t-40 1.5t-27 29.5t1 40.5l55 119q9 19 29.5 27t40 -1zM182 373q35 25 61 48q-12 -3 -27 -11q-19 -10 -34 -37zM154 230q7 -49 50 -85q23 -19 39 -25t25 -2.5t21 15.5l67 64q15 14 37 13.5t37 -15.5
t14.5 -37t-16.5 -37l-66 -64q-52 -46 -110.5 -42t-114.5 49q-75 62 -87 153q-3 3 -5 6q-9 14 -8 31.5t12 30.5q1 12 3 24q27 146 113 193q95 52 160 0q13 -10 21 -21q13 -19 15 -40.5t-4.5 -39t-18.5 -32.5q-8 -10 -19 -20q-51 -47 -128 -96z" />
    <glyph glyph-name="ecircumflex" unicode="&#xea;" horiz-adv-x="468" 
d="M63 487q-17 14 -19 35.5t11 38.5l28 34q26 31 46 64q0 1 2.5 4.5t3 4.5t3 5t4 5t4.5 4.5t6 5t6.5 4t8 4t8.5 3.5q64 17 83 -64l11 -47q5 -20 -6.5 -39t-32.5 -24h-2q15 -5 27 -13q36 -25 39 -73q3 -61 -63 -134q-31 -35 -54 -57q-1 -4 -1 -12q-10 -105 4 -149q0 -1 1 -3
q15 1 42 16q26 14 49 28t34 21.5t14 10.5l17 23q13 18 34.5 21t39 -9.5t20.5 -34.5t-9 -39l-18 -24q-17 -23 -45 -41t-87 -49q-91 -48 -148 -12q-22 14 -35 39q-6 10 -9 22q-16 50 -12 139q-12 5 -20 15q-13 16 -10.5 38t19.5 35l20 17q1 9 2 17q1 3 3 20t3 22.5t3 20.5
t3.5 22t4.5 20t6 21.5t6.5 18t7.5 17.5q-29 -12 -53 8zM193 530q-9 5 -16 14l-12 -16l-4 -4q15 6 32 6z" />
    <glyph glyph-name="edieresis" unicode="&#xeb;" horiz-adv-x="552" 
d="M316 678q7 -2 15 -6q17 0 31 -9q17 -12 21.5 -33.5t-7.5 -39.5l-13 -19q-1 -3 -3.5 -7t-10.5 -12.5t-17 -13.5t-24 -3.5t-31 12.5q-18 12 -24 34q-7 27 -2 49l2 9q5 21 24 32.5t39 6.5zM142 671q15 4 30.5 -2.5t24.5 -19.5q7 -2 13 -6q19 -11 24 -32.5t-6 -39.5l-9 -15
q-2 -3 -5 -7t-11 -11t-17.5 -11t-22.5 -3t-26 10q-8 5 -13.5 10.5t-8.5 11.5t-4.5 10t-2 10t-1.5 6l-5 26q-5 21 7 39.5t33 23.5zM206 254q-4 -12 -7 -22q-11 -33 -13.5 -57.5t0.5 -31.5l2 -8q25 -23 109 22q87 47 107 68l11 25q9 20 29.5 27.5t40 -1.5t27.5 -29.5t-1 -39.5
l-13 -29q-6 -13 -18 -26t-21 -21t-33.5 -22.5t-34.5 -20t-45 -24.5q-149 -80 -229 -6q-51 48 -33 149q-32 4 -43 33q-8 19 0.5 39.5t28.5 28.5l51 20q1 1 2 1q3 8 6 14t10.5 24.5t11.5 27.5t12.5 26.5t14 26.5t15 23t17.5 21.5t18.5 15t21.5 10t23.5 1.5t26.5 -7
q16 -7 28 -23q18 -21 22 -45.5t-4 -47t-22 -42t-33 -36.5q-45 -40 -85 -64z" />
    <glyph glyph-name="igrave" unicode="&#xec;" horiz-adv-x="243" 
d="M58 730q17 13 38.5 10t34.5 -20l49 -65q13 -17 10 -38.5t-20.5 -34.5t-39 -10t-34.5 20l-49 64q-13 17 -9.5 39t20.5 35zM121 559.5q21 2.5 38.5 -11t19.5 -34.5l4 -32q4 -35 9 -197q4 -159 9 -226l5 -69q2 -21 -12.5 -38t-36 -18.5t-38 13t-17.5 35.5l-5 69
q-5 70 -10 231q-5 157 -8 187l-4 32q-3 22 11 39t35 19.5z" />
    <glyph glyph-name="iacute" unicode="&#xed;" horiz-adv-x="273" 
d="M48 559q-13 17 -10.5 39t19.5 35l95 74q17 13 38.5 10t35 -20t10.5 -38.5t-20 -34.5l-94 -74h4q22 1 37.5 -14.5t15.5 -36.5l2 -97q1 -97 0 -239q-1 -139 0 -164l1 -26q1 -21 -14 -37.5t-36.5 -17t-37.5 14.5t-17 36l-1 26q-1 27 0 169q1 140 0 236l-1 97q-1 26 20 43
q-29 -4 -47 19z" />
    <glyph glyph-name="icircumflex" unicode="&#xee;" horiz-adv-x="313" 
d="M55 534q-16 14 -17.5 36t12.5 38l34 39q33 38 50 61q14 19 33 26q13 4 24.5 4t20 -3t16.5 -10t12.5 -13t9 -14.5t6 -12t3.5 -8.5l15 -41q7 -20 -2 -40t-30 -28q-18 -6 -36.5 1t-28.5 26q-7 -8 -14 -17l-34 -39q-14 -16 -36 -17.5t-38 12.5zM186.5 532.5
q21.5 -0.5 36.5 -16.5t15 -37l-1 -65q-1 -64 0 -154q1 -92 0 -180v-87q-1 -21 -16.5 -36.5t-37 -15.5t-37 16t-14.5 37v87q1 87 0 178q-1 92 0 157l1 65q0 21 16 36.5t37.5 15z" />
    <glyph glyph-name="idieresis" unicode="&#xef;" horiz-adv-x="343" 
d="M267 719q21 -5 32 -23.5t6 -39.5l-2 -9q-6 -24 -27.5 -37t-40.5 -11l-12 1q-21 1 -35.5 17.5t-13.5 37.5q1 17 12.5 30.5t28.5 17.5q9 10 23.5 15t28.5 1zM151 655q8 -20 0 -40.5t-28 -28.5l-8 -4q-22 -9 -53.5 13.5t-22.5 53.5l2 7q5 21 24.5 31.5t39.5 5.5
q12 -4 22 -13q17 -8 24 -25zM177.5 566.5q21.5 -2.5 35.5 -19.5t11 -38l-4 -35q-3 -31 -3 -201q1 -171 4 -225l3 -56q1 -22 -13.5 -38t-36 -17.5t-38 13.5t-17.5 36l-3 56q-3 57 -4 231q0 175 4 213l4 34q2 22 19 35.5t38.5 11z" />
    <glyph glyph-name="ntilde" unicode="&#xf1;" horiz-adv-x="471" 
d="M322 483q30 -25 57 -83q55 -121 46 -251q-2 -19 -3 -50t-2 -43.5t-6 -29t-14 -30.5l-7 -10q-12 -17 -33.5 -21t-39.5 8t-21.5 34t8.5 39l2 4q5 26 11 107q8 103 -36 199q-14 30 -27 43q-44 -36 -69 -133l-21 -81v-6q16 -164 16 -173v-8q1 -21 -14.5 -36.5t-37 -16t-37 15
t-16.5 36.5v7q-1 15 -12 130q-16 21 -9 45l3 15q-13 143 -17 215l-4 78q0 6 1 12q-5 16 -1 31l13 52q16 61 40 95q6 8 14 15q60 51 131 -38q38 -47 68 -64q4 -2 7 -2q1 0 4 2l32 29q16 14 37.5 12.5t36 -17.5t13 -38t-17.5 -36l-32 -28q-26 -24 -57 -28q-3 -1 -6 -1z
M243 505q-39 25 -82 76q-4 -12 -7 -26l-13 -49q2 -7 3 -14l3 -59q20 28 44 48q13 10 26 16t26 8z" />
    <glyph glyph-name="ograve" unicode="&#xf2;" horiz-adv-x="418" 
d="M135.5 741q17.5 12 39 7.5t33.5 -22.5l17 -25q17 -25 38 -57l20 -31q12 -18 7.5 -39.5t-22.5 -33t-39.5 -7t-33.5 22.5l-20 31q-20 31 -37 56l-17 25q-12 18 -7.5 39.5t22 33.5zM253 399l-10 5q-15 9 -24 7.5t-24 -16.5q-38 -39 -49 -151q-11 -117 9 -166q3 -8 7 -13l1 1
q11 4 27 24t32 59q35 85 35 158q1 55 -4 92zM246 514q12 16 31 20q21 5 39.5 -6.5t23.5 -32.5l6 -28l8 -4q19 -10 25 -31t-4 -40q-5 -10 -14 -17q2 -31 1 -68q0 -94 -43 -198q-47 -115 -120 -142q-37 -13 -70 -2q-48 15 -72 74q-29 72 -15 215q14 148 77 214q57 58 127 46z
" />
    <glyph glyph-name="oacute" unicode="&#xf3;" horiz-adv-x="385" 
d="M165 552q-18 12 -21.5 33.5t8.5 39.5l5 7q6 9 13.5 15.5t12 10t17 10.5t18.5 11l41 26q18 11 39.5 6t33 -23t6.5 -39.5t-23 -32.5l-41 -26q-24 -14 -33 -22q16 7 34 1.5t28 -20.5q12 -17 8 -39t-22 -34q13 -27 29 -75q32 -92 30 -174q-1 -94 -71 -166q-40 -41 -90.5 -44
t-93.5 35q-78 69 -46 241q30 163 115 223l12 8l1 1q8 8 20 13q3 3 7 5q-21 -3 -37 9zM203 411q-36 -43 -53 -137q-9 -44 -7.5 -75t7 -46.5t13.5 -22.5q13 -12 18 -12t21 16q41 42 42 94q1 64 -25 139q-9 26 -16 44z" />
    <glyph glyph-name="ocircumflex" unicode="&#xf4;" horiz-adv-x="407" 
d="M144 530q-16 14 -18 36t11 38l12 15q9 11 26 43q14 27 26 39q6 6 18.5 12t33.5 5t35 -19q13 -15 27 -55l12 -32q7 -20 -2.5 -40t-29.5 -27l-6 -2q4 -3 7 -8l17 -24q1 -1 2 -3q16 -15 26 -34l23 -43q10 -18 5 -38t-22 -31q5 -94 -16 -177q-25 -98 -107 -154
q-62 -42 -113 -22q-28 11 -47 39q-5 8 -10 18q-14 30 -16 70.5t4 84t20 105.5q17 77 38 125t58 71q-7 3 -14 8zM232 435q-6 1 -15 0q-4 -3 -12 -16.5t-20 -45t-21 -70.5q-12 -51 -16.5 -94.5t-3.5 -66t5 -31.5l1 -1q7 2 15 8q49 33 64 93q18 70 12 152q-2 37 -7 61
q-1 6 -2 11zM241 556q-2 2 -4 5q-4 -5 -7 -9q5 3 11 4z" />
    <glyph glyph-name="otilde" unicode="&#xf5;" horiz-adv-x="417" 
d="M273 336l-22 73q-1 3 -3 7q-8 -5 -17 -12q-62 -49 -80 -166q-9 -68 -7.5 -106.5t9.5 -54.5q13 3 34 16q63 39 79 107q15 68 7 136zM252 524q31 17 58 -4l14 -11q11 -8 19 -18.5t12.5 -25.5t7 -24.5t5.5 -32t5 -31.5t3 -18q3 -10 2 -21q8 -81 -10 -161q-25 -111 -125 -173
q-82 -51 -139 -22q-29 15 -45 48q-35 71 -12 225q24 148 108 223q-18 0 -32.5 11.5t-18.5 30.5l-2 12q-2 7 -2.5 14t0 12t2 13t2.5 11.5t4 13.5t4 13q0 1 3 12.5t5 16t6.5 14.5t10 15.5t14.5 11.5t21 10q38 11 71 -22l5 7q13 17 34.5 20.5t39 -9t21 -34.5t-8.5 -39l-10 -14
q-20 -27 -57 -40q-31 -11 -60 1q-1 -7 -2 -11l2 -8q3 -14 -3 -28q23 10 48 12z" />
    <glyph glyph-name="odieresis" unicode="&#xf6;" horiz-adv-x="434" 
d="M368 643q8 -21 -2 -41l-6 -13q-7 -14 -27 -23.5t-43.5 -6t-34.5 23.5l-4 8l-1 -4q-4 -24 -26.5 -39t-44.5 -12q-26 5 -39 28.5t-9 41.5q2 13 10 28l11 21q10 19 31 25.5t40 -3.5q26 -14 28 -44q9 31 34 41l12 5q20 8 40.5 -0.5t28.5 -27.5zM268 408q-6 -1 -13 -2
q-57 -14 -91 -90q-37 -84 -12 -180q11 -46 24 -59.5t30 -13.5q18 0 34.5 16t30.5 61q33 100 14 199q-9 43 -17 69zM387 362q1 -1 1 -3q25 -126 -17 -251q-22 -67 -63 -108t-100 -42q-61 -1 -101 41.5t-57 110.5q-33 131 18 248q52 117 150 146q9 17 27 24t36 0l25 -8
q13 -5 24 -14q22 -10 36.5 -30.5t16.5 -43.5l6 -50q1 -10 -2 -20z" />
    <glyph glyph-name="divide" unicode="&#xf7;" 
d="M216 501q15 15 37 15t38 -15l3 -3q15 -15 15 -37t-15.5 -37.5t-37 -15.5t-37.5 16l-3 3q-15 15 -15 37t15 37zM37 294.5q-2 21.5 12.5 38.5t35.5 18l79 7q80 7 148 11l68 4q21 1 37.5 -13.5t17.5 -36t-13.5 -38t-35.5 -17.5l-68 -4q-11 -1 -22 -1l1 -1l3 -3
q15 -15 15 -37t-15.5 -37t-37.5 -15t-37 15l-3 3q-14 14 -15 34t11 35q-22 -2 -45 -3l-79 -7q-21 -2 -38 12t-19 35.5z" />
    <glyph glyph-name="oslash" unicode="&#xf8;" horiz-adv-x="450" 
d="M379 707q20 -7 29.5 -27t2.5 -40l-42 -116q3 -3 5 -7l25 -44q11 -18 5 -39.5t-24 -31.5q-5 -3 -10 -5l1 -12q15 -111 -86 -248q-46 -63 -75 -88l-28 -89q-6 -21 -25.5 -31t-40 -3.5t-31 25.5t-3.5 40l11 38q-3 2 -7 5q-26 20 -38 53.5t-11 71.5t4 84q14 157 130 251
q61 50 97 61l44 120q7 20 27 29.5t40 2.5zM143 190q30 95 65 195q-54 -60 -62 -151q-2 -23 -3 -44z" />
    <glyph glyph-name="ugrave" unicode="&#xf9;" horiz-adv-x="443" 
d="M140 707q19 11 40 5t32 -24l53 -94q11 -18 5 -39.5t-24.5 -32t-39.5 -5t-32 24.5l-53 93q-11 19 -5.5 40t24.5 32zM362 372q-1 -15 -2 -36q-2 -50 2 -102q3 -37 9 -74q8 -58 15 -80l4 -4q15 -14 16 -36t-14 -38t-37 -16.5t-37 14.5l-11 9q-7 7 -12 15t-6 11.5t-3.5 13
t-2.5 10.5q-24 -49 -57 -72q-30 -20 -62 -19q-49 1 -83 53q-5 7 -10 16q-41 76 -32 247q1 11 0 28t-0.5 37.5t1.5 41.5t7 40t14.5 33t25 20t37.5 1l15 -3q21 -4 33 -22.5t7 -39.5q-5 -24 -27 -36q-5 -36 -8 -106q-8 -141 19 -191q3 -6 7 -11q27 27 49 122q7 32 13 59
q17 76 26 127q0 7 0.5 20t1 17.5t1.5 13t3 14.5t5 13q0 3 1.5 8t8 15.5t15 15.5t24.5 2t34 -18t23.5 -33t2.5 -30t-9 -27.5t-6 -19.5l-0.5 -1t-0.5 -2z" />
    <glyph glyph-name="uacute" unicode="&#xfa;" horiz-adv-x="496" 
d="M153 564q-10 19 -4 40t25 31l94 50q19 10 40 3.5t31 -25t3.5 -39.5t-25.5 -32l-93 -50q-19 -10 -40 -3.5t-31 25.5zM126 506.5q21 -3.5 33.5 -21.5t9.5 -40l-21 -115q-18 -100 17 -177q4 -11 9 -16q14 5 35 27q74 73 79 138q6 83 6 107v11q5 10 28.5 0.5t50.5 -26.5
t27 -20q0 -58 13 -153q13 -89 25 -116l16 -34q9 -19 2 -40t-26.5 -30t-40.5 -1.5t-30 26.5l-16 34q-12 26 -21 72q-18 -22 -39 -43q-72 -71 -136 -54q-26 6 -47 27q-18 19 -31 48q-48 106 -24 238l20 116q4 21 22 33.5t39 9z" />
    <glyph glyph-name="ucircumflex" unicode="&#xfb;" horiz-adv-x="484" 
d="M92 591q-1 20 13 36t33 19q7 7 17 18q2 2 10.5 12.5t13.5 15.5t14.5 12t21 9.5t24.5 1.5q17 -1 29.5 -7t21 -19t11 -17.5t6.5 -16.5l11 -27q8 -20 -0.5 -40.5t-28.5 -27.5q-18 -8 -37 -1t-29 24q-1 -1 -9.5 -11.5t-13.5 -14.5t-17 -9.5t-26 -5.5l-10 -1q-21 -1 -37.5 14
t-17.5 36zM271 398q0 16 42 53q50 44 61 26q1 -3 2 -7q1 -12 0 -72v-24q2 -60 9 -122q4 -41 12 -83q16 -89 26 -110l15 -21q12 -18 8.5 -39.5t-21 -34t-39.5 -8.5t-34 21l-15 22q-15 21 -27 72q-21 -35 -53.5 -55t-71.5 -20q-126 -1 -142 208q-13 172 8 234l17 52
q7 20 27 30t40 3t30 -27t3 -40l-18 -52q-14 -42 -2 -192q2 -30 6.5 -53t9 -33.5t10 -17t7.5 -7t4 -0.5q10 0 18 4t19 23.5t20 54.5q10 42 16 79q12 65 13 112v24z" />
    <glyph glyph-name="udieresis" unicode="&#xfc;" horiz-adv-x="487" 
d="M374 607q5 -21 -7 -39.5t-32 -23.5l-30 -7q-20 -4 -37.5 5.5t-24.5 28.5q-3 -8 -8 -14q-8 -17 -19 -25t-21.5 -8t-20 2t-15.5 6l-6 3q-26 18 -24 56q0 18 10.5 33.5t25.5 20.5q24 8 45 -6q24 -8 32 -30q1 -2 2 -3q9 27 37 33l30 7q21 5 39.5 -6.5t23.5 -32.5zM100.5 521
q21.5 -1 36 -17t13.5 -37l-5 -114q-5 -111 -1 -195q3 -70 31 -106l6 -6q7 1 17 9q17 14 37 54.5t36 104.5q35 140 38 185q1 12 -1 22t-0.5 17t9.5 23q7 14 20 16.5t26 -4t25.5 -15.5t20.5 -16l8 -8q0 -11 2 -133q2 -124 12 -194q11 -71 14 -83l4 -15q5 -21 -6 -40
t-31.5 -24.5t-39.5 6t-25 31.5l-3 15q-4 15 -12 68q-30 -62 -70 -93q-51 -39 -101 -29q-39 7 -68 44q-50 62 -54 166q-4 89 1 205l5 113q1 22 17.5 36.5t38 13.5z" />
    <glyph glyph-name="ydieresis" unicode="&#xff;" horiz-adv-x="465" 
d="M229 670q23 7 44 -7q14 -2 25 -10q17 -14 19.5 -35.5t-10.5 -38.5l-7 -9q-3 -4 -10 -9t-18.5 -11t-26.5 -4t-28 13q-4 4 -8 7q-3 -3 -8 -6q-17 -14 -32.5 -14t-24.5 9.5t-15.5 21.5t-9.5 22l-2 10v8q1 7 4 14l1 5q4 21 22.5 33t39.5 8q16 -3 28 -16q8 7 17 9zM396 597
q20 -8 28.5 -28.5t0.5 -40.5l-13 -31q-11 -29 -39 -138q-22 -85 -50 -215q19 -7 29 -24.5t6 -37.5q-5 -19 -21 -30.5t-35 -9.5q-36 -173 -39 -190l-2 -19q-4 -21 -21.5 -34t-38.5 -10t-34 21t-10 39l3 19q3 20 43 212q2 13 5 25q-4 7 -10.5 19t-9.5 17q-37 66 -93 193
l-54 123q-8 20 0 40.5t27.5 29t40 0.5t28.5 -27l55 -124q27 -64 51 -112q15 69 28 121q30 116 44 151l13 31q8 20 28 29t40 1z" />
    <glyph glyph-name="OE" unicode="&#x152;" horiz-adv-x="652" 
d="M248 377q0 16 8 30l-6 36q-2 7 -4 13q-18 56 -33 81q-55 -51 -69 -176q-13 -128 48 -236q19 -33 33 -45q4 4 9 10q30 41 39 96q-11 23 0 45q2 5 5 9q0 13 -1 27q-2 36 -6 68q-22 16 -23 42zM282 662q25 5 61 13q106 22 162 27l53 4q22 2 38.5 -12t18.5 -35.5t-12 -38
t-36 -18.5l-52 -5q-50 -4 -151 -25q-15 -3 -30 -7q8 -34 16 -83l3 -16q4 -13 7 -28q12 3 24 5q9 2 23 5t19 4t16 2.5t14.5 1t14.5 -0.5l10 -1q21 -2 34.5 -19.5t11.5 -38.5t-19.5 -35t-38.5 -11h-6q-15 -1 -58 -10q-19 -4 -28 -5q3 -30 5 -62q1 -15 1 -31q28 -6 65 -14
q88 -17 113 -26l20 -7q20 -8 29 -28t1.5 -40t-27.5 -29t-40 -2l-20 8q-16 6 -96 21q-44 9 -58 12q-16 -61 -51 -109q-39 -53 -89 -55q-35 -1 -67 22q-32 24 -62 78q-78 138 -61 299q17 165 102 242q2 2 6 5q14 13 21.5 19.5t23 16.5t28 13.5t29 3t32.5 -9.5z" />
    <glyph glyph-name="oe" unicode="&#x153;" horiz-adv-x="605" 
d="M264 530q7 2 13 2h8q39 1 58 -30q20 8 45 3q27 -5 46 -21q32 -26 35 -71q2 -41 -24 -68.5t-65 -42.5q-4 -2 -7 -3q-1 -37 -6 -82v-2q11 -21 37 -38q51 -33 76 -41l13 6q20 10 40.5 3t30 -26.5t2.5 -40.5t-26 -30l-24 -11q-12 -6 -24 -8.5t-25.5 0t-22.5 4.5t-25 11
t-23 13t-25 16l-24 16q-8 5 -16 11q-38 -65 -109 -89q-55 -19 -100 7.5t-64 82.5q-14 40 -19 98q-18 206 101 292q70 50 124 39zM260 205q-6 21 -8 42l-27 -12q-19 -9 -39.5 -1t-29.5 27.5t-1.5 40t27.5 29.5l50 22q10 5 21 10l-18 61v1q-14 -5 -34 -20q-70 -50 -57 -197
q4 -44 13 -71t14 -30.5t17 3.5q30 10 47.5 32t24.5 63z" />
    <glyph glyph-name="Ydieresis" unicode="&#x178;" horiz-adv-x="543" 
d="M351 804q23 -16 25 -43v-9q1 -21 -15 -41.5t-39 -23.5q-20 -2 -33 6t-17.5 21t-5 27.5t1 24.5t2.5 12l7 11q11 18 32.5 22.5t39.5 -7.5h2zM249 716l-9 -9l-6 -5q-10 -7 -41.5 35t-24.5 48l7 5q17 14 38.5 12t35.5 -19q12 -14 11.5 -33t-11.5 -34zM472 736.5
q20 -7.5 29 -27.5t2 -40l-37 -98q-30 -79 -72 -254q10 -15 9 -33.5t-13 -32.5q-6 -6 -13 -10q-52 -227 -66 -283l-13 -56q-5 -21 -24 -32t-39.5 -6t-32 23.5t-6.5 39.5l13 56q14 55 67 287q1 8 3 16q-2 3 -53 62q-75 87 -131 195l-52 102q-10 19 -3.5 40t25.5 31t40 3
t31 -26l53 -102q49 -96 117 -175l4 -4q32 127 58 196l37 98q7 20 27 29t40 1.5z" />
    <glyph glyph-name="afii10077" unicode="&#x43b;" horiz-adv-x="546" 
d="M46 4q-12 18 -8 39.5t22 33.5l40 27q10 7 29.5 35t40.5 71q46 93 60 166q13 64 14 81q-2 26 9.5 42.5t27 20.5t30.5 6.5t21 0.5q24 -3 41 0q67 10 85 -41q4 -11 5.5 -23.5t1.5 -21t-0.5 -32.5t-0.5 -39q0 -88 3 -170q3 -77 21 -136l20 -67q6 -20 -4.5 -39.5t-31 -25.5
t-40 4.5t-25.5 30.5l-20 66q-22 73 -25 163q-3 84 -3 174v50h-14q-4 -25 -12 -65q-17 -86 -68 -191q-55 -111 -106 -146l-40 -28q-18 -12 -39.5 -8t-33.5 22z" />
    <glyph glyph-name="quoteleft" unicode="&#x2018;" horiz-adv-x="197" 
d="M105 668q24 -2 40.5 -21t15.5 -43l-4 -52q-2 -24 -21 -40.5t-43.5 -14.5t-41 21t-14.5 43l4 52q2 24 21 40.5t43 14.5z" />
    <glyph glyph-name="quoteright" unicode="&#x2019;" horiz-adv-x="197" 
d="M90.5 664.5q24.5 2.5 44 -13t22.5 -40.5l4 -38q2 -25 -13.5 -44.5t-40 -22t-44 13.5t-22.5 40l-4 39q-2 24 13.5 43.5t40 22z" />
    <glyph glyph-name="quotedblleft" unicode="&#x201c;" horiz-adv-x="254" 
d="M156 732q21 2 38 -12t19 -35l5 -48q2 -21 -12 -38t-36 -19q-14 -1 -27 5l-1 -9q-2 -21 -19 -35t-38 -12t-35.5 18.5t-12.5 38.5l8 91q2 21 19 35t38 12q12 -1 22 -7q13 14 32 15z" />
    <glyph glyph-name="quotedblright" unicode="&#x201d;" horiz-adv-x="266" 
d="M178 752q21 -1 36.5 -16.5t14.5 -37.5l-1 -100q-1 -22 -16.5 -37t-37.5 -15q-20 1 -36 16q-15 -24 -42 -25q-21 -1 -37 14t-17 36l-1 27q-1 26 -3 55l-1 29q-1 22 14 38t36 17q30 1 47 -24q16 23 44 23z" />
  </font>
</defs>
</svg>
