<svg width="34" height="33" viewBox="0 0 34 33" fill="none" xmlns="http://www.w3.org/2000/svg">
<path d="M19.8863 16.5001C19.8863 18.2444 18.4736 19.6583 16.7308 19.6583C14.988 19.6583 13.5752 18.2444 13.5752 16.5001C13.5752 14.7559 14.988 13.3419 16.7308 13.3419C18.4736 13.3419 19.8863 14.7559 19.8863 16.5001Z" fill="white"/>
<path d="M24.1106 10.9121C23.9589 10.5007 23.7169 10.1284 23.4025 9.82271C23.0971 9.508 22.7253 9.26579 22.314 9.11398C21.9804 8.98431 21.4793 8.82998 20.5563 8.78793C19.5579 8.74236 19.2585 8.73254 16.7308 8.73254C14.2029 8.73254 13.9036 8.74211 12.9054 8.78768C11.9824 8.82998 11.481 8.98431 11.1477 9.11398C10.7364 9.26579 10.3644 9.508 10.0592 9.82271C9.74478 10.1284 9.50278 10.5005 9.35084 10.9121C9.22129 11.246 9.06708 11.7477 9.02507 12.6715C8.97954 13.6705 8.96973 13.9701 8.96973 16.5002C8.96973 19.0299 8.97954 19.3295 9.02507 20.3288C9.06708 21.2526 9.22129 21.7541 9.35084 22.0879C9.50278 22.4996 9.74453 22.8717 10.059 23.1773C10.3644 23.4921 10.7362 23.7343 11.1475 23.8861C11.481 24.016 11.9824 24.1703 12.9054 24.2124C13.9036 24.2579 14.2027 24.2675 16.7306 24.2675C19.2588 24.2675 19.5581 24.2579 20.5561 24.2124C21.479 24.1703 21.9804 24.016 22.314 23.8861C23.1396 23.5673 23.7921 22.9142 24.1106 22.0879C24.2401 21.7541 24.3943 21.2526 24.4366 20.3288C24.4821 19.3295 24.4917 19.0299 24.4917 16.5002C24.4917 13.9701 24.4821 13.6705 24.4366 12.6715C24.3946 11.7477 24.2404 11.246 24.1106 10.9121ZM16.7308 21.3651C14.0459 21.3651 11.8695 19.187 11.8695 16.4999C11.8695 13.8128 14.0459 11.6347 16.7308 11.6347C19.4155 11.6347 21.592 13.8128 21.592 16.4999C21.592 19.187 19.4155 21.3651 16.7308 21.3651ZM21.7842 12.5793C21.1568 12.5793 20.6481 12.0703 20.6481 11.4423C20.6481 10.8144 21.1568 10.3054 21.7842 10.3054C22.4116 10.3054 22.9202 10.8144 22.9202 11.4423C22.92 12.0703 22.4116 12.5793 21.7842 12.5793Z" fill="white"/>
<path d="M16.7303 0C7.62666 0 0.244141 7.38869 0.244141 16.5C0.244141 25.6113 7.62666 33 16.7303 33C25.834 33 33.2166 25.6113 33.2166 16.5C33.2166 7.38869 25.834 0 16.7303 0ZM26.1399 20.4062C26.0941 21.4148 25.9339 22.1034 25.7 22.7061C25.2082 23.9788 24.2029 24.9849 22.9313 25.4771C22.3293 25.7113 21.641 25.8714 20.6335 25.9175C19.624 25.9635 19.3015 25.9746 16.7306 25.9746C14.1594 25.9746 13.8372 25.9635 12.8274 25.9175C11.8199 25.8714 11.1316 25.7113 10.5297 25.4771C9.89774 25.2392 9.32569 24.8663 8.85276 24.3842C8.37127 23.9111 7.99871 23.3383 7.76099 22.7061C7.52704 22.1036 7.3668 21.4148 7.32101 20.4065C7.27448 19.3959 7.26366 19.0731 7.26366 16.5C7.26366 13.9269 7.27448 13.6041 7.32076 12.5938C7.36655 11.5852 7.52654 10.8966 7.76049 10.2939C7.99821 9.66167 8.37102 9.0889 8.85276 8.61582C9.32544 8.13368 9.89774 7.76081 10.5294 7.52289C11.1316 7.28874 11.8197 7.12862 12.8274 7.08254C13.8369 7.03647 14.1594 7.02539 16.7303 7.02539C19.3013 7.02539 19.6238 7.03647 20.6333 7.08279C21.641 7.12862 22.3291 7.28874 22.9313 7.52264C23.563 7.76056 24.1353 8.13368 24.6082 8.61582C25.0897 9.08915 25.4625 9.66167 25.7 10.2939C25.9342 10.8966 26.0941 11.5852 26.1402 12.5938C26.1862 13.6041 26.197 13.9269 26.197 16.5C26.197 19.0731 26.1862 19.3959 26.1399 20.4062Z" fill="white"/>
</svg>
