<svg width="33" height="33" viewBox="0 0 33 33" fill="none" xmlns="http://www.w3.org/2000/svg">
<path fill-rule="evenodd" clip-rule="evenodd" d="M16.6617 33C25.6199 33 32.882 25.6127 32.882 16.5C32.882 7.3873 25.6199 0 16.6617 0C7.70348 0 0.441406 7.3873 0.441406 16.5C0.441406 25.6127 7.70348 33 16.6617 33ZM24.2072 14.8759V14.1218V12.4548C24.2072 12.1373 24.3262 11.9785 24.9607 11.9785H25.7539V10.113H23.9693C22.7796 10.113 22.0657 10.9068 22.0657 12.296V14.1615V14.6775C22.0657 15.7094 21.5502 15.7094 21.3915 15.7094H20.5984V17.6939H21.3915C21.5502 17.6939 22.0657 17.6939 22.0657 18.6862V20.9883C22.0657 22.3377 22.7796 23.1713 23.9693 23.1713H25.7539V21.2264H24.9607C24.3262 21.2264 24.2072 21.028 24.2072 20.7501V18.3687C24.2072 18.0512 24.2072 17.1383 23.2951 16.5826C24.0882 16.146 24.2072 15.2331 24.2072 14.8759ZM12.9064 10.1131C9.85276 10.1131 7.35434 12.6136 7.35434 15.7095V23.1713H9.57516V20.1945C10.4873 20.9089 11.677 21.3455 12.9064 21.3455C15.96 21.3455 18.4584 18.845 18.4584 15.7492C18.4188 12.6136 15.96 10.1131 12.9064 10.1131ZM12.9064 19.0832C11.0821 19.0832 9.57516 17.5749 9.57516 15.7095C9.57516 13.844 11.0821 12.3358 12.9064 12.3358C14.7306 12.3358 16.2376 13.844 16.2376 15.7095C16.2376 17.5749 14.7306 19.0832 12.9064 19.0832Z" fill="white"/>
</svg>
