<svg width="34" height="33" viewBox="0 0 34 33" fill="none" xmlns="http://www.w3.org/2000/svg">
<path fill-rule="evenodd" clip-rule="evenodd" d="M16.9508 33C25.909 33 33.1711 25.6127 33.1711 16.5C33.1711 7.3873 25.909 0 16.9508 0C7.99254 0 0.730469 7.3873 0.730469 16.5C0.730469 25.6127 7.99254 33 16.9508 33ZM23.0065 8.69061C23.2192 8.60463 23.4608 8.5291 23.7201 8.51765C23.9793 8.50621 24.2564 8.55824 24.5395 8.728C24.8227 8.8978 25.0511 9.21333 25.1378 9.54289C25.2244 9.87245 25.2038 10.2064 25.1253 10.565L25.13 10.5463C25.13 10.5463 22.4466 24.3241 22.3834 24.6581V24.6597C22.3159 25.0131 22.157 25.2942 21.902 25.5618C21.647 25.8294 21.2498 26.0807 20.7492 26.0807C19.9059 26.0807 19.5236 25.5559 19.4826 25.4979L16.5709 22.7432L14.1701 24.8202L14.153 24.8326C14.153 24.8326 13.8673 25.0897 13.4005 25.0897C13.2911 25.0897 13.1684 25.0651 13.0469 25.0258C13.0366 25.0236 13.0281 25.022 13.0204 25.0206C13.0053 25.0177 12.9935 25.0155 12.9784 25.0102C12.9719 25.008 12.9659 25.0046 12.96 25.0012C12.9548 24.9983 12.9496 24.9953 12.9441 24.9931L12.941 24.9915C12.8893 24.9706 12.8381 24.9478 12.7914 24.9183C12.6746 24.8444 12.5783 24.7501 12.4954 24.6425C12.3296 24.4273 12.2023 24.1562 12.0685 23.7232C11.8803 23.1145 11.1134 20.7661 10.8754 20.0372C10.8569 19.9805 10.8416 19.9336 10.83 19.8981L10.5619 19.7884C9.77503 19.4664 7.85526 18.6808 7.17674 18.4039C6.96192 18.3162 6.71114 18.2004 6.47413 17.966C6.23712 17.7316 6.04882 17.3391 6.04882 16.9439C6.04882 16.4539 6.33783 16.0141 6.60967 15.8018C6.84243 15.6201 7.06366 15.534 7.16854 15.4931C7.18614 15.4863 7.20047 15.4807 7.21102 15.4762C7.86943 15.1929 8.73936 14.8184 9.73328 14.3906C11.686 13.55 14.1173 12.5034 16.3637 11.5373C18.0585 10.8083 19.6474 10.1261 20.8473 9.61145L20.8776 9.59846C22.059 9.09175 22.809 8.77007 23.0065 8.69061ZM23.5696 10.2019C23.5692 10.1988 23.5687 10.1955 23.5705 10.1848C23.4774 10.2229 22.6572 10.5713 21.4767 11.0776C20.2777 11.5919 18.6877 12.2746 16.9931 13.0035C14.8386 13.9301 12.5144 14.9308 10.6053 15.7528C9.5111 16.2239 8.5533 16.6363 7.84197 16.9424L7.83106 16.947C8.57911 17.2524 10.6239 18.0894 11.3207 18.3746L11.5139 18.4537C13.7635 17.1452 18.7819 14.2199 19.925 13.4911C19.9359 13.4842 19.9479 13.4764 19.9608 13.4679C20.0526 13.4078 20.1919 13.3166 20.2989 13.3166C20.4345 13.3166 20.4952 13.4012 20.4952 13.5176C20.4952 13.6046 20.442 13.6925 20.1883 13.9445C19.8732 14.2597 14.6437 19.6737 14.6437 19.6737L13.8072 23.0237L16.6192 20.593L20.5965 24.3558L20.6121 24.373C20.6121 24.373 20.7094 24.415 20.7569 24.4478C20.771 24.4281 20.7848 24.4032 20.7957 24.3835C20.8109 24.3562 20.8203 24.3393 20.8161 24.3621C20.9141 23.8441 23.5643 10.2425 23.5643 10.2425L23.5658 10.2331L23.5674 10.2238C23.5706 10.209 23.5702 10.2056 23.5696 10.2019Z" fill="white"/>
</svg>
