<svg width="34" height="33" viewBox="0 0 34 33" fill="none" xmlns="http://www.w3.org/2000/svg">
<path d="M16.9725 0C13.7119 0 10.5244 0.967708 7.81329 2.78075C5.10215 4.59379 2.98907 7.17074 1.74127 10.1857C0.493471 13.2007 0.16699 16.5183 0.803113 19.719C1.43924 22.9197 3.0094 25.8597 5.31503 28.1673C7.62067 30.4748 10.5582 32.0463 13.7562 32.6829C16.9542 33.3196 20.2691 32.9928 23.2815 31.744C26.294 30.4952 28.8688 28.3803 30.6803 25.6669C32.4918 22.9535 33.4587 19.7634 33.4587 16.5C33.4587 12.1239 31.7218 7.92709 28.63 4.83274C25.5383 1.73839 21.3449 0 16.9725 0V0ZM25.4586 12.1579C25.4586 12.3446 25.4738 12.5313 25.4738 12.7245C25.4738 18.5147 21.0681 25.1951 13.0093 25.1951C10.6248 25.2046 8.2888 24.5213 6.28471 23.2281C6.63222 23.2715 6.98224 23.2919 7.33245 23.2889C9.29794 23.289 11.207 22.631 12.7555 21.4196C11.843 21.3926 10.9612 21.0837 10.231 20.5353C9.50085 19.9868 8.95815 19.2257 8.67737 18.3562C8.95089 18.4105 9.22941 18.4352 9.50819 18.4301C9.89536 18.4334 10.2812 18.3852 10.6557 18.2868C9.66547 18.0817 8.77606 17.5414 8.13719 16.7569C7.49833 15.9723 7.14902 14.9915 7.14806 13.9794V13.9316C7.75461 14.2681 8.43317 14.4535 9.12641 14.4722C8.19763 13.8511 7.54094 12.8984 7.29056 11.8089C7.04018 10.7193 7.215 9.57523 7.77931 8.61039C8.87675 9.96748 10.248 11.0775 11.8033 11.868C13.3587 12.6585 15.0632 13.1117 16.8055 13.1978C16.7347 12.8697 16.7005 12.5348 16.7036 12.1991C16.7028 11.3198 16.9665 10.4606 17.4602 9.7332C17.954 9.00585 18.6551 8.44404 19.4722 8.12085C20.2893 7.79766 21.1847 7.72804 22.0419 7.92106C22.8991 8.11407 23.6784 8.56078 24.2785 9.20309C25.2578 9.01035 26.1969 8.65129 27.0552 8.14145C26.7313 9.15796 26.0458 10.0201 25.1289 10.5643C25.9987 10.4561 26.8484 10.2229 27.6517 9.87177C27.0663 10.7615 26.323 11.5363 25.4586 12.1579Z" fill="white"/>
</svg>
