<svg width="32" height="32" viewBox="0 0 32 32" fill="none" xmlns="http://www.w3.org/2000/svg">
<rect x="7.53027" y="8.47052" width="17.8824" height="15.0588" fill="#D4A446"/>
<path d="M0 16C0 7.1625 7.1625 0 16 0C24.8375 0 32 7.1625 32 16C32 24.8375 24.8375 32 16 32C7.1625 32 0 24.8375 0 16ZM16 23C16.8312 23 17.5 22.3312 17.5 21.5V17.5H21.5C22.3312 17.5 23 16.8312 23 16C23 15.1687 22.3312 14.5 21.5 14.5H17.5V10.5C17.5 9.66875 16.8312 9 16 9C15.1687 9 14.5 9.66875 14.5 10.5V14.5H10.5C9.66875 14.5 9 15.1687 9 16C9 16.8312 9.66875 17.5 10.5 17.5H14.5V21.5C14.5 22.3312 15.1687 23 16 23Z" fill="#1F2324"/>
</svg>
