<svg width="116" height="93" viewBox="0 0 116 93" fill="none" xmlns="http://www.w3.org/2000/svg">
<path d="M21.2439 0.45006C22.2011 0.212066 23.1675 0.32253 24.1429 0.781442C25.1824 1.23079 25.944 1.91235 26.4276 2.82613C26.9111 3.73989 27.0141 4.59908 26.7364 5.40366L25.9164 7.48152C26.0629 8.15931 25.9893 8.75858 25.6954 9.27936L24.3221 11.8689C24.0674 12.3203 23.8345 13.7224 23.6235 16.0752C23.4126 18.4281 23.3373 21.2695 23.3977 24.5996C23.4897 30.3735 23.5902 35.3512 23.6992 39.5326C24.0911 38.8382 24.5025 38.1091 24.9336 37.3453C27.2314 33.3778 29.9471 28.9823 33.0806 24.1589C36.2088 19.2409 38.4464 16.1092 39.7935 14.7637L41.5629 12.8783C42.1527 12.2499 42.9664 11.9537 44.004 11.99C45.0862 12.0514 46.0463 12.4331 46.8846 13.135C47.7424 13.8022 48.2625 14.5993 48.4448 15.5261C48.6271 16.453 48.4234 17.2306 47.8335 17.8591L46.0642 19.7445C44.963 20.8625 42.9044 23.7291 39.8884 28.3442C36.8386 33.1233 34.1943 37.4445 31.9552 41.3079C29.6823 45.3353 27.7781 48.4492 26.2424 50.6496C26.2424 50.6496 25.4726 51.3366 23.9329 52.7108C20.3686 55.277 17.9956 54.899 16.8138 51.577C16.7388 51.3974 16.6861 51.2303 16.6558 51.0759C16.5504 50.7418 16.4548 50.3903 16.3691 50.0214C16.3279 49.6777 16.2689 49.2096 16.1919 48.6168C16.1792 48.0145 16.1718 47.5068 16.1698 47.0937C16.1874 46.6459 16.1763 45.8843 16.1366 44.809C16.1414 43.7589 16.1222 42.8555 16.0791 42.0987C16.0152 39.0872 15.944 35.568 15.8654 31.541C15.0782 33.2483 14.2813 34.9729 13.4745 36.7149C10.4023 42.992 8.59999 46.7585 8.06755 48.0144C8.09255 48.0743 8.10503 48.1042 8.10503 48.1042C8.10503 48.1042 8.09524 48.1216 8.07564 48.1563C8.04041 49.0519 7.62625 49.7338 6.83316 50.2017C6.04006 50.6696 5.10683 50.7609 4.03345 50.4756C2.9851 50.2502 2.10321 49.7296 1.38794 48.914C0.672655 48.0983 0.354919 47.2552 0.434706 46.3848L0.439822 45.907C0.502022 45.4843 0.593583 45.0096 0.714561 44.4828C0.860523 44.0158 1.11694 43.4052 1.48382 42.651C1.8507 41.8967 2.21759 41.1424 2.58447 40.3882C2.95135 39.6339 3.48207 38.5373 4.17666 37.0982C4.9354 35.6496 5.64518 34.2877 6.30596 33.0127C9.96938 25.3755 13.0626 18.3321 15.5856 11.8824L19.3621 2.06598C19.704 1.25185 20.3313 0.713206 21.2439 0.45006ZM40.7949 47.0519C40.1635 46.192 39.9099 45.3393 40.0342 44.494C40.1782 43.6139 40.6593 42.9699 41.4773 42.5618C42.3401 42.1789 43.2857 42.1176 44.3145 42.3777L48.099 43.4835C48.5139 42.4359 48.9385 41.3709 49.373 40.2886C51.5454 34.8769 52.9288 31.3318 53.5234 29.6532L53.3897 29.5778C52.3555 29.223 51.5325 28.5983 50.9205 27.7036C50.3532 26.8341 50.1861 25.9845 50.4192 25.1548C50.6524 24.3251 51.2128 23.7487 52.1004 23.4257C53.0077 23.0679 53.9686 23.0838 54.9832 23.4732L63.2451 26.4879C68.7977 28.5228 73.2492 30.1652 76.5996 31.4152L81.6253 33.2901C82.6594 33.6448 83.4504 34.2743 83.9982 35.1785C84.6101 36.0732 84.7995 36.9354 84.5663 37.7651C84.3332 38.5949 83.7728 39.1712 82.8852 39.4943C81.9975 39.8173 81.0366 39.8015 80.0024 39.4467L74.9767 37.5718C71.6263 36.3218 67.1971 34.692 61.6891 32.6822L61.0579 32.3947L60.8602 32.9011C60.2656 34.5797 58.8849 38.1721 56.7179 43.6783C56.4348 44.3884 56.1615 45.0809 55.898 45.7562L56.4917 45.9539L60.5731 47.1586C61.6019 47.4188 62.432 47.9789 63.0635 48.8387C63.7593 49.6892 64.0351 50.5543 63.8911 51.4344C63.7667 52.2797 63.2634 52.9113 62.3811 53.3288C61.5631 53.7369 60.6494 53.7935 59.6402 53.4986L55.5589 52.294C54.7476 52.065 54.013 51.8564 53.355 51.6682C52.3044 54.0508 51.2875 56.2692 50.3044 58.3237C48.5092 62.0256 47.4674 64.1842 47.1788 64.7995L47.0481 65.3437C46.8149 66.1735 46.2322 66.7373 45.3 67.0351C44.4123 67.3582 43.471 67.3076 42.476 66.8834C41.4614 66.4939 40.658 65.8345 40.0656 64.9051C39.4983 64.0356 39.3535 63.1986 39.6312 62.394L39.7619 61.8498C39.9275 61.3481 41.0521 58.9387 43.1359 54.6215C43.948 52.9741 44.7548 51.2321 45.5561 49.3955L43.4192 48.8075C42.3654 48.4875 41.4907 47.9023 40.7949 47.0519ZM89.2213 43.4134C88.8661 42.4805 88.9162 41.6619 89.3725 40.9581C89.8484 40.2196 90.5893 39.7909 91.5968 39.6728C92.6042 39.5547 93.588 39.7894 94.5494 40.3778L98.3398 42.7229C99.9252 43.6633 101.768 44.7721 103.869 46.0492C104.265 46.1809 104.641 46.3477 104.998 46.5489C105.488 46.8255 105.895 47.1467 106.218 47.512C106.822 47.8988 107.427 48.286 108.031 48.6728L113.769 52.2543C114.73 52.8426 115.357 53.608 115.647 54.5503C116.003 55.4832 115.943 56.3191 115.467 57.0576C115.011 57.7614 114.257 58.1599 113.205 58.2531C112.217 58.3365 111.243 58.0844 110.282 57.4961L105.146 54.2543L104.617 55.1917C103.089 57.8998 100.225 62.3491 96.0259 68.5396C91.9697 74.5818 89.0797 79.7029 87.3558 83.9027L84.6527 90.411C84.3302 91.1903 83.6684 91.6866 82.6666 91.8994C81.7096 92.1375 80.743 92.0269 79.7676 91.568C78.7922 91.1091 78.0625 90.4226 77.5792 89.509C77.0958 88.5953 77.0147 87.7485 77.3372 86.9692L80.0403 80.4609C81.921 75.9832 84.9677 70.5845 89.1807 64.2645C93.3404 58.1434 96.1551 53.7809 97.6246 51.177L98.2712 50.0313C97.1067 49.2826 96.0213 48.6014 95.0157 47.9881L91.1291 45.6573C90.2124 45.0942 89.5765 44.3463 89.2213 43.4134Z" fill="#D4A446"/>
</svg>
