<svg width="213" height="60" viewBox="0 0 213 60" fill="none" xmlns="http://www.w3.org/2000/svg">
<path d="M19.6 19.8C20.0667 19.7667 20.4667 19.9 20.8 20.2C21.1667 20.5 21.35 20.8833 21.35 21.35C21.3833 21.8167 21.25 22.2167 20.95 22.55L19.5 24.1C18.5333 25.1667 17.5 26.2667 16.4 27.4C16.2667 27.5333 16.1833 27.6333 16.15 27.7C16.1833 27.9333 16.45 28.25 16.95 28.65C18.2833 29.8167 19.2167 30.4333 19.75 30.5L21 30.75C21.4333 30.8167 21.7833 31.05 22.05 31.45C22.35 31.8167 22.45 32.2333 22.35 32.7C22.2833 33.1333 22.05 33.4833 21.65 33.75C21.2833 34.0167 20.8833 34.1167 20.45 34.05L19.2 33.85C18.0333 33.65 16.55 32.7667 14.75 31.2C13.35 29.9667 12.7167 28.6833 12.85 27.35C12.9167 26.5167 13.3 25.75 14 25.05C15.1 23.95 16.1167 22.8833 17.05 21.85L18.45 20.3C18.75 19.9667 19.1333 19.8 19.6 19.8ZM12.45 16.45C12.9167 16.3833 13.3167 16.5 13.65 16.8C14.0167 17.0667 14.2333 17.4333 14.3 17.9C14.3667 18.3667 14.25 18.7833 13.95 19.15L11.45 22.4C9.68333 24.6667 7.96667 26.5833 6.3 28.15C5.8 28.65 5.46667 29.05 5.3 29.35C6.13333 30.05 7.88333 31.0333 10.55 32.3L15.25 34.55C15.65 34.75 15.9333 35.0667 16.1 35.5C16.2667 35.9333 16.25 36.3667 16.05 36.8C15.85 37.2 15.5167 37.4833 15.05 37.65C14.6167 37.7833 14.2 37.7667 13.8 37.6L9.1 35.35C5.83333 33.7833 3.73333 32.5333 2.8 31.6C2.36667 31.2333 2.08333 30.7833 1.95 30.25C1.58333 28.8833 2.26667 27.3833 4 25.75C5.56667 24.25 7.16667 22.45 8.8 20.35L11.35 17.05C11.6167 16.7167 11.9833 16.5167 12.45 16.45ZM39.1188 30.6C38.7188 30.8667 38.3021 30.95 37.8688 30.85C37.4354 30.75 37.0854 30.5167 36.8188 30.15C36.5521 29.75 36.4688 29.3167 36.5688 28.85L36.7688 27.9C36.8354 27.3667 36.6354 26.0167 36.1688 23.85C35.9354 22.9167 35.7188 22.1333 35.5188 21.5C34.8854 22.1 34.0854 23 33.1188 24.2C30.9188 26.9 29.7021 29.7 29.4688 32.6C29.2354 35.3333 29.8354 37.4667 31.2688 39C32.5688 40.3667 33.9188 40.8167 35.3188 40.35C37.0188 39.7833 38.3354 38.7667 39.2688 37.3L40.9688 34.6C41.2021 34.2333 41.5521 34 42.0188 33.9C42.4854 33.8 42.9021 33.8833 43.2688 34.15C43.6688 34.3833 43.9188 34.7333 44.0188 35.2C44.1188 35.6333 44.0354 36.0333 43.7688 36.4L42.0688 39.1C40.7354 41.2333 38.8354 42.7 36.3688 43.5C33.6354 44.4333 31.1354 43.7 28.8688 41.3C26.7354 39.0333 25.8188 36.0333 26.1188 32.3C26.4188 28.7333 27.8854 25.3333 30.5188 22.1C30.6854 21.9 30.9354 21.5667 31.2688 21.1C31.6354 20.6 31.9354 20.2167 32.1688 19.95C32.4021 19.6833 32.7021 19.35 33.0688 18.95C33.4354 18.55 33.7521 18.2667 34.0188 18.1C34.3188 17.9 34.6521 17.7167 35.0188 17.55C35.3854 17.3833 35.7354 17.3333 36.0688 17.4C36.4354 17.4667 36.7854 17.6167 37.1188 17.85C37.2854 17.95 37.4188 18.0667 37.5188 18.2C37.6521 18.3 37.7688 18.4167 37.8688 18.55C37.9688 18.65 38.0688 18.8 38.1688 19C38.2688 19.1667 38.3354 19.3 38.3688 19.4C38.4354 19.5 38.5021 19.6833 38.5688 19.95C38.6688 20.2167 38.7354 20.4 38.7688 20.5C38.8354 20.6 38.9021 20.8167 38.9688 21.15C39.0354 21.45 39.0688 21.65 39.0688 21.75C39.1021 21.8167 39.1521 22.05 39.2188 22.45C39.3188 22.8167 39.3854 23.05 39.4188 23.15C40.0188 25.8833 40.2354 27.6833 40.0688 28.55L39.8688 29.55C39.7688 29.9833 39.5188 30.3333 39.1188 30.6ZM52.3996 12.85C52.7663 13.3167 52.8496 13.8333 52.6496 14.4L52.4996 14.9C52.4996 14.9333 52.3996 15.0333 52.1996 15.2C51.9996 15.3333 51.7329 15.4833 51.3996 15.65C51.0996 15.7833 50.7829 15.8833 50.4496 15.95C50.1163 16.0167 49.8163 15.9667 49.5496 15.8C49.2829 15.6 49.1163 15.2667 49.0496 14.8C48.9496 14.4333 48.9329 13.9 48.9996 13.2L49.0996 12.4C49.1329 11.9333 49.3163 11.55 49.6496 11.25C50.0163 10.95 50.4163 10.8333 50.8496 10.9C51.3163 10.9333 51.6996 11.1333 51.9996 11.5C52.2996 11.8333 52.4329 12.2333 52.3996 12.7V12.85ZM49.7996 19.3C50.1663 18.9667 50.5663 18.8167 50.9996 18.85C51.4663 18.85 51.8496 19.0333 52.1496 19.4C52.4829 19.7333 52.6329 20.1333 52.5996 20.6L52.4496 23.55C52.3496 25.4833 52.2496 28.35 52.1496 32.15C52.0496 36.0833 51.8329 39.0167 51.4996 40.95L51.0496 43.8C50.9496 44.2333 50.6996 44.6 50.2996 44.9C49.9329 45.1667 49.5163 45.25 49.0496 45.15C48.6163 45.0833 48.2663 44.8667 47.9996 44.5C47.7329 44.1 47.6329 43.6833 47.6996 43.25L48.1996 40.4C48.4996 38.6 48.6996 35.8333 48.7996 32.1C48.8996 28.2667 48.9996 25.35 49.0996 23.35L49.2496 20.4C49.2829 19.9667 49.4663 19.6 49.7996 19.3ZM96.516 20.2C96.816 20.5333 96.9493 20.9333 96.916 21.4C96.916 21.8333 96.7327 22.2167 96.366 22.55C96.0327 22.85 95.6327 22.9833 95.166 22.95L90.816 22.7C88.3827 22.5667 86.566 23.1 85.366 24.3C85.3327 24.3333 85.2993 24.3667 85.266 24.4C85.2327 24.4667 85.2327 24.6 85.266 24.8C85.2993 25 85.5993 25.45 86.166 26.15C86.766 26.8167 87.666 27.5667 88.866 28.4C91.066 30 92.6993 31.55 93.766 33.05C94.866 34.55 95.2994 36.0833 95.066 37.65C94.8327 39.1833 94.116 40.4167 92.916 41.35C91.7493 42.25 90.266 42.8333 88.466 43.1C84.666 43.7 81.9493 42.9333 80.316 40.8C80.2493 40.7 80.116 40.5333 79.916 40.3C79.716 40.0333 79.566 39.85 79.466 39.75C79.3993 39.6167 79.2827 39.4333 79.116 39.2C78.9493 38.9667 78.8327 38.7833 78.766 38.65C78.6993 38.5167 78.616 38.35 78.516 38.15C78.416 37.9167 78.3493 37.7167 78.316 37.55C78.2827 37.35 78.266 37.15 78.266 36.95C78.266 36.75 78.2827 36.55 78.316 36.35L78.516 35.65C78.616 35.1833 78.866 34.8333 79.266 34.6C79.666 34.3667 80.0827 34.3 80.516 34.4C80.9493 34.5 81.2827 34.75 81.516 35.15C81.7827 35.55 81.866 35.9667 81.766 36.4L81.666 36.8C81.866 37.2333 82.2993 37.8833 82.966 38.75C83.7993 39.8167 85.466 40.1667 87.966 39.8C89.266 39.6 90.1827 39.2833 90.716 38.85C91.2827 38.4167 91.6327 37.8667 91.766 37.2C91.8327 36.5667 91.4827 35.7333 90.716 34.7C89.9827 33.6333 88.716 32.45 86.916 31.15C82.2493 27.7833 80.7993 24.8833 82.566 22.45C82.6993 22.2833 82.8493 22.1167 83.016 21.95C84.916 20.05 87.5827 19.1833 91.016 19.35L95.366 19.6C95.8327 19.6333 96.216 19.8333 96.516 20.2ZM101.379 23.9C100.979 23.6333 100.729 23.2833 100.629 22.85C100.563 22.3833 100.646 21.9667 100.879 21.6C101.146 21.2 101.513 20.95 101.979 20.85L106.829 19.85C107.129 19.7833 107.429 19.7333 107.729 19.7V9.45C107.729 8.98333 107.879 8.6 108.179 8.3C108.513 7.96667 108.913 7.8 109.379 7.8C109.846 7.76666 110.246 7.91666 110.579 8.25C110.913 8.58333 111.079 8.98333 111.079 9.45V19C112.079 18.7667 112.846 18.6 113.379 18.5L115.129 18.1C115.596 18 116.029 18.0833 116.429 18.35C116.829 18.5833 117.079 18.9167 117.179 19.35C117.279 19.7833 117.196 20.2 116.929 20.6C116.696 21 116.346 21.25 115.879 21.35L114.129 21.75C113.463 21.9167 112.463 22.1333 111.129 22.4C111.129 28.3 111.146 33.5 111.179 38V45.95C111.179 46.4167 111.013 46.8167 110.679 47.15C110.346 47.4833 109.946 47.65 109.479 47.65C109.046 47.65 108.663 47.4833 108.329 47.15C107.996 46.8167 107.829 46.4333 107.829 46V38C107.796 33.5667 107.779 28.6 107.779 23.1C107.713 23.1 107.613 23.1167 107.479 23.15L102.629 24.15C102.196 24.25 101.779 24.1667 101.379 23.9ZM136.243 24.5C136.71 24.2 137.193 23.9 137.693 23.6C139.326 22.5667 140.46 21.6667 141.093 20.9C140.493 21.1333 139.76 21.5167 138.893 22.05C137.826 22.75 136.943 23.5667 136.243 24.5ZM130.843 25.2C130.776 25 130.71 24.8 130.643 24.6C130.51 24.1333 130.36 23.7667 130.193 23.5C129.993 23.1667 129.86 23 129.793 23C129.76 22.9667 129.51 23.0833 129.043 23.35C127.543 24.25 126.31 26.5667 125.343 30.3C124.343 34.2333 124.026 37 124.393 38.6C124.493 39.0333 124.626 39.35 124.793 39.55C125.093 39.3167 125.61 38.4667 126.343 37C127.11 35.5 127.91 33.6 128.743 31.3C128.843 31.0333 128.943 30.7833 129.043 30.55L127.943 30.7C127.476 30.7667 127.06 30.6667 126.693 30.4C126.326 30.1 126.11 29.7333 126.043 29.3C125.976 28.8333 126.076 28.4167 126.343 28.05C126.61 27.65 126.976 27.4167 127.443 27.35L130.243 26.95C130.476 26.35 130.66 25.8167 130.793 25.35C130.793 25.2833 130.81 25.2333 130.843 25.2ZM133.993 40.45V40.8C134.026 41.2333 133.893 41.6333 133.593 42C133.293 42.3333 132.91 42.5167 132.443 42.55C132.01 42.5833 131.61 42.45 131.243 42.15C130.876 41.85 130.676 41.4667 130.643 41L130.443 38.05C130.41 37.55 130.376 37.0167 130.343 36.45C129.943 37.45 129.61 38.2167 129.343 38.75C129.076 39.2833 128.743 39.8833 128.343 40.55C127.976 41.1833 127.576 41.6833 127.143 42.05C126.743 42.3833 126.276 42.6167 125.743 42.75C124.576 43.0833 123.576 42.9 122.743 42.2C121.943 41.5 121.41 40.55 121.143 39.35C120.643 37.25 120.96 33.9667 122.093 29.5C123.293 24.8667 125.043 21.85 127.343 20.45C128.443 19.7833 129.543 19.6 130.643 19.9C131.743 20.1667 132.593 20.8833 133.193 22.05C133.393 22.1167 133.576 22.1833 133.743 22.25C134.676 21.0833 135.793 20.0833 137.093 19.25C137.826 18.7833 138.46 18.4167 138.993 18.15C139.56 17.8833 140.193 17.65 140.893 17.45C141.593 17.2167 142.243 17.2167 142.843 17.45C143.443 17.65 143.926 18.0667 144.293 18.7C144.426 18.8667 144.526 19.0667 144.593 19.3C145.06 20.6 144.81 21.8167 143.843 22.95C142.91 24.05 141.46 25.2 139.493 26.4C137.826 27.4667 136.326 28.3 134.993 28.9C135.026 29.2667 135.026 29.6167 134.993 29.95L134.943 31.75C134.91 32.4167 134.56 32.9 133.893 33.2C134.06 34.4667 134.46 35.6 135.093 36.6C135.693 37.5667 136.293 38.2 136.893 38.5C137.526 38.8 138.276 38.85 139.143 38.65L142.743 37.75C143.21 37.65 143.643 37.7333 144.043 38C144.443 38.2333 144.693 38.5667 144.793 39C144.893 39.4333 144.81 39.85 144.543 40.25C144.31 40.65 143.976 40.9 143.543 41L139.893 41.9C137.66 42.4333 135.693 41.95 133.993 40.45ZM148.881 15.6C149.181 15.2333 149.564 15.0333 150.031 15C150.498 14.9667 150.898 15.1 151.231 15.4C151.598 15.7 151.798 16.0833 151.831 16.55L152.131 20.55C152.131 20.5167 152.148 20.4333 152.181 20.3C152.214 20.1667 152.231 20.0833 152.231 20.05C152.264 19.9833 152.298 19.9 152.331 19.8C152.398 19.7 152.448 19.6333 152.481 19.6C152.514 19.5333 152.548 19.45 152.581 19.35C152.648 19.25 152.714 19.1667 152.781 19.1C152.848 19.0333 152.914 18.9667 152.981 18.9C153.081 18.8333 153.181 18.75 153.281 18.65C153.781 18.3167 154.231 18.15 154.631 18.15C155.064 18.1167 155.431 18.2667 155.731 18.6C156.064 18.9333 156.348 19.2667 156.581 19.6C156.814 19.9333 157.031 20.4167 157.231 21.05C157.431 21.6833 157.564 22.1833 157.631 22.55C157.731 22.8833 157.848 23.3333 157.981 23.9C158.048 24.1667 158.098 24.35 158.131 24.45C158.464 25.95 158.764 27.3833 159.031 28.75C159.798 25.9167 160.481 23.7 161.081 22.1C161.714 20.5 162.364 19.3 163.031 18.5C163.564 17.9 164.148 17.5833 164.781 17.55C165.214 17.5167 165.598 17.5667 165.931 17.7C166.298 17.8333 166.581 18.0833 166.781 18.45C167.014 18.8167 167.198 19.15 167.331 19.45C167.498 19.7167 167.614 20.1667 167.681 20.8C167.748 21.4 167.781 21.85 167.781 22.15C167.814 22.4167 167.848 22.9167 167.881 23.65C167.914 24.35 167.931 24.7667 167.931 24.9C168.131 29.7333 168.331 35.0167 168.531 40.75L168.831 49.3C168.864 49.7667 168.714 50.1667 168.381 50.5C168.081 50.8667 167.698 51.05 167.231 51.05C166.764 51.0833 166.364 50.9333 166.031 50.6C165.698 50.2667 165.514 49.8833 165.481 49.45L165.181 40.85C165.014 35.15 164.814 29.8833 164.581 25.05C164.548 24.25 164.498 23.5167 164.431 22.85C163.731 24.55 162.964 26.9833 162.131 30.15C162.064 30.3833 161.981 30.7333 161.881 31.2C161.781 31.6333 161.681 32.0333 161.581 32.4C161.514 32.7333 161.414 33.15 161.281 33.65C161.181 34.1167 161.064 34.5167 160.931 34.85C160.798 35.15 160.614 35.5 160.381 35.9C160.181 36.2667 159.964 36.5167 159.731 36.65C159.498 36.7833 159.214 36.9167 158.881 37.05C158.548 37.15 158.198 37.1 157.831 36.9C157.498 36.8 157.214 36.65 156.981 36.45C156.748 36.25 156.581 36.0333 156.481 35.8C156.414 35.5667 156.364 35.3667 156.331 35.2C156.331 35 156.331 34.8 156.331 34.6C156.364 34.3667 156.364 34.2333 156.331 34.2C156.198 31.7333 155.698 28.7333 154.831 25.2C154.764 24.9 154.698 24.6333 154.631 24.4C154.398 25.7667 154.164 27.45 153.931 29.45C153.198 35.15 152.731 39.2333 152.531 41.7C152.531 41.7333 152.531 41.8 152.531 41.9C152.564 41.9667 152.581 42.1333 152.581 42.4C152.614 42.6333 152.614 42.85 152.581 43.05C152.548 43.2167 152.481 43.4333 152.381 43.7C152.314 43.9333 152.181 44.1 151.981 44.2C151.814 44.3 151.581 44.4 151.281 44.5C151.014 44.5667 150.648 44.5167 150.181 44.35C149.714 44.1833 149.348 43.9167 149.081 43.55C148.848 43.1833 148.714 42.7333 148.681 42.2C148.648 41.6333 148.648 41.1 148.681 40.6C148.748 40.0667 148.831 39.45 148.931 38.75C149.031 38.05 149.081 37.5167 149.081 37.15C149.281 31.8167 149.231 27.1 148.931 23L148.481 16.75C148.448 16.3167 148.581 15.9333 148.881 15.6ZM183.103 38.4C183.103 37.9333 183.253 37.55 183.553 37.25C183.886 36.9167 184.286 36.75 184.753 36.75C185.22 36.75 185.62 36.9167 185.953 37.25L186.103 37.4C186.436 37.7 186.603 38.0833 186.603 38.55C186.603 39.0167 186.436 39.4167 186.103 39.75C185.77 40.0833 185.37 40.25 184.903 40.25C184.436 40.25 184.053 40.0833 183.753 39.75L183.603 39.6C183.27 39.2667 183.103 38.8667 183.103 38.4ZM174.503 12.5C174.036 12.5667 173.62 12.4667 173.253 12.2C172.886 11.9333 172.653 11.5667 172.553 11.1C172.486 10.6333 172.586 10.2167 172.853 9.85L175.103 6.65C176.07 5.31666 177.253 4.38333 178.653 3.85C180.086 3.31666 181.653 3.2 183.353 3.5C183.653 3.56666 183.936 3.63333 184.203 3.7C185.403 4.1 186.27 4.8 186.803 5.8C187.37 6.76666 187.62 7.85 187.553 9.05C187.52 10.25 187.253 11.5667 186.753 13C185.353 17.1667 184.686 21.4333 184.753 25.8L184.903 32.65C184.903 33.0833 184.736 33.4833 184.403 33.85C184.103 34.1833 183.72 34.35 183.253 34.35C182.786 34.35 182.386 34.2 182.053 33.9C181.72 33.5667 181.553 33.1667 181.553 32.7L181.403 25.85C181.336 21.0833 182.07 16.4333 183.603 11.9C184.003 10.7 184.22 9.71667 184.253 8.95C184.286 8.18333 184.203 7.68333 184.003 7.45C183.803 7.21667 183.536 7.03333 183.203 6.9C183.07 6.86667 182.92 6.83333 182.753 6.8C181.586 6.6 180.62 6.65 179.853 6.95C179.12 7.21667 178.453 7.75 177.853 8.55L175.603 11.8C175.336 12.1667 174.97 12.4 174.503 12.5ZM191.205 18.15C191.139 17.6833 191.239 17.2667 191.505 16.9C191.805 16.5333 192.172 16.3167 192.605 16.25C193.072 16.1833 193.489 16.3 193.855 16.6L194.755 17.25C195.389 17.7167 196.389 18.5 197.755 19.6C199.155 20.7667 200.189 21.75 200.855 22.55C201.189 22.95 201.405 23.3667 201.505 23.8C201.772 24.9667 201.339 26.2667 200.205 27.7C199.139 29.1 198.139 30.25 197.205 31.15L195.905 32.4C195.572 32.7 195.172 32.85 194.705 32.85C194.239 32.85 193.839 32.6833 193.505 32.35C193.205 32.0167 193.055 31.6167 193.055 31.15C193.055 30.6833 193.222 30.3 193.555 30L194.855 28.75C195.689 27.95 196.589 26.9167 197.555 25.65C197.889 25.2167 198.105 24.8667 198.205 24.6C197.672 23.9667 196.805 23.1667 195.605 22.2C194.305 21.1333 193.355 20.3833 192.755 19.95L191.855 19.25C191.489 18.9833 191.272 18.6167 191.205 18.15ZM200.155 18.45C200.122 17.9833 200.255 17.5833 200.555 17.25C200.855 16.8833 201.239 16.6833 201.705 16.65C202.172 16.6167 202.572 16.75 202.905 17.05L204.205 18.2C205.072 18.9333 206.039 19.75 207.105 20.65C208.239 21.55 209.155 22.3333 209.855 23C210.322 23.4 210.605 23.9 210.705 24.5C210.905 25.6667 210.339 26.9667 209.005 28.4C207.672 29.8333 205.989 31.4667 203.955 33.3C201.889 35.1667 200.372 36.3833 199.405 36.95L198.105 37.75C197.739 37.9833 197.322 38.05 196.855 37.95C196.389 37.85 196.039 37.6167 195.805 37.25C195.572 36.85 195.505 36.4167 195.605 35.95C195.705 35.4833 195.955 35.1333 196.355 34.9L197.655 34.1C198.422 33.6333 199.772 32.5333 201.705 30.8C203.672 29.0333 205.289 27.4667 206.555 26.1C206.889 25.7667 207.139 25.4667 207.305 25.2C206.672 24.6 205.905 23.9333 205.005 23.2C203.905 22.3333 202.922 21.5 202.055 20.7L200.705 19.6C200.372 19.3 200.189 18.9167 200.155 18.45Z" fill="white"/>
<path d="M44.3851 5.08387C37.6828 10.2359 36.4836 10.2359 31.0275 4.76582C28.3067 2.63426 26.0953 6.99051 28.8047 9.07783C35.6691 14.3907 38.4823 14.6331 45.6777 9.07787C48.6191 7.56947 47.3265 3.57547 44.3851 5.08387Z" fill="white"/>
<path d="M97.058 5.08387C90.3557 10.2359 89.1564 10.2359 83.7003 4.76582C80.9796 2.63426 78.7682 6.99051 81.4776 9.07783C88.3419 14.3907 91.1552 14.6331 98.3506 9.07787C101.292 7.56947 99.9994 3.57547 97.058 5.08387Z" fill="white"/>
</svg>
