<svg width="39" height="28" viewBox="0 0 39 28" fill="none" xmlns="http://www.w3.org/2000/svg">
<path d="M31.6392 5.64627C31.0512 5.99053 30.4362 6.38801 29.7943 6.83871C28.7781 7.55454 27.9753 8.23126 27.386 8.86884C26.7966 9.5331 26.448 9.99834 26.3402 10.2646C26.2057 10.5573 26.1516 10.7571 26.1778 10.8639C26.2039 10.9973 26.2435 11.1042 26.2965 11.1844C26.5097 11.2119 26.8032 11.1598 27.1771 11.028C28.6992 10.5276 29.7828 9.63869 30.4281 8.36132C31.0734 7.05729 31.4772 6.15228 31.6392 5.64627ZM34.2207 10.1769C34.1938 10.2301 34.1803 10.2567 34.1803 10.2567C33.0243 12.5453 31.1378 14.1243 28.5209 14.9936C26.6516 15.6259 25.1186 15.5263 23.922 14.6947C23.1242 14.1581 22.5674 13.3824 22.2516 12.3678C22.199 12.1809 22.1464 12.0074 22.0937 11.8472C21.7534 10.2991 22.066 8.84701 23.0316 7.49096C23.9972 6.13491 25.4561 4.76756 27.4085 3.38889C28.1305 2.88518 28.759 2.46109 29.2937 2.11661C29.8017 1.7987 30.4431 1.46799 31.2178 1.1245C31.9659 0.780902 32.6334 0.570306 33.2204 0.492714C33.7807 0.415013 34.3805 0.470808 35.0197 0.660099C35.6322 0.875948 36.1639 1.27813 36.6148 1.86665C37.3047 2.69616 37.7805 3.72479 38.0421 4.95254C38.2771 6.18018 38.4041 7.71405 38.4233 9.55414C38.4353 13.1276 37.6761 16.1645 36.1458 18.6649C34.6423 21.1387 32.9549 22.9451 31.0836 24.0841C29.3192 25.1436 27.5826 25.9231 25.8739 26.4228L23.5513 27.0533C22.9907 27.211 22.4576 27.1421 21.9521 26.8467C21.4466 26.578 21.1149 26.1633 20.9572 25.6026C20.7995 25.042 20.8684 24.5089 21.1638 24.0034C21.4592 23.498 21.8739 23.1663 22.4079 23.0085L24.7305 22.3781C26.0655 21.9835 27.4547 21.3626 28.8982 20.5151C30.1815 19.7204 31.4003 18.3787 32.5547 16.4901C33.6017 14.7877 34.157 12.6833 34.2207 10.1769ZM11.2488 5.5626C10.6607 5.90685 10.0457 6.30433 9.40388 6.75504C8.3876 7.47087 7.58482 8.14758 6.99553 8.78517C6.40613 9.44942 6.05755 9.91466 5.94979 10.1809C5.81525 10.4737 5.7611 10.6735 5.78733 10.7802C5.81345 10.9137 5.85301 11.0205 5.90601 11.1007C6.11924 11.1283 6.41279 11.0761 6.78666 10.9443C8.30873 10.4439 9.39239 9.55501 10.0376 8.27765C10.683 6.97362 11.0867 6.0686 11.2488 5.5626ZM13.8302 10.0932C13.8033 10.1465 13.7899 10.1731 13.7899 10.1731C12.6338 12.4617 10.7473 14.0406 8.1304 14.9099C6.26112 15.5422 4.72818 15.4426 3.53159 14.611C2.73378 14.0744 2.17696 13.2988 1.86112 12.2841C1.80856 12.0972 1.75593 11.9237 1.70326 11.7635C1.36294 10.2154 1.67557 8.76334 2.64115 7.40729C3.60672 6.05124 5.06568 4.68388 7.01802 3.30522C7.74009 2.80151 8.36851 2.37742 8.90326 2.03294C9.41124 1.71502 10.0526 1.38432 10.8273 1.04083C11.5754 0.697228 12.243 0.486633 12.83 0.409041C13.3903 0.331339 13.9901 0.387134 14.6293 0.576426C15.2417 0.792274 15.7734 1.19446 16.2243 1.78298C16.9143 2.61249 17.3901 3.64111 17.6517 4.86886C17.8867 6.09651 18.0137 7.63037 18.0328 9.47047C18.0448 13.0439 17.2857 16.0808 15.7554 18.5812C14.2519 21.0551 12.5645 22.8615 10.6931 24.0005C8.92874 25.0599 7.19219 25.8395 5.48346 26.3391L3.16086 26.9696C2.6002 27.1273 2.06715 27.0584 1.56169 26.763C1.05612 26.4943 0.724487 26.0796 0.566787 25.5189C0.409087 24.9583 0.477943 24.4252 0.773354 23.9198C1.06876 23.4143 1.48346 23.0827 2.01745 22.9249L4.34005 22.2944C5.67502 21.8999 7.06425 21.2789 8.50774 20.4315C9.79101 19.6367 11.0099 18.2951 12.1643 16.4064C13.2113 14.7041 13.7666 12.5997 13.8302 10.0932Z" fill="white"/>
</svg>
